<mxfile host="app.diagrams.net" modified="2022-08-26T19:43:16.335Z" agent="5.0 (Windows NT 10.0; Win64; x64) AppleWebKit/537.36 (KHTML, like Gecko) Chrome/104.0.0.0 Safari/537.36" etag="Lydqyy06jTUlyHE8pLlI" version="20.2.7" type="github">
  <diagram id="6a731a19-8d31-9384-78a2-239565b7b9f0" name="Page-1">
    <mxGraphModel dx="1822" dy="762" grid="1" gridSize="10" guides="1" tooltips="1" connect="1" arrows="1" fold="1" page="0" pageScale="1" pageWidth="1169" pageHeight="827" background="#D4E1F5" math="0" shadow="0">
      <root>
        <mxCell id="0" />
        <mxCell id="1" parent="0" />
        <mxCell id="MxWDfC0iBpmXcdRfzme4-2122" value="" style="rounded=1;whiteSpace=wrap;html=1;dashed=1;strokeColor=none;strokeWidth=2;fillColor=#E6E6E6;fontFamily=Verdana;fontSize=12;fontColor=#00BEF2;rotation=90;textOpacity=40;gradientColor=none;opacity=70;" vertex="1" parent="1">
          <mxGeometry x="368.5" y="1670.75" width="274.5" height="1130" as="geometry" />
        </mxCell>
        <mxCell id="MxWDfC0iBpmXcdRfzme4-2115" value="" style="rounded=1;whiteSpace=wrap;html=1;dashed=1;strokeColor=none;strokeWidth=2;fillColor=#E6E6E6;fontFamily=Verdana;fontSize=12;fontColor=#00BEF2;rotation=90;textOpacity=40;gradientColor=none;opacity=70;" vertex="1" parent="1">
          <mxGeometry x="500.5" y="1506.5" width="274.5" height="831.5" as="geometry" />
        </mxCell>
        <mxCell id="MxWDfC0iBpmXcdRfzme4-2114" value="" style="rounded=1;whiteSpace=wrap;html=1;dashed=1;strokeColor=none;strokeWidth=2;fillColor=#E6E6E6;fontFamily=Verdana;fontSize=12;fontColor=#00BEF2;rotation=90;textOpacity=40;gradientColor=none;opacity=70;" vertex="1" parent="1">
          <mxGeometry x="527.5" y="1332" width="165" height="670" as="geometry" />
        </mxCell>
        <mxCell id="2019" value="" style="rounded=1;whiteSpace=wrap;html=1;dashed=1;strokeColor=none;strokeWidth=2;fillColor=#E6E6E6;fontFamily=Verdana;fontSize=12;fontColor=#00BEF2" parent="1" vertex="1">
          <mxGeometry x="40" y="120" width="165" height="670" as="geometry" />
        </mxCell>
        <mxCell id="2020" value="" style="rounded=1;whiteSpace=wrap;html=1;dashed=1;strokeColor=none;strokeWidth=2;fillColor=#E6E6E6;fontFamily=Verdana;fontSize=12;fontColor=#00BEF2" parent="1" vertex="1">
          <mxGeometry x="220" y="120" width="165" height="670" as="geometry" />
        </mxCell>
        <mxCell id="2021" value="" style="rounded=1;whiteSpace=wrap;html=1;dashed=1;strokeColor=none;strokeWidth=2;fillColor=#E6E6E6;fontFamily=Verdana;fontSize=12;fontColor=#00BEF2" parent="1" vertex="1">
          <mxGeometry x="400" y="120" width="165" height="670" as="geometry" />
        </mxCell>
        <mxCell id="2022" value="" style="rounded=1;whiteSpace=wrap;html=1;dashed=1;strokeColor=none;strokeWidth=2;fillColor=#E6E6E6;fontFamily=Verdana;fontSize=12;fontColor=#00BEF2" parent="1" vertex="1">
          <mxGeometry x="580" y="120" width="165" height="670" as="geometry" />
        </mxCell>
        <mxCell id="2023" value="" style="rounded=1;whiteSpace=wrap;html=1;dashed=1;strokeColor=none;strokeWidth=2;fillColor=#E6E6E6;fontFamily=Verdana;fontSize=12;fontColor=#00BEF2" parent="1" vertex="1">
          <mxGeometry x="760" y="120" width="165" height="670" as="geometry" />
        </mxCell>
        <mxCell id="2024" value="" style="rounded=1;whiteSpace=wrap;html=1;dashed=1;strokeColor=none;strokeWidth=2;fillColor=#E6E6E6;fontFamily=Verdana;fontSize=12;fontColor=#00BEF2" parent="1" vertex="1">
          <mxGeometry x="940" y="120" width="165" height="670" as="geometry" />
        </mxCell>
        <mxCell id="2025" value="Event" style="whiteSpace=wrap;html=1;dashed=1;strokeColor=none;strokeWidth=2;fillColor=#3399FF;fontFamily=Helvetica;fontSize=18;fontColor=#FFFFFF;fontStyle=1" parent="1" vertex="1">
          <mxGeometry x="40" y="120" width="165" height="60" as="geometry" />
        </mxCell>
        <mxCell id="2026" value="Compute" style="whiteSpace=wrap;html=1;dashed=1;strokeColor=none;strokeWidth=2;fillColor=#3399FF;fontFamily=Helvetica;fontSize=18;fontColor=#FFFFFF;fontStyle=1" parent="1" vertex="1">
          <mxGeometry x="220" y="120" width="165" height="60" as="geometry" />
        </mxCell>
        <mxCell id="2027" value="Data&lt;div&gt;Services&lt;/div&gt;" style="whiteSpace=wrap;html=1;dashed=1;strokeColor=none;strokeWidth=2;fillColor=#3399FF;fontFamily=Helvetica;fontSize=18;fontColor=#FFFFFF;fontStyle=1" parent="1" vertex="1">
          <mxGeometry x="400" y="120" width="165" height="60" as="geometry" />
        </mxCell>
        <mxCell id="2028" value="Data&lt;div&gt;Storage&lt;/div&gt;" style="whiteSpace=wrap;html=1;dashed=1;strokeColor=none;strokeWidth=2;fillColor=#3399FF;fontFamily=Helvetica;fontSize=18;fontColor=#FFFFFF;fontStyle=1" parent="1" vertex="1">
          <mxGeometry x="580" y="120" width="165" height="60" as="geometry" />
        </mxCell>
        <mxCell id="2029" value="App&lt;div&gt;Services&lt;/div&gt;" style="whiteSpace=wrap;html=1;dashed=1;strokeColor=none;strokeWidth=2;fillColor=#3399FF;fontFamily=Helvetica;fontSize=18;fontColor=#FFFFFF;fontStyle=1" parent="1" vertex="1">
          <mxGeometry x="760" y="120" width="165" height="60" as="geometry" />
        </mxCell>
        <mxCell id="2030" value="&amp;nbsp; &amp;nbsp;Presentation" style="whiteSpace=wrap;html=1;dashed=1;strokeColor=none;strokeWidth=2;fillColor=#3399FF;fontFamily=Helvetica;fontSize=18;fontColor=#FFFFFF;fontStyle=1" parent="1" vertex="1">
          <mxGeometry x="940" y="120" width="165" height="60" as="geometry" />
        </mxCell>
        <mxCell id="2031" value="" style="shape=mxgraph.arrows.two_way_arrow_horizontal;html=1;verticalLabelPosition=bottom;verticalAlign=top;strokeWidth=2;strokeColor=none;dashed=1;fillColor=#FFFFFF;fontFamily=Verdana;fontSize=12;fontColor=#00BEF2" parent="1" vertex="1">
          <mxGeometry x="180" y="131" width="67" height="39" as="geometry" />
        </mxCell>
        <mxCell id="2032" value="" style="shape=mxgraph.arrows.two_way_arrow_horizontal;html=1;verticalLabelPosition=bottom;verticalAlign=top;strokeWidth=2;strokeColor=none;dashed=1;fillColor=#FFFFFF;fontFamily=Verdana;fontSize=12;fontColor=#00BEF2" parent="1" vertex="1">
          <mxGeometry x="360" y="131" width="67" height="39" as="geometry" />
        </mxCell>
        <mxCell id="2033" value="" style="shape=mxgraph.arrows.two_way_arrow_horizontal;html=1;verticalLabelPosition=bottom;verticalAlign=top;strokeWidth=2;strokeColor=none;dashed=1;fillColor=#FFFFFF;fontFamily=Verdana;fontSize=12;fontColor=#00BEF2" parent="1" vertex="1">
          <mxGeometry x="540" y="131" width="67" height="39" as="geometry" />
        </mxCell>
        <mxCell id="2034" value="" style="shape=mxgraph.arrows.two_way_arrow_horizontal;html=1;verticalLabelPosition=bottom;verticalAlign=top;strokeWidth=2;strokeColor=none;dashed=1;fillColor=#FFFFFF;fontFamily=Verdana;fontSize=12;fontColor=#00BEF2" parent="1" vertex="1">
          <mxGeometry x="720" y="131" width="67" height="39" as="geometry" />
        </mxCell>
        <mxCell id="2035" value="" style="shape=mxgraph.arrows.two_way_arrow_horizontal;html=1;verticalLabelPosition=bottom;verticalAlign=top;strokeWidth=2;strokeColor=none;dashed=1;fillColor=#FFFFFF;fontFamily=Verdana;fontSize=12;fontColor=#00BEF2" parent="1" vertex="1">
          <mxGeometry x="900" y="131" width="67" height="39" as="geometry" />
        </mxCell>
        <mxCell id="2036" value="" style="verticalLabelPosition=bottom;html=1;verticalAlign=top;strokeColor=none;fillColor=#003366;shape=mxgraph.azure.cloud_service;dashed=1;fontFamily=Helvetica;fontSize=18;fontColor=#FFFFFF;opacity=25" parent="1" vertex="1">
          <mxGeometry x="90" y="180" width="970" height="600" as="geometry" />
        </mxCell>
        <mxCell id="2037" value="" style="verticalLabelPosition=bottom;html=1;verticalAlign=top;strokeColor=none;fillColor=#3399FF;shape=mxgraph.azure.tablet;dashed=1;fontFamily=Helvetica;fontSize=14;fontColor=#004C99" parent="1" vertex="1">
          <mxGeometry x="66" y="401" width="50" height="37.5" as="geometry" />
        </mxCell>
        <mxCell id="2038" value="" style="verticalLabelPosition=bottom;html=1;verticalAlign=top;strokeColor=none;fillColor=#3399FF;shape=mxgraph.azure.mobile;dashed=1;fontFamily=Helvetica;fontSize=14;fontColor=#004C99" parent="1" vertex="1">
          <mxGeometry x="146" y="395" width="35" height="50" as="geometry" />
        </mxCell>
        <mxCell id="2039" value="Devices" style="verticalLabelPosition=bottom;html=1;verticalAlign=top;strokeColor=none;fillColor=#3399FF;shape=mxgraph.azure.laptop;dashed=1;fontFamily=Helvetica;fontSize=14;fontColor=#004C99" parent="1" vertex="1">
          <mxGeometry x="96" y="451" width="50" height="30" as="geometry" />
        </mxCell>
        <mxCell id="2040" value="Applications" style="verticalLabelPosition=bottom;html=1;verticalAlign=top;strokeColor=none;fillColor=#3399FF;shape=mxgraph.azure.mobile_services;dashed=1;fontFamily=Helvetica;fontSize=14;fontColor=#004C99" parent="1" vertex="1">
          <mxGeometry x="107" y="250" width="32.5" height="50" as="geometry" />
        </mxCell>
        <mxCell id="2041" value="Social" style="verticalLabelPosition=bottom;html=1;verticalAlign=top;strokeColor=none;fillColor=#3399FF;shape=mxgraph.azure.user;dashed=1;fontSize=14;fontColor=#004C99" parent="1" vertex="1">
          <mxGeometry x="92" y="680" width="47.5" height="50" as="geometry" />
        </mxCell>
        <mxCell id="2042" value="" style="verticalLabelPosition=bottom;html=1;verticalAlign=top;strokeColor=none;fillColor=#3399FF;shape=mxgraph.azure.github_code;dashed=1;fontSize=14;fontColor=#004C99" parent="1" vertex="1">
          <mxGeometry x="133" y="560" width="50" height="50" as="geometry" />
        </mxCell>
        <mxCell id="2043" value="" style="verticalLabelPosition=bottom;html=1;verticalAlign=top;strokeColor=none;fillColor=#3399FF;shape=mxgraph.azure.dropbox_code_source;dashed=1;fontSize=14;fontColor=#004C99" parent="1" vertex="1">
          <mxGeometry x="73" y="563" width="50" height="47.5" as="geometry" />
        </mxCell>
        <mxCell id="2044" value="Repositories" style="text;html=1;strokeColor=none;fillColor=none;align=center;verticalAlign=middle;whiteSpace=wrap;overflow=hidden;dashed=1;fontSize=14;fontColor=#004C99" parent="1" vertex="1">
          <mxGeometry x="60" y="620" width="120" height="20" as="geometry" />
        </mxCell>
        <mxCell id="2045" value="Azure Website" style="verticalLabelPosition=bottom;html=1;verticalAlign=top;strokeColor=none;fillColor=#3399FF;shape=mxgraph.azure.azure_website;dashed=1;fontSize=14;fontColor=#004C99" parent="1" vertex="1">
          <mxGeometry x="278" y="258" width="50" height="50" as="geometry" />
        </mxCell>
        <mxCell id="2046" value="Mobile Services" style="verticalLabelPosition=bottom;html=1;verticalAlign=top;strokeColor=none;fillColor=#3399FF;shape=mxgraph.azure.mobile_services;dashed=1;fontSize=14;fontColor=#004C99" parent="1" vertex="1">
          <mxGeometry x="287" y="661" width="32.5" height="50" as="geometry" />
        </mxCell>
        <mxCell id="2047" value="Windows Azure Management Portal" style="text;html=1;strokeColor=none;fillColor=none;align=center;verticalAlign=middle;whiteSpace=wrap;overflow=hidden;dashed=1;fontSize=36;fontColor=#FFFFFF;fontFamily=Helvetica;fontStyle=1" parent="1" vertex="1">
          <mxGeometry x="40" y="50" width="1060" height="50" as="geometry" />
        </mxCell>
        <mxCell id="2048" value="Business&amp;nbsp;&lt;div&gt;Analytics&lt;/div&gt;" style="rounded=1;whiteSpace=wrap;html=1;dashed=1;strokeColor=none;strokeWidth=2;fillColor=#FFFFFF;fontFamily=Helvetica;fontSize=14;fontColor=#FFB366;opacity=75;verticalAlign=top;fontStyle=1" parent="1" vertex="1">
          <mxGeometry x="410" y="190" width="140" height="260" as="geometry" />
        </mxCell>
        <mxCell id="2049" value="Data&lt;div&gt;Management&lt;/div&gt;" style="rounded=1;whiteSpace=wrap;html=1;dashed=1;strokeColor=none;strokeWidth=2;fillColor=#FFFFFF;fontFamily=Helvetica;fontSize=14;fontColor=#FFB366;opacity=75;verticalAlign=top;fontStyle=1" parent="1" vertex="1">
          <mxGeometry x="413" y="460" width="140" height="320" as="geometry" />
        </mxCell>
        <mxCell id="2050" value="SQL Reporting" style="verticalLabelPosition=bottom;html=1;verticalAlign=top;strokeColor=none;fillColor=#3399FF;shape=mxgraph.azure.sql_reporting;dashed=1;fontSize=14;fontColor=#004C99" parent="1" vertex="1">
          <mxGeometry x="460" y="258" width="40" height="50" as="geometry" />
        </mxCell>
        <mxCell id="2051" value="HDInsight" style="verticalLabelPosition=bottom;html=1;verticalAlign=top;strokeColor=none;fillColor=#3399FF;shape=mxgraph.azure.hdinsight;dashed=1;fontSize=14;fontColor=#004C99" parent="1" vertex="1">
          <mxGeometry x="458" y="355" width="50" height="50" as="geometry" />
        </mxCell>
        <mxCell id="2052" value="SQL Database" style="verticalLabelPosition=bottom;html=1;verticalAlign=top;strokeColor=none;fillColor=#3399FF;shape=mxgraph.azure.sql_database;dashed=1;fontFamily=Helvetica;fontSize=14;fontColor=#004C99" parent="1" vertex="1">
          <mxGeometry x="464" y="600" width="37.5" height="50" as="geometry" />
        </mxCell>
        <mxCell id="2053" value="Tables" style="verticalLabelPosition=bottom;html=1;verticalAlign=top;strokeColor=none;fillColor=#3399FF;shape=mxgraph.azure.storage_table;dashed=1;fontFamily=Helvetica;fontSize=14;fontColor=#004C99" parent="1" vertex="1">
          <mxGeometry x="458" y="689" width="50" height="45" as="geometry" />
        </mxCell>
        <mxCell id="2054" value="Blobs" style="verticalLabelPosition=bottom;html=1;verticalAlign=top;strokeColor=none;fillColor=#3399FF;shape=mxgraph.azure.storage_blob;dashed=1;fontFamily=Helvetica;fontSize=14;fontColor=#004C99" parent="1" vertex="1">
          <mxGeometry x="457" y="523" width="50" height="45" as="geometry" />
        </mxCell>
        <mxCell id="2055" value="Storage Management" style="rounded=1;whiteSpace=wrap;html=1;dashed=1;strokeColor=none;strokeWidth=2;fillColor=#FFFFFF;fontFamily=Helvetica;fontSize=14;fontColor=#FFB366;opacity=75;verticalAlign=top;fontStyle=1" parent="1" vertex="1">
          <mxGeometry x="594" y="240" width="140" height="280" as="geometry" />
        </mxCell>
        <mxCell id="2056" value="Storage Servers" style="verticalLabelPosition=bottom;html=1;verticalAlign=top;strokeColor=none;fillColor=#3399FF;shape=mxgraph.azure.server_rack;dashed=1;fontFamily=Helvetica;fontSize=14;fontColor=#004C99" parent="1" vertex="1">
          <mxGeometry x="639" y="316" width="50" height="50" as="geometry" />
        </mxCell>
        <mxCell id="2057" value="Database" style="verticalLabelPosition=bottom;html=1;verticalAlign=top;strokeColor=none;fillColor=#3399FF;shape=mxgraph.azure.database;dashed=1;fontFamily=Helvetica;fontSize=14;fontColor=#004C99" parent="1" vertex="1">
          <mxGeometry x="644" y="414" width="37.5" height="50" as="geometry" />
        </mxCell>
        <mxCell id="2058" value="Physical&lt;div&gt;Data Storage&lt;/div&gt;" style="verticalLabelPosition=bottom;html=1;verticalAlign=top;strokeColor=none;fillColor=#3399FF;shape=mxgraph.azure.vhd;dashed=1;fontFamily=Helvetica;fontSize=14;fontColor=#004C99" parent="1" vertex="1">
          <mxGeometry x="643" y="590" width="40" height="50" as="geometry" />
        </mxCell>
        <mxCell id="2059" value="Identity" style="rounded=1;whiteSpace=wrap;html=1;dashed=1;strokeColor=none;strokeWidth=2;fillColor=#FFFFFF;fontFamily=Helvetica;fontSize=14;fontColor=#FFB366;opacity=75;verticalAlign=top;fontStyle=1" parent="1" vertex="1">
          <mxGeometry x="773" y="196" width="140" height="134" as="geometry" />
        </mxCell>
        <mxCell id="2060" value="Windows Azure&amp;nbsp;&lt;div&gt;Active Directorry&lt;/div&gt;" style="verticalLabelPosition=bottom;html=1;verticalAlign=top;strokeColor=none;fillColor=#3399FF;shape=mxgraph.azure.azure_active_directory;dashed=1;fontFamily=Helvetica;fontSize=14;fontColor=#004C99" parent="1" vertex="1">
          <mxGeometry x="819" y="225" width="47.5" height="50" as="geometry" />
        </mxCell>
        <mxCell id="2061" value="Performance" style="rounded=1;whiteSpace=wrap;html=1;dashed=1;strokeColor=none;strokeWidth=2;fillColor=#FFFFFF;fontFamily=Helvetica;fontSize=14;fontColor=#FFB366;opacity=75;verticalAlign=top;fontStyle=1" parent="1" vertex="1">
          <mxGeometry x="774" y="341" width="140" height="199" as="geometry" />
        </mxCell>
        <mxCell id="2062" value="Caching" style="verticalLabelPosition=bottom;html=1;verticalAlign=top;strokeColor=none;fillColor=#3399FF;shape=mxgraph.azure.azure_cache;dashed=1;fontFamily=Helvetica;fontSize=14;fontColor=#004C99" parent="1" vertex="1">
          <mxGeometry x="821" y="376" width="45" height="50" as="geometry" />
        </mxCell>
        <mxCell id="2063" value="Content&amp;nbsp;&lt;div&gt;Delivery Network&lt;/div&gt;" style="verticalLabelPosition=bottom;html=1;verticalAlign=top;strokeColor=none;fillColor=#3399FF;shape=mxgraph.azure.content_delivery_network;dashed=1;fontFamily=Helvetica;fontSize=14;fontColor=#004C99" parent="1" vertex="1">
          <mxGeometry x="819" y="455" width="50" height="32.5" as="geometry" />
        </mxCell>
        <mxCell id="2064" value="Messaging" style="rounded=1;whiteSpace=wrap;html=1;dashed=1;strokeColor=none;strokeWidth=2;fillColor=#FFFFFF;fontFamily=Helvetica;fontSize=14;fontColor=#FFB366;opacity=75;verticalAlign=top;fontStyle=1" parent="1" vertex="1">
          <mxGeometry x="773" y="550" width="140" height="229" as="geometry" />
        </mxCell>
        <mxCell id="2065" value="Queues" style="verticalLabelPosition=bottom;html=1;verticalAlign=top;strokeColor=none;fillColor=#3399FF;shape=mxgraph.azure.queue_generic;dashed=1;fontFamily=Helvetica;fontSize=14;fontColor=#004C99" parent="1" vertex="1">
          <mxGeometry x="820" y="576" width="50" height="15" as="geometry" />
        </mxCell>
        <mxCell id="2066" value="Service Bus" style="verticalLabelPosition=bottom;html=1;verticalAlign=top;strokeColor=none;fillColor=#3399FF;shape=mxgraph.azure.service_bus;dashed=1;fontFamily=Helvetica;fontSize=14;fontColor=#004C99" parent="1" vertex="1">
          <mxGeometry x="824" y="624" width="45" height="50" as="geometry" />
        </mxCell>
        <mxCell id="2067" value="Media Services" style="verticalLabelPosition=bottom;html=1;verticalAlign=top;strokeColor=none;fillColor=#3399FF;shape=mxgraph.azure.media_service;dashed=1;fontFamily=Helvetica;fontSize=14;fontColor=#004C99" parent="1" vertex="1">
          <mxGeometry x="821" y="703" width="45" height="50" as="geometry" />
        </mxCell>
        <mxCell id="2068" value="Cloud&lt;div&gt;Services&lt;/div&gt;" style="rounded=1;whiteSpace=wrap;html=1;dashed=1;strokeColor=none;strokeWidth=2;fillColor=#FFFFFF;fontFamily=Helvetica;fontSize=14;fontColor=#FFB366;opacity=75;verticalAlign=top;fontStyle=1" parent="1" vertex="1">
          <mxGeometry x="233" y="397" width="140" height="223" as="geometry" />
        </mxCell>
        <mxCell id="2069" value="Cloud" style="verticalLabelPosition=bottom;html=1;verticalAlign=top;strokeColor=none;fillColor=#3399FF;shape=mxgraph.azure.cloud;dashed=1;fontSize=14;fontColor=#004C99" parent="1" vertex="1">
          <mxGeometry x="278" y="449" width="50" height="32.5" as="geometry" />
        </mxCell>
        <mxCell id="2070" value="Virtual Machine" style="verticalLabelPosition=bottom;html=1;verticalAlign=top;strokeColor=none;fillColor=#3399FF;shape=mxgraph.azure.virtual_machine;dashed=1;fontSize=14;fontColor=#004C99" parent="1" vertex="1">
          <mxGeometry x="278" y="536" width="50" height="40" as="geometry" />
        </mxCell>
        <mxCell id="2071" value="Web Dashboards" style="verticalLabelPosition=bottom;html=1;verticalAlign=top;strokeColor=none;fillColor=#3399FF;shape=mxgraph.azure.laptop;dashed=1;fontFamily=Helvetica;fontSize=14;fontColor=#004C99" parent="1" vertex="1">
          <mxGeometry x="998" y="301" width="50" height="30" as="geometry" />
        </mxCell>
        <mxCell id="2072" value="Certificates" style="verticalLabelPosition=bottom;html=1;verticalAlign=top;strokeColor=none;fillColor=#3399FF;shape=mxgraph.azure.certificate;dashed=1;fontFamily=Helvetica;fontSize=14;fontColor=#004C99" parent="1" vertex="1">
          <mxGeometry x="998" y="399" width="50" height="40" as="geometry" />
        </mxCell>
        <mxCell id="2073" value="Enterprise&lt;div&gt;Services&lt;/div&gt;" style="verticalLabelPosition=bottom;html=1;verticalAlign=top;strokeColor=none;fillColor=#3399FF;shape=mxgraph.azure.enterprise;dashed=1;fontFamily=Helvetica;fontSize=14;fontColor=#004C99" parent="1" vertex="1">
          <mxGeometry x="1008" y="518" width="30" height="50" as="geometry" />
        </mxCell>
        <mxCell id="2074" value="Seminars" style="verticalLabelPosition=bottom;html=1;verticalAlign=top;strokeColor=none;fillColor=#3399FF;shape=mxgraph.azure.user;dashed=1;fontFamily=Helvetica;fontSize=14;fontColor=#004C99" parent="1" vertex="1">
          <mxGeometry x="1001" y="630" width="47.5" height="50" as="geometry" />
        </mxCell>
        <mxCell id="2075" value="" style="arrow;html=1;endArrow=block;endFill=1;strokeColor=none;strokeWidth=4;fontFamily=Helvetica;fontSize=36;fontColor=#FFB366;fillColor=#FFB366;" parent="1" edge="1">
          <mxGeometry width="100" height="100" relative="1" as="geometry">
            <mxPoint x="167" y="283" as="sourcePoint" />
            <mxPoint x="247" y="283" as="targetPoint" />
          </mxGeometry>
        </mxCell>
        <mxCell id="2076" value="" style="arrow;html=1;endArrow=block;endFill=1;strokeColor=none;strokeWidth=4;fontFamily=Helvetica;fontSize=36;fontColor=#FFB366;fillColor=#FFB366;opacity=100" parent="1" edge="1">
          <mxGeometry width="100" height="100" relative="1" as="geometry">
            <mxPoint x="347" y="283" as="sourcePoint" />
            <mxPoint x="427" y="283" as="targetPoint" />
          </mxGeometry>
        </mxCell>
        <mxCell id="2077" value="" style="arrow;html=1;endArrow=block;endFill=1;strokeColor=none;strokeWidth=4;fontFamily=Helvetica;fontSize=36;fontColor=#FFB366;fillColor=#FFB366;" parent="1" edge="1">
          <mxGeometry width="100" height="100" relative="1" as="geometry">
            <mxPoint x="527" y="360" as="sourcePoint" />
            <mxPoint x="607" y="360" as="targetPoint" />
          </mxGeometry>
        </mxCell>
        <mxCell id="2078" value="" style="arrow;html=1;endArrow=block;endFill=1;strokeColor=none;strokeWidth=4;fontFamily=Helvetica;fontSize=36;fontColor=#FFB366;fillColor=#FFB366;" parent="1" edge="1">
          <mxGeometry width="100" height="100" relative="1" as="geometry">
            <mxPoint x="714" y="426" as="sourcePoint" />
            <mxPoint x="794" y="426" as="targetPoint" />
          </mxGeometry>
        </mxCell>
        <mxCell id="2079" value="" style="arrow;html=1;endArrow=block;endFill=1;strokeColor=none;strokeWidth=4;fontFamily=Helvetica;fontSize=36;fontColor=#FFB366;fillColor=#FFB366;" parent="1" edge="1">
          <mxGeometry width="100" height="100" relative="1" as="geometry">
            <mxPoint x="714" y="270" as="sourcePoint" />
            <mxPoint x="794" y="270" as="targetPoint" />
          </mxGeometry>
        </mxCell>
        <mxCell id="2080" value="" style="arrow;html=1;endArrow=block;endFill=1;strokeColor=none;strokeWidth=4;fontFamily=Helvetica;fontSize=36;fontColor=#FFB366;fillColor=#FFB366;" parent="1" edge="1">
          <mxGeometry width="100" height="100" relative="1" as="geometry">
            <mxPoint x="887" y="438" as="sourcePoint" />
            <mxPoint x="967" y="438" as="targetPoint" />
          </mxGeometry>
        </mxCell>
        <mxCell id="2081" value="" style="arrow;html=1;endArrow=block;endFill=1;strokeColor=none;strokeWidth=4;fontFamily=Helvetica;fontSize=36;fontColor=#FFB366;fillColor=#FFB366;" parent="1" edge="1">
          <mxGeometry width="100" height="100" relative="1" as="geometry">
            <mxPoint x="894" y="664" as="sourcePoint" />
            <mxPoint x="974" y="664" as="targetPoint" />
          </mxGeometry>
        </mxCell>
        <mxCell id="2082" value="" style="arrow;html=1;endArrow=block;endFill=1;strokeColor=none;strokeWidth=4;fontFamily=Helvetica;fontSize=36;fontColor=#FFB366;fillColor=#FFB366;" parent="1" edge="1">
          <mxGeometry width="100" height="100" relative="1" as="geometry">
            <mxPoint x="707" y="639" as="sourcePoint" />
            <mxPoint x="787" y="639" as="targetPoint" />
          </mxGeometry>
        </mxCell>
        <mxCell id="2083" value="" style="arrow;html=1;endArrow=block;endFill=1;strokeColor=none;strokeWidth=4;fontFamily=Helvetica;fontSize=36;fontColor=#FFB366;fillColor=#FFB366;" parent="1" edge="1">
          <mxGeometry width="100" height="100" relative="1" as="geometry">
            <mxPoint x="534" y="624" as="sourcePoint" />
            <mxPoint x="614" y="624" as="targetPoint" />
          </mxGeometry>
        </mxCell>
        <mxCell id="2084" value="" style="arrow;html=1;endArrow=block;endFill=1;strokeColor=none;strokeWidth=4;fontFamily=Helvetica;fontSize=36;fontColor=#FFB366;fillColor=#FFB366;" parent="1" edge="1">
          <mxGeometry width="100" height="100" relative="1" as="geometry">
            <mxPoint x="347" y="536" as="sourcePoint" />
            <mxPoint x="427" y="536" as="targetPoint" />
          </mxGeometry>
        </mxCell>
        <mxCell id="2085" value="" style="arrow;html=1;endArrow=block;endFill=1;strokeColor=none;strokeWidth=4;fontFamily=Helvetica;fontSize=36;fontColor=#FFB366;fillColor=#FFB366;" parent="1" edge="1">
          <mxGeometry width="100" height="100" relative="1" as="geometry">
            <mxPoint x="174" y="688" as="sourcePoint" />
            <mxPoint x="254" y="688" as="targetPoint" />
          </mxGeometry>
        </mxCell>
        <mxCell id="MxWDfC0iBpmXcdRfzme4-2085" value="" style="rounded=1;whiteSpace=wrap;html=1;dashed=1;strokeColor=none;strokeWidth=2;fillColor=#E6E6E6;fontFamily=Verdana;fontSize=12;fontColor=#00BEF2" vertex="1" parent="1">
          <mxGeometry x="40.75" y="870" width="165" height="670" as="geometry" />
        </mxCell>
        <mxCell id="MxWDfC0iBpmXcdRfzme4-2086" value="" style="rhombus;whiteSpace=wrap;html=1;" vertex="1" parent="1">
          <mxGeometry x="370" y="1010" width="80" height="80" as="geometry" />
        </mxCell>
        <mxCell id="MxWDfC0iBpmXcdRfzme4-2087" value="172331" style="rounded=1;whiteSpace=wrap;html=1;" vertex="1" parent="1">
          <mxGeometry x="565" y="840" width="120" height="60" as="geometry" />
        </mxCell>
        <mxCell id="MxWDfC0iBpmXcdRfzme4-2088" value="" style="shape=image;verticalLabelPosition=bottom;labelBackgroundColor=#ffffff;verticalAlign=top;aspect=fixed;imageAspect=0;image=data:image/svg+xml,PHN2ZyB4bWxuczpjYz0iaHR0cDovL2NyZWF0aXZlY29tbW9ucy5vcmcvbnMjIiB4bWxuczpkYz0iaHR0cDovL3B1cmwub3JnL2RjL2VsZW1lbnRzLzEuMS8iIHhtbG5zOmlua3NjYXBlPSJodHRwOi8vd3d3Lmlua3NjYXBlLm9yZy9uYW1lc3BhY2VzL2lua3NjYXBlIiB4bWxuczpyZGY9Imh0dHA6Ly93d3cudzMub3JnLzE5OTkvMDIvMjItcmRmLXN5bnRheC1ucyMiIHhtbG5zOnNvZGlwb2RpPSJodHRwOi8vc29kaXBvZGkuc291cmNlZm9yZ2UubmV0L0RURC9zb2RpcG9kaS0wLmR0ZCIgeG1sbnM6c3ZnPSJodHRwOi8vd3d3LnczLm9yZy8yMDAwL3N2ZyIgeG1sbnM9Imh0dHA6Ly93d3cudzMub3JnLzIwMDAvc3ZnIiB4bWxuczp4bGluaz0iaHR0cDovL3d3dy53My5vcmcvMTk5OS94bGluayIgdmVyc2lvbj0iMS4xIiBpZD0ic3ZnMTE4MDI3IiBpbmtzY2FwZTp2ZXJzaW9uPSIwLjkyLjMgKDI0MDU1NDYsIDIwMTgtMDMtMTEpIiBzb2RpcG9kaTpkb2NuYW1lPSJhenVyZV9jbGkuc3ZnIiB4PSIwcHgiIHk9IjBweCIgdmlld0JveD0iMCAwIDYxLjQyIDQ4LjQ5IiBzdHlsZT0iZW5hYmxlLWJhY2tncm91bmQ6bmV3IDAgMCA2MS40MiA0OC40OTsiIHhtbDpzcGFjZT0icHJlc2VydmUiPiYjeGE7PHNvZGlwb2RpOm5hbWVkdmlldyBib3JkZXJjb2xvcj0iIzY2NjY2NiIgYm9yZGVyb3BhY2l0eT0iMSIgZml0LW1hcmdpbi1ib3R0b209IjAiIGZpdC1tYXJnaW4tbGVmdD0iMCIgZml0LW1hcmdpbi1yaWdodD0iMCIgZml0LW1hcmdpbi10b3A9IjAiIGdyaWR0b2xlcmFuY2U9IjEwIiBndWlkZXRvbGVyYW5jZT0iMTAiIGlkPSJuYW1lZHZpZXcxMTgwMjkiIGlua3NjYXBlOmN1cnJlbnQtbGF5ZXI9InN2ZzExODAyNyIgaW5rc2NhcGU6Y3g9IjQwLjk0MjI0MiIgaW5rc2NhcGU6Y3k9IjMyLjMyODkiIGlua3NjYXBlOnBhZ2VvcGFjaXR5PSIwIiBpbmtzY2FwZTpwYWdlc2hhZG93PSIyIiBpbmtzY2FwZTp3aW5kb3ctaGVpZ2h0PSIxMDE3IiBpbmtzY2FwZTp3aW5kb3ctbWF4aW1pemVkPSIxIiBpbmtzY2FwZTp3aW5kb3ctd2lkdGg9IjE5MjAiIGlua3NjYXBlOndpbmRvdy14PSItOCIgaW5rc2NhcGU6d2luZG93LXk9Ii04IiBpbmtzY2FwZTp6b29tPSIxMC4xOTQxNTkiIG9iamVjdHRvbGVyYW5jZT0iMTAiIHBhZ2Vjb2xvcj0iI2ZmZmZmZiIgc2hvd2dyaWQ9ImZhbHNlIj4mI3hhOwk8L3NvZGlwb2RpOm5hbWVkdmlldz4mI3hhOzxnIGlkPSJnMTE4MDI1IiB0cmFuc2Zvcm09InRyYW5zbGF0ZSgtNy42NTEzMjc2LC03LjY1KSI+JiN4YTsJPHRpdGxlIGlkPSJ0aXRsZTExODAwMCI+UGFnZS0xPC90aXRsZT4mI3hhOwk8ZyBpZD0iZ3JvdXAxMzMwLTEiIHRyYW5zZm9ybT0idHJhbnNsYXRlKDcuMzc0NjgsLTcuNjUpIj4mI3hhOwkJPHRpdGxlIGlkPSJ0aXRsZTExODAwMiI+QXp1cmUgQ0xJPC90aXRsZT4mI3hhOwkJPGcgaWQ9InNoYXBlMTMzMS0yIj4mI3hhOwkJCTx0aXRsZSBpZD0idGl0bGUxMTgwMDQiPlNoZWV0LjEzMzE8L3RpdGxlPiYjeGE7CQkJPHBhdGggaWQ9InBhdGgxMTgwMDYiIGlua3NjYXBlOmNvbm5lY3Rvci1jdXJ2YXR1cmU9IjAiIHN0eWxlPSJmaWxsOiMzRjU3NjU7IiBkPSJNNTAuMjYsNjMuNzlIMy42M2MtMi4xNSwwLTMuNjMtMS41NS0zLjMxLTMuNDcgICAgIGw2LjkyLTQxLjU2YzAuMzItMS45MSwyLjMyLTMuNDYsNC40Ny0zLjQ2aDQ2LjYzYzIuMTUsMCwzLjYzLDEuNTUsMy4zMSwzLjQ2bC02LjkzLDQxLjU2QzU0LjQsNjIuMjQsNTIuNDEsNjMuNzksNTAuMjYsNjMuNzl6Ii8+JiN4YTsJCTwvZz4mI3hhOwkJPGcgaWQ9InNoYXBlMTMzMi00IiB0cmFuc2Zvcm09InRyYW5zbGF0ZSgxMy44NzksLTUuNDU3MDcpIj4mI3hhOwkJCTx0aXRsZSBpZD0idGl0bGUxMTgwMDkiPlNoZWV0LjEzMzI8L3RpdGxlPiYjeGE7CQkJPHBhdGggaWQ9InBhdGgxMTgwMTEiIGlua3NjYXBlOmNvbm5lY3Rvci1jdXJ2YXR1cmU9IjAiIHN0eWxlPSJmaWxsOiNGRkZGRkY7IiBkPSJNMi43LDYzLjc5Yy0wLjczLDAtMS40NS0wLjMzLTEuOTItMC45NiAgICAgYy0wLjc4LTEuMDUtMC41Ni0yLjU0LDAuNS0zLjMxbDIwLjAzLTE0Ljc0TDYuODMsMzEuMmMtMC45NS0wLjktMS0yLjM5LTAuMDktMy4zNGMwLjktMC45NSwyLjQxLTEsMy4zNi0wLjFsMTYuNTUsMTUuNTIgICAgIGMwLjUxLDAuNDgsMC43OCwxLjE2LDAuNzQsMS44NlMyNyw0Ni40OSwyNi40Myw0Ni45TDQuMTEsNjMuMzJDMy42OSw2My42NCwzLjE5LDYzLjc5LDIuNyw2My43OXoiLz4mI3hhOwkJPC9nPiYjeGE7CQk8ZyBpZD0ic2hhcGUxMzMzLTYiIHRyYW5zZm9ybT0idHJhbnNsYXRlKDI4LjY1NTEsLTUuNjAwOTEpIj4mI3hhOwkJCTx0aXRsZSBpZD0idGl0bGUxMTgwMTQiPlNoZWV0LjEzMzM8L3RpdGxlPiYjeGE7CQkJPHBhdGggaWQ9InBhdGgxMTgwMTYiIGlua3NjYXBlOmNvbm5lY3Rvci1jdXJ2YXR1cmU9IjAiIHN0eWxlPSJmaWxsOiNGRkZGRkY7IiBkPSJNMTMuNDMsNjMuNzlIMi4zOEMxLjA3LDYzLjc5LDAsNjIuNzMsMCw2MS40MiAgICAgYzAtMS4zMSwxLjA3LTIuMzcsMi4zOC0yLjM3aDExLjA1YzEuMzIsMCwyLjM5LDEuMDYsMi4zOSwyLjM3QzE1LjgyLDYyLjczLDE0Ljc1LDYzLjc5LDEzLjQzLDYzLjc5eiIvPiYjeGE7CQk8L2c+JiN4YTsJCTxnIGlkPSJzaGFwZTEzMzQtOCIgdHJhbnNmb3JtPSJ0cmFuc2xhdGUoNy43Nzc5MiwtMS41OTg0MSkiPiYjeGE7CQkJPHRpdGxlIGlkPSJ0aXRsZTExODAxOSI+U2hlZXQuMTMzNDwvdGl0bGU+JiN4YTsJCQk8cGF0aCBpZD0icGF0aDExODAyMSIgaW5rc2NhcGU6Y29ubmVjdG9yLWN1cnZhdHVyZT0iMCIgc3R5bGU9ImZpbGw6I0ZGRkZGRjtmaWxsLW9wYWNpdHk6MC4yNTsiIGQ9Ik01MC41NiwxNi45MUgzLjkzICAgICBjLTEuNjEsMC0zLjEzLDAuODYtMy45MywyLjFjMTEuNiwxMS4wNywzNC45NCwzMy45Miw0Ni4wMiw0NC43OGMwLjQ3LTAuNTQsMC44MS0xLjIzLDAuOTItMS45Mmw2LjkzLTQxLjQ5ICAgICBDNTQuMTksMTguNDcsNTIuNzEsMTYuOTEsNTAuNTYsMTYuOTF6Ii8+JiN4YTsJCTwvZz4mI3hhOwk8L2c+JiN4YTs8L2c+JiN4YTs8L3N2Zz4=;" vertex="1" parent="1">
          <mxGeometry x="96" y="1140" width="48.29" height="38" as="geometry" />
        </mxCell>
        <mxCell id="MxWDfC0iBpmXcdRfzme4-2089" value="" style="shape=image;verticalLabelPosition=bottom;labelBackgroundColor=#ffffff;verticalAlign=top;aspect=fixed;imageAspect=0;image=data:image/svg+xml,PHN2ZyB4bWxuczpjYz0iaHR0cDovL2NyZWF0aXZlY29tbW9ucy5vcmcvbnMjIiB4bWxuczpkYz0iaHR0cDovL3B1cmwub3JnL2RjL2VsZW1lbnRzLzEuMS8iIHhtbG5zOmlua3NjYXBlPSJodHRwOi8vd3d3Lmlua3NjYXBlLm9yZy9uYW1lc3BhY2VzL2lua3NjYXBlIiB4bWxuczpyZGY9Imh0dHA6Ly93d3cudzMub3JnLzE5OTkvMDIvMjItcmRmLXN5bnRheC1ucyMiIHhtbG5zOnNvZGlwb2RpPSJodHRwOi8vc29kaXBvZGkuc291cmNlZm9yZ2UubmV0L0RURC9zb2RpcG9kaS0wLmR0ZCIgeG1sbnM6c3ZnPSJodHRwOi8vd3d3LnczLm9yZy8yMDAwL3N2ZyIgeG1sbnM9Imh0dHA6Ly93d3cudzMub3JnLzIwMDAvc3ZnIiB4bWxuczp4bGluaz0iaHR0cDovL3d3dy53My5vcmcvMTk5OS94bGluayIgdmVyc2lvbj0iMS4xIiBpZD0ic3ZnMTcwNzg2IiBpbmtzY2FwZTp2ZXJzaW9uPSIwLjkyLjMgKDI0MDU1NDYsIDIwMTgtMDMtMTEpIiBzb2RpcG9kaTpkb2NuYW1lPSJkb3RuZXRfY29yZS5zdmciIHg9IjBweCIgeT0iMHB4IiB2aWV3Qm94PSIwIDAgNDggNDgiIHN0eWxlPSJlbmFibGUtYmFja2dyb3VuZDpuZXcgMCAwIDQ4IDQ4OyIgeG1sOnNwYWNlPSJwcmVzZXJ2ZSI+JiN4YTs8c29kaXBvZGk6bmFtZWR2aWV3IGJvcmRlcmNvbG9yPSIjNjY2NjY2IiBib3JkZXJvcGFjaXR5PSIxIiBmaXQtbWFyZ2luLWJvdHRvbT0iMCIgZml0LW1hcmdpbi1sZWZ0PSIwIiBmaXQtbWFyZ2luLXJpZ2h0PSIwIiBmaXQtbWFyZ2luLXRvcD0iMCIgZ3JpZHRvbGVyYW5jZT0iMTAiIGd1aWRldG9sZXJhbmNlPSIxMCIgaWQ9Im5hbWVkdmlldzE3MDc4OCIgaW5rc2NhcGU6Y3VycmVudC1sYXllcj0ic3ZnMTcwNzg2IiBpbmtzY2FwZTpjeD0iMzEuNTU0NjA5IiBpbmtzY2FwZTpjeT0iMzEuNTU0NjA2IiBpbmtzY2FwZTpwYWdlb3BhY2l0eT0iMCIgaW5rc2NhcGU6cGFnZXNoYWRvdz0iMiIgaW5rc2NhcGU6d2luZG93LWhlaWdodD0iMTAxNyIgaW5rc2NhcGU6d2luZG93LW1heGltaXplZD0iMSIgaW5rc2NhcGU6d2luZG93LXdpZHRoPSIxOTIwIiBpbmtzY2FwZTp3aW5kb3cteD0iLTgiIGlua3NjYXBlOndpbmRvdy15PSItOCIgaW5rc2NhcGU6em9vbT0iMTIuOTYxNDQ1IiBvYmplY3R0b2xlcmFuY2U9IjEwIiBwYWdlY29sb3I9IiNmZmZmZmYiIHNob3dncmlkPSJmYWxzZSI+JiN4YTsJPC9zb2RpcG9kaTpuYW1lZHZpZXc+JiN4YTs8Y2lyY2xlIGlkPSJlbGxpcHNlMTcwNzM1IiBzdHlsZT0iZmlsbDojNUMyRDkxOyIgY3g9IjI0IiBjeT0iMjQiIHI9IjI0Ii8+JiN4YTs8cGF0aCBpZD0icGF0aDE3MDc0MCIgaW5rc2NhcGU6Y29ubmVjdG9yLWN1cnZhdHVyZT0iMCIgc3R5bGU9ImZpbGw6I0ZGRkZGRjtmaWxsLW9wYWNpdHk6MC4wOTg7IiBkPSJNNy4zNiw2Ljc1ICBDLTIuNTMsMTUuNTctMy40LDMwLjc0LDUuNDIsNDAuNjRTMjkuNDEsNTEuNCwzOS4zLDQyLjU4YzAuNjktMC42MSwxLjM0LTEuMjYsMS45NS0xLjk1TDcuMzYsNi43NXoiLz4mI3hhOzxwYXRoIGlkPSJwYXRoMTcwNzQ1IiBpbmtzY2FwZTpjb25uZWN0b3ItY3VydmF0dXJlPSIwIiBzdHlsZT0iZmlsbDojRkZGRkZGOyIgZD0iTTUuNTUsMjcuOTRjLTAuMjgsMC0wLjU2LTAuMTEtMC43NS0wLjMyICBjLTAuMi0wLjItMC4zMS0wLjQ3LTAuMzEtMC43NWMwLTAuMjgsMC4xMS0wLjU1LDAuMzEtMC43NUM1LDI1LjkxLDUuMjcsMjUuOCw1LjU1LDI1LjhjMC4yOCwwLDAuNTUsMC4xMSwwLjc1LDAuMzIgIGMwLjIsMC4yLDAuMzEsMC40NywwLjMxLDAuNzVjMCwwLjI4LTAuMTEsMC41NS0wLjMxLDAuNzVDNi4xMSwyNy44Miw1Ljg0LDI3Ljk0LDUuNTUsMjcuOTR6Ii8+JiN4YTs8cGF0aCBpZD0icGF0aDE3MDc1MCIgaW5rc2NhcGU6Y29ubmVjdG9yLWN1cnZhdHVyZT0iMCIgc3R5bGU9ImZpbGw6I0ZGRkZGRjsiIGQ9Ik0yMC40NSwyNy43NWgtMS45N2wtNy4wMi0xMC45MSAgYy0wLjE4LTAuMjctMC4zMi0wLjU1LTAuNDQtMC44NWgtMC4wNmMwLjA3LDAuNjIsMC4wOSwxLjI1LDAuMDgsMS44N3Y5Ljg5aC0xLjZWMTQuMDhoMi4wOGw2Ljg0LDEwLjcxICBjMC4yOCwwLjQ0LDAuNDcsMC43NSwwLjU1LDAuOTFoMC4wNGMtMC4wOC0wLjY3LTAuMTEtMS4zNC0wLjEtMi4wMXYtOS42MWgxLjZWMjcuNzV6Ii8+JiN4YTs8cGF0aCBpZD0icGF0aDE3MDc1NSIgaW5rc2NhcGU6Y29ubmVjdG9yLWN1cnZhdHVyZT0iMCIgc3R5bGU9ImZpbGw6I0ZGRkZGRjsiIGQ9Ik0zMS4yNywyNy43NUgyNFYxNC4wOGg2LjkzdjEuNDRoLTUuM3Y0LjU1aDQuOTQgIHYxLjQ0aC00Ljk0djQuNzRoNS42NEwzMS4yNywyNy43NXoiLz4mI3hhOzxwYXRoIGlkPSJwYXRoMTcwNzYwIiBpbmtzY2FwZTpjb25uZWN0b3ItY3VydmF0dXJlPSIwIiBzdHlsZT0iZmlsbDojRkZGRkZGOyIgZD0iTTQyLDE1LjUyaC0zLjk3djEyLjIzaC0xLjZWMTUuNTJIMzIuNXYtMS40NEg0MiAgVjE1LjUyeiIvPiYjeGE7PHBhdGggaWQ9InBhdGgxNzA3NjUiIGlua3NjYXBlOmNvbm5lY3Rvci1jdXJ2YXR1cmU9IjAiIHN0eWxlPSJmaWxsOiNGMkYyRjI7IiBkPSJNMTkuNTksMzcuMDVjLTAuNTQsMC4yNi0xLjE0LDAuMzktMS43NCwwLjM3ICBjLTAuODEsMC4wNC0xLjU5LTAuMjgtMi4xNS0wLjg2Yy0wLjU1LTAuNjItMC44NC0xLjQyLTAuODEtMi4yNWMtMC4wNC0wLjkxLDAuMjktMS43OSwwLjkxLTIuNDVjMC42MS0wLjYyLDEuNDQtMC45NiwyLjMxLTAuOTMgIGMwLjUxLTAuMDIsMS4wMiwwLjA3LDEuNSwwLjI2djAuNzVjLTAuNDYtMC4yNS0wLjk4LTAuMzgtMS41LTAuMzdjLTAuNjctMC4wMi0xLjMyLDAuMjUtMS43NywwLjc1Yy0wLjQ2LDAuNTMtMC43LDEuMjItMC42NywxLjkzICBjLTAuMDQsMC42NywwLjE5LDEuMzMsMC42MywxLjg0YzAuNDMsMC40NiwxLjAzLDAuNzEsMS42NiwwLjY4YzAuNTgsMC4wMSwxLjE0LTAuMTMsMS42NC0wLjQyTDE5LjU5LDM3LjA1eiIvPiYjeGE7PHBhdGggaWQ9InBhdGgxNzA3NzAiIGlua3NjYXBlOmNvbm5lY3Rvci1jdXJ2YXR1cmU9IjAiIHN0eWxlPSJmaWxsOiNGMkYyRjI7IiBkPSJNMjIuNjYsMzcuNDJjLTAuNjEsMC4wMi0xLjE5LTAuMjItMS42LTAuNjcgIGMtMC40MS0wLjQ2LTAuNjItMS4wNi0wLjU5LTEuNjdjLTAuMDQtMC42NSwwLjE4LTEuMjksMC42Mi0xLjc3YzAuNDQtMC40MywxLjA1LTAuNjcsMS42Ny0wLjY0YzAuNTktMC4wMywxLjE2LDAuMTksMS41NywwLjYyICBjMC40LDAuNDgsMC42LDEuMSwwLjU2LDEuNzJjMC4wMywwLjYzLTAuMTgsMS4yNS0wLjYsMS43M0MyMy44NywzNy4xOSwyMy4yNywzNy40NCwyMi42NiwzNy40MnogTTIyLjcxLDMzLjMyICBjLTAuNDItMC4wMi0wLjgyLDAuMTYtMS4wOSwwLjQ3Yy0wLjI5LDAuMzctMC40MywwLjgzLTAuNDEsMS4zYy0wLjAyLDAuNDYsMC4xMiwwLjkxLDAuNDEsMS4yNmMwLjI3LDAuMzEsMC42NywwLjQ4LDEuMDksMC40NyAgYzAuNDEsMC4wMiwwLjgtMC4xNCwxLjA3LTAuNDVjMC4yNy0wLjM3LDAuNDEtMC44MywwLjM4LTEuMjljMC4wMy0wLjQ2LTAuMTEtMC45Mi0wLjM4LTEuM0MyMy41MSwzMy40NywyMy4xMiwzMy4zLDIyLjcxLDMzLjMyeiIvPiYjeGE7PHBhdGggaWQ9InBhdGgxNzA3NzUiIGlua3NjYXBlOmNvbm5lY3Rvci1jdXJ2YXR1cmU9IjAiIHN0eWxlPSJmaWxsOiNGMkYyRjI7IiBkPSJNMjguMzksMzMuNTRjLTAuMTYtMC4xMS0wLjM1LTAuMTYtMC41NS0wLjE0ICBjLTAuMzEsMC4wMS0wLjU5LDAuMTctMC43NSwwLjQ0Yy0wLjIyLDAuMzUtMC4zMywwLjc2LTAuMywxLjE4djIuM2gtMC43NXYtNC41aDAuNzV2MC45NGMwLjA4LTAuMjksMC4yNC0wLjU1LDAuNDctMC43NSAgYzAuMi0wLjE3LDAuNDUtMC4yNywwLjcxLTAuMjdjMC4xNC0wLjAxLDAuMjgsMC4wMSwwLjQyLDAuMDZMMjguMzksMzMuNTR6Ii8+JiN4YTs8cGF0aCBpZD0icGF0aDE3MDc4MCIgaW5rc2NhcGU6Y29ubmVjdG9yLWN1cnZhdHVyZT0iMCIgc3R5bGU9ImZpbGw6I0YyRjJGMjsiIGQ9Ik0zMi43OCwzNS4yNWgtMy4xNyAgYy0wLjAyLDAuNDIsMC4xMSwwLjgzLDAuMzgsMS4xNWMwLjI4LDAuMjgsMC42NywwLjQzLDEuMDcsMC40MWMwLjUxLTAuMDEsMS0wLjE4LDEuMzktMC41djAuNjdjLTAuNDYsMC4zLTEuMDEsMC40Ni0xLjU2LDAuNDMgIGMtMC41NywwLjAzLTEuMTItMC4yLTEuNS0wLjYyYy0wLjM5LTAuNDktMC41OS0xLjEtMC41NS0xLjcyYy0wLjAzLTAuNjIsMC4xOC0xLjI0LDAuNTktMS43MWMwLjM4LTAuNDMsMC45My0wLjY4LDEuNS0wLjY2ICBjMC41Mi0wLjAzLDEuMDMsMC4xOCwxLjM3LDAuNTdjMC4zNSwwLjQ2LDAuNTIsMS4wMiwwLjQ4LDEuNTlWMzUuMjV6IE0zMi4wMywzNC42NGMwLjAyLTAuMzUtMC4wOS0wLjY5LTAuMy0wLjk3ICBjLTAuMjEtMC4yMy0wLjUxLTAuMzYtMC44Mi0wLjM0Yy0wLjMzLDAtMC42NCwwLjEzLTAuODYsMC4zN2MtMC4yNSwwLjI2LTAuNDEsMC41OS0wLjQ1LDAuOTVMMzIuMDMsMzQuNjR6Ii8+JiN4YTs8L3N2Zz4=;" vertex="1" parent="1">
          <mxGeometry x="95.25" y="1215" width="51" height="51" as="geometry" />
        </mxCell>
        <mxCell id="MxWDfC0iBpmXcdRfzme4-2090" value="" style="shape=image;verticalLabelPosition=bottom;labelBackgroundColor=#ffffff;verticalAlign=top;aspect=fixed;imageAspect=0;image=data:image/svg+xml,PHN2ZyB4bWxuczpjYz0iaHR0cDovL2NyZWF0aXZlY29tbW9ucy5vcmcvbnMjIiB4bWxuczpkYz0iaHR0cDovL3B1cmwub3JnL2RjL2VsZW1lbnRzLzEuMS8iIHhtbG5zOmlua3NjYXBlPSJodHRwOi8vd3d3Lmlua3NjYXBlLm9yZy9uYW1lc3BhY2VzL2lua3NjYXBlIiB4bWxuczpyZGY9Imh0dHA6Ly93d3cudzMub3JnLzE5OTkvMDIvMjItcmRmLXN5bnRheC1ucyMiIHhtbG5zOnNvZGlwb2RpPSJodHRwOi8vc29kaXBvZGkuc291cmNlZm9yZ2UubmV0L0RURC9zb2RpcG9kaS0wLmR0ZCIgeG1sbnM6c3ZnPSJodHRwOi8vd3d3LnczLm9yZy8yMDAwL3N2ZyIgeG1sbnM9Imh0dHA6Ly93d3cudzMub3JnLzIwMDAvc3ZnIiB4bWxuczp4bGluaz0iaHR0cDovL3d3dy53My5vcmcvMTk5OS94bGluayIgdmVyc2lvbj0iMS4xIiBpZD0ic3ZnMTQ5NTIwIiBpbmtzY2FwZTp2ZXJzaW9uPSIwLjkyLjMgKDI0MDU1NDYsIDIwMTgtMDMtMTEpIiBzb2RpcG9kaTpkb2NuYW1lPSJkZXZlbG9wZXIuc3ZnIiB4PSIwcHgiIHk9IjBweCIgdmlld0JveD0iMCAwIDExOS4yNCA5Ny40NCIgc3R5bGU9ImVuYWJsZS1iYWNrZ3JvdW5kOm5ldyAwIDAgMTE5LjI0IDk3LjQ0OyIgeG1sOnNwYWNlPSJwcmVzZXJ2ZSI+JiN4YTs8c29kaXBvZGk6bmFtZWR2aWV3IGJvcmRlcmNvbG9yPSIjNjY2NjY2IiBib3JkZXJvcGFjaXR5PSIxIiBmaXQtbWFyZ2luLWJvdHRvbT0iMCIgZml0LW1hcmdpbi1sZWZ0PSIwIiBmaXQtbWFyZ2luLXJpZ2h0PSIwIiBmaXQtbWFyZ2luLXRvcD0iMCIgZ3JpZHRvbGVyYW5jZT0iMTAiIGd1aWRldG9sZXJhbmNlPSIxMCIgaWQ9Im5hbWVkdmlldzE0OTUyMiIgaW5rc2NhcGU6Y3VycmVudC1sYXllcj0ic3ZnMTQ5NTIwIiBpbmtzY2FwZTpjeD0iNzkuNDkwMjQ1IiBpbmtzY2FwZTpjeT0iNjQuOTYxNzI4IiBpbmtzY2FwZTpwYWdlb3BhY2l0eT0iMCIgaW5rc2NhcGU6cGFnZXNoYWRvdz0iMiIgaW5rc2NhcGU6d2luZG93LWhlaWdodD0iMTAxNyIgaW5rc2NhcGU6d2luZG93LW1heGltaXplZD0iMSIgaW5rc2NhcGU6d2luZG93LXdpZHRoPSIxOTIwIiBpbmtzY2FwZTp3aW5kb3cteD0iLTgiIGlua3NjYXBlOndpbmRvdy15PSItOCIgaW5rc2NhcGU6em9vbT0iNi41NzIzODgyIiBvYmplY3R0b2xlcmFuY2U9IjEwIiBwYWdlY29sb3I9IiNmZmZmZmYiIHNob3dncmlkPSJmYWxzZSI+JiN4YTsJPC9zb2RpcG9kaTpuYW1lZHZpZXc+JiN4YTs8ZyBpZD0iZzE0OTUxOCIgdHJhbnNmb3JtPSJ0cmFuc2xhdGUoLTAuNzUsLTAuNzQ4MzMzNzUpIj4mI3hhOwk8dGl0bGUgaWQ9InRpdGxlMTQ5MzkyIj5QYWdlLTE8L3RpdGxlPiYjeGE7CTxnIGlkPSJncm91cDM2MS0xIiB0cmFuc2Zvcm09InRyYW5zbGF0ZSgwLjc1LC0wLjc1KSI+JiN4YTsJCTx0aXRsZSBpZD0idGl0bGUxNDkzOTQiPkRldmVsb3BlcjwvdGl0bGU+JiN4YTsJCTxnIGlkPSJzaGFwZTM2Mi0yIiB0cmFuc2Zvcm09InRyYW5zbGF0ZSgxMC43NzY4LC0zNS44NTcyKSI+JiN4YTsJCQk8dGl0bGUgaWQ9InRpdGxlMTQ5Mzk2Ij5wYXRoNzczLjE5MjE8L3RpdGxlPiYjeGE7CQkJPHBhdGggaWQ9InBhdGgxNDkzOTgiIGlua3NjYXBlOmNvbm5lY3Rvci1jdXJ2YXR1cmU9IjAiIHN0eWxlPSJmaWxsOiNFQ0QxOEY7IiBkPSJNMCw0Mi4wMmg2NC42OXY1Ni45MkgwVjQyLjAyeiIvPiYjeGE7CQk8L2c+JiN4YTsJCTxnIGlkPSJzaGFwZTM2My00Ij4mI3hhOwkJCTx0aXRsZSBpZD0idGl0bGUxNDk0MDEiPnBhdGg3NzM8L3RpdGxlPiYjeGE7CQkJPHBhdGggaWQ9InBhdGgxNDk0MDMiIGlua3NjYXBlOmNvbm5lY3Rvci1jdXJ2YXR1cmU9IjAiIHN0eWxlPSJmaWxsOiNDMzk3NEY7IiBkPSJNMCw4My42N2gxMTkuMjR2MTUuMjdIMFY4My42N3oiLz4mI3hhOwkJPC9nPiYjeGE7CQk8ZyBpZD0ic2hhcGUzNjQtNiIgdHJhbnNmb3JtPSJ0cmFuc2xhdGUoNDYuMjExMywtMjQuMTY1NCkiPiYjeGE7CQkJPHRpdGxlIGlkPSJ0aXRsZTE0OTQwNiI+cGF0aDc3NTwvdGl0bGU+JiN4YTsJCQk8cGF0aCBpZD0icGF0aDE0OTQwOCIgaW5rc2NhcGU6Y29ubmVjdG9yLWN1cnZhdHVyZT0iMCIgc3R5bGU9ImZpbGw6I0ZGRkZGRjsiIGQ9Ik0yMi4xMSw3My4yNmwtMy4yLTcuMjNsLTAuMzgtMC4wN0wxLjIxLDY4Ljc3ICAgICBMMCw3Mi42M2wwLjI5LDQuNzRsMTEuNDYsMjEuNTdsOC4yNi0xMy4yMkwyMi4xMSw3My4yNnoiLz4mI3hhOwkJPC9nPiYjeGE7CQk8ZyBpZD0ic2hhcGUzNjUtOCIgdHJhbnNmb3JtPSJ0cmFuc2xhdGUoNDcuNzk3MSwtMzkuNDY1MSkiPiYjeGE7CQkJPHRpdGxlIGlkPSJ0aXRsZTE0OTQxMSI+cGF0aDc3NzwvdGl0bGU+JiN4YTsJCQk8cGF0aCBpZD0icGF0aDE0OTQxMyIgaW5rc2NhcGU6Y29ubmVjdG9yLWN1cnZhdHVyZT0iMCIgc3R5bGU9ImZpbGw6I0VDRDE4RjsiIGQ9Ik0yLjE4LDc4LjVMMCw4NC43NGwxLjEyLDYuMDNMNC4yNSw5NSAgICAgbDQuODMsMy45NGwwLjE1LTE1LjAybC0xLjY5LTAuMTlMMi4xOCw3OC41eiIvPiYjeGE7CQk8L2c+JiN4YTsJCTxnIGlkPSJzaGFwZTM2Ni0xMCIgdHJhbnNmb3JtPSJ0cmFuc2xhdGUoNDkuNzE1MywtMzkuMjU4NykiPiYjeGE7CQkJPHRpdGxlIGlkPSJ0aXRsZTE0OTQxNiI+cGF0aDc3OTwvdGl0bGU+JiN4YTsJCQk8cGF0aCBpZD0icGF0aDE0OTQxOCIgaW5rc2NhcGU6Y29ubmVjdG9yLWN1cnZhdHVyZT0iMCIgc3R5bGU9ImZpbGw6I0YxRERBRTsiIGQ9Ik0xNC45NSw3Ny41NWwtNi4wMyw1LjM4bC0xLjY5LDAuMTlsLTEuNy0wLjE5ICAgICBsLTUuMjYtNC42NGwwLjE1LDcuNkwwLDkxLjU4bDIuMzMsMy4yMmw0Ljk2LDQuMTRoMC4wNGw0Ljk2LTQuMTRsMi4zMy0zLjIybDAuNTEtNS45MUwxNC45NSw3Ny41NXoiLz4mI3hhOwkJPC9nPiYjeGE7CQk8ZyBpZD0ic2hhcGUzNjctMTIiIHRyYW5zZm9ybT0idHJhbnNsYXRlKDE4LjI0OTksLTExLjc5MDcpIj4mI3hhOwkJCTx0aXRsZSBpZD0idGl0bGUxNDk0MjEiPnBhdGg3ODE8L3RpdGxlPiYjeGE7CQkJPHBhdGggaWQ9InBhdGgxNDk0MjMiIGlua3NjYXBlOmNvbm5lY3Rvci1jdXJ2YXR1cmU9IjAiIHN0eWxlPSJmaWxsOiMwMzgyQkU7IiBkPSJNNC40MSw2OC4xM2w2LjY3LTUuNzlsOC4yMy0yLjE2bDMuMjEtMS44NCAgICAgbDMuMzYtMC4zOGwzLjQyLTUuMTNsMi40My0yLjAxbC0yLjE4LDYuMjVsLTAuMDksMy42MWwwLjU2LDMuOThsMi4xMywzLjE2bDUuNjcsNC43NGwxLjg5LDEyLjQxbC0wLjU1LDEzLjk3TDEuNDIsOTUuMzNMMCw5Mi43OSAgICAgbDAuNjktOC4wNWwyLjM5LTQuNzJMNC40MSw2OC4xM3oiLz4mI3hhOwkJPC9nPiYjeGE7CQk8ZyBpZD0ic2hhcGUzNjgtMTQiIHRyYW5zZm9ybT0idHJhbnNsYXRlKDQyLjI2OTMsLTM1Ljk4MTMpIj4mI3hhOwkJCTx0aXRsZSBpZD0idGl0bGUxNDk0MjYiPnBhdGg3ODM8L3RpdGxlPiYjeGE7CQkJPHBhdGggaWQ9InBhdGgxNDk0MjgiIGlua3NjYXBlOmNvbm5lY3Rvci1jdXJ2YXR1cmU9IjAiIHN0eWxlPSJmaWxsOiMwMDcxQTY7IiBkPSJNMCw4Ny41NWwxLjktNS40bDMuMzgtNS4xM2wyLjQzLTIuMDEgICAgIGwtMi4xMyw2LjI1bC0wLjA5LDMuNjFsMC41NiwzLjk4bDIuMTMsMy4xNmw1LjYyLDQuNzRsLTEyLDIuMTlMMCw4Ny41NXoiLz4mI3hhOwkJPC9nPiYjeGE7CQk8ZyBpZD0ic2hhcGUzNjktMTYiIHRyYW5zZm9ybT0idHJhbnNsYXRlKDU3LjQxMywtMTEuNzkwNykiPiYjeGE7CQkJPHRpdGxlIGlkPSJ0aXRsZTE0OTQzMSI+cGF0aDc4NTwvdGl0bGU+JiN4YTsJCQk8cGF0aCBpZD0icGF0aDE0OTQzMyIgaW5rc2NhcGU6Y29ubmVjdG9yLWN1cnZhdHVyZT0iMCIgc3R5bGU9ImZpbGw6IzAzODJCRTsiIGQ9Ik0zMi4zLDY1Ljg0bC00LjgxLTIuODJMMjMsNjEuOWwtNC4yLTIuMSAgICAgbC01LjM5LTEuMzFsLTEuOTUtMC42NGwtMy43NS00LjE5bDEuMTQsMy40MWwwLjA4LDMuNjFsLTAuNTUsMy45OEw3LjcyLDY4LjVsLTUuNDgsNS4ybC0xLjcsMTEuMzVMMCw5OC45NGwzNS40OC0zLjU3bDEuMDMtMi4wNCAgICAgbC0xLjI2LTcuMWwtMC4xNi0xMS40NEwzMi4zLDY1Ljg0eiIvPiYjeGE7CQk8L2c+JiN4YTsJCTxnIGlkPSJzaGFwZTM3MC0xOCIgdHJhbnNmb3JtPSJ0cmFuc2xhdGUoNTkuNjg4NSwtMzcuMDI4NCkiPiYjeGE7CQkJPHRpdGxlIGlkPSJ0aXRsZTE0OTQzNiI+cGF0aDc4NzwvdGl0bGU+JiN4YTsJCQk8cGF0aCBpZD0icGF0aDE0OTQzOCIgaW5rc2NhcGU6Y29ubmVjdG9yLWN1cnZhdHVyZT0iMCIgc3R5bGU9ImZpbGw6IzAwNzFBNjsiIGQ9Ik0xMi42Miw4OC44MmwwLjQyLTIuN2wtMy44Ni0zLjAzbC0zLjc0LTQuMiAgICAgbDEuMDgsMy40MWwwLjA5LDMuNjFMNi4wNSw4OS45bC0wLjY5LDMuOUwwLDk4Ljk0bDE0LjItMC44NkwxMi42Miw4OC44MnoiLz4mI3hhOwkJPC9nPiYjeGE7CQk8ZyBpZD0ic2hhcGUzNzEtMjAiIHRyYW5zZm9ybT0idHJhbnNsYXRlKDE5LjY2OTYsLTExLjA4NTkpIj4mI3hhOwkJCTx0aXRsZSBpZD0idGl0bGUxNDk0NDEiPnBhdGg3ODk8L3RpdGxlPiYjeGE7CQkJPHBhdGggaWQ9InBhdGgxNDk0NDMiIGlua3NjYXBlOmNvbm5lY3Rvci1jdXJ2YXR1cmU9IjAiIHN0eWxlPSJmaWxsOiNGMUREQUU7IiBkPSJNNSw4Mi40M2wtNC4wNiwzLjVMMCw5Mi43MmwzLjQyLDIuOCAgICAgbDE5Ljg5LDMuNDJsMi44My02LjMxTDUsODIuNDN6IE02OC4yNiw4Mi40M2w0LjA3LDMuNWwwLjk0LDYuNzlsLTMuNDMsMi44bC0xOS44OSwzLjQybC0yLjgzLTYuMzFMNjguMjYsODIuNDN6Ii8+JiN4YTsJCTwvZz4mI3hhOwkJPGcgaWQ9InNoYXBlMzcyLTIyIiB0cmFuc2Zvcm09InRyYW5zbGF0ZSg0Mi44MDgsLTUzLjk3NDQpIj4mI3hhOwkJCTx0aXRsZSBpZD0idGl0bGUxNDk0NDYiPnBhdGg3OTE8L3RpdGxlPiYjeGE7CQkJPHBhdGggaWQ9InBhdGgxNDk0NDgiIGlua3NjYXBlOmNvbm5lY3Rvci1jdXJ2YXR1cmU9IjAiIHN0eWxlPSJmaWxsOiNGN0VCRDA7IiBkPSJNMjcuNzUsNzYuMTVsLTEuMjcsMC41MmwtMC4yOS0xMi44OSAgICAgbC0xMS45Ny0wLjE3aC0wLjAxTDIuMjUsNjMuNzhsLTAuMywxMi44OWwtMS4yNy0wLjUyTDAsNzYuMjVsMC4wNiw1Ljg5bDEuNTcsMy4zbDEuOTUsMS4wMWwxLjM4LDQuODZsMy4wMiwzLjY2bDQuNTUsMy43OCAgICAgbDEuNjgsMC4xOWgwLjAxbDEuNjktMC4xOWw0LjU0LTMuNzhsMy4wMy0zLjY2bDEuMzgtNC44NmwxLjk1LTEuMDFsMS41Ny0zLjNsMC4wNS01Ljg5TDI3Ljc1LDc2LjE1eiIvPiYjeGE7CQk8L2c+JiN4YTsJCTxnIGlkPSJzaGFwZTM3My0yNCIgdHJhbnNmb3JtPSJ0cmFuc2xhdGUoNDUuOTI5NCwtNTMuOTY5NCkiPiYjeGE7CQkJPHRpdGxlIGlkPSJ0aXRsZTE0OTQ1MSI+cGF0aDc5MzwvdGl0bGU+JiN4YTsJCQk8cGF0aCBpZD0icGF0aDE0OTQ1MyIgaW5rc2NhcGU6Y29ubmVjdG9yLWN1cnZhdHVyZT0iMCIgc3R5bGU9ImZpbGw6IzRGNEQ0QjsiIGQ9Ik0yMS42Niw4NC4xOWwtMC41LDEuNjdsLTEuODMsMy4yM2wtMi42LDEuNzEgICAgIGwtMS4wNS0xLjc3TDExLjEsODguMmwtNC42MSwwLjgzTDUuNDUsOTAuOGwtMi42MS0xLjcxbC0xLjgzLTMuMjNMMC41LDg0LjE5TDAsODQuMDdsMC40NiwyLjM4bDEuMzcsNC44NmwzLjAyLDMuNjZMOC44LDk4LjcgICAgIGwyLjI4LDAuMjRsMi4yOS0wLjI0bDMuOTQtMy43M2wzLjAyLTMuNjZsMS40MS00Ljg2bDAuNDQtMi4zOEwyMS42Niw4NC4xOXogTTEzLjYxLDk0Ljc2bC0xLjM5LDAuMTRsLTEtMC43SDEwLjlsLTEuMDEsMC43ICAgICBsLTEuMzgtMC4xNGwtMi4zMi0yLjA1bDAuODMtMi44MWw0LjAzLTAuMDhsNC4wMiwwLjA4bDAuODYsMi44M0wxMy42MSw5NC43NnoiLz4mI3hhOwkJPC9nPiYjeGE7CQk8ZyBpZD0ic2hhcGUzNzQtMjYiIHRyYW5zZm9ybT0idHJhbnNsYXRlKDQ0Ljc0MTIsLTU5LjUyMjQpIj4mI3hhOwkJCTx0aXRsZSBpZD0idGl0bGUxNDk0NTYiPnBhdGg3OTU8L3RpdGxlPiYjeGE7CQkJPHBhdGggaWQ9InBhdGgxNDk0NTgiIGlua3NjYXBlOmNvbm5lY3Rvci1jdXJ2YXR1cmU9IjAiIHN0eWxlPSJmaWxsOiM0RjRENEI7IiBkPSJNMTMuMjcsOTcuNzVIMTEuM2wwLjUsMC45MWwwLjQ4LDAuMjd2MC4wMSAgICAgdi0wLjAxbDAuMDEsMC4wMXYtMC4wMWwwLjQ4LTAuMjdMMTMuMjcsOTcuNzV6IE0yNC41Nyw4MS41M2wtMS43MiwwLjIybC0wLjE5LTAuMDdsLTIuMzUtMC40NmgtMy44OWwtMy41OSwwLjU4SDExLjdsLTMuNTktMC41OCAgICAgSDQuMjRMMS45LDgxLjY4bC0wLjE4LDAuMDZMMCw4MS41M3YwLjY5bDAuOTMsMC4xMmwwLjcsMy4yNmwwLjYxLDAuNjFsMS44NSwwLjQ2aDMuMTNsMi43NC0wLjYzbDEuNDEtMi4yNmwwLjU3LTAuNjRoMC42NSAgICAgbDAuNTcsMC42NGwxLjQxLDIuMjZsMi43NCwwLjYzaDMuMTNsMS44NS0wLjQ2bDAuNjEtMC42MWwwLjctMy4yNmwwLjkzLTAuMTJMMjQuNTcsODEuNTN6IE0xMC4zOSw4My4yOGwtMC43NywyLjE4bC0yLjU3LDAuNTUgICAgIEg0LjAzbC0xLjM3LTAuMzRsLTAuNTEtMC40NGwtMC4zNi0yLjQxbDAuNDEtMC41MWwyLjAxLTAuMzhoMy44NWwyLjM1LDAuMzZMMTAuMzksODMuMjh6IE0yMi40MSw4NS4yMmwtMC41MSwwLjQ0bC0xLjM2LDAuMzUgICAgIGgtMy4wM2wtMi41Ni0wLjU2bC0wLjc4LTIuMTZ2LTEuMDFsMi4zNS0wLjM1aDMuODRsMi4wMSwwLjM4bDAuNDEsMC41TDIyLjQxLDg1LjIyeiIvPiYjeGE7CQk8L2c+JiN4YTsJCTxnIGlkPSJzaGFwZTM3NS0yOCIgdHJhbnNmb3JtPSJ0cmFuc2xhdGUoNDIuOTk0MywtNzYuMjQxOCkiPiYjeGE7CQkJPHRpdGxlIGlkPSJ0aXRsZTE0OTQ2MSI+cGF0aDc5NzwvdGl0bGU+JiN4YTsJCQk8cGF0aCBpZD0icGF0aDE0OTQ2MyIgaW5rc2NhcGU6Y29ubmVjdG9yLWN1cnZhdHVyZT0iMCIgc3R5bGU9ImZpbGw6IzRGNEQ0QjsiIGQ9Ik0yNy42NCw4NC4zbC0yLjEtMi4xNGwtMy4wNy0yLjAybC00LjQtMS44MSAgICAgbC00LjAzLTAuNTloLTAuMDFsLTQuMDQsMC41OWwtMy42NywyLjI1bC0zLjQsMy4zOWwtMC42NywwLjE3TDAsOTAuMzVsMC4xNiw2Ljc3bDAuMzQsMS4yOWwxLjI3LDAuNTNsMC40NC04LjdsMi44MS0zLjk1ICAgICBsNi40MSwwLjdsMi4yOCwyLjExaDAuNjRsMi4yOC0yLjExbDYuNDEtMC43bDIuODIsMy45NWwwLjQzLDguN2wxLjI3LTAuNTNsMC4zNS0xLjI5bDAuNTktNi44M0wyNy42NCw4NC4zeiIvPiYjeGE7CQk8L2c+JiN4YTsJCTxnIGlkPSJzaGFwZTM3Ni0zMCIgdHJhbnNmb3JtPSJ0cmFuc2xhdGUoNTQuNzE0NSwtNjUuNDM3OSkiPiYjeGE7CQkJPHRpdGxlIGlkPSJ0aXRsZTE0OTQ2NiI+cGF0aDc5OTwvdGl0bGU+JiN4YTsJCQk8cGF0aCBpZD0icGF0aDE0OTQ2OCIgaW5rc2NhcGU6Y29ubmVjdG9yLWN1cnZhdHVyZT0iMCIgc3R5bGU9ImZpbGw6I0VDRDE4RjsiIGQ9Ik0xLjYxLDk4LjVsLTEtMC4yMUwwLDk4LjYybDAuNSwwLjMyTDEuNjEsOTguNSAgICAgeiBNMy4wNiw5OC41bDAuOTktMC4yMWwwLjYxLDAuMzNsLTAuNTEsMC4zMkwzLjA2LDk4LjV6Ii8+JiN4YTsJCTwvZz4mI3hhOwkJPGcgaWQ9InNoYXBlMzc3LTMyIiB0cmFuc2Zvcm09InRyYW5zbGF0ZSg0MS4wNTEsLTY2LjA4NzMpIj4mI3hhOwkJCTx0aXRsZSBpZD0idGl0bGUxNDk0NzEiPnBhdGg4MDE8L3RpdGxlPiYjeGE7CQkJPHBhdGggaWQ9InBhdGgxNDk0NzMiIGlua3NjYXBlOmNvbm5lY3Rvci1jdXJ2YXR1cmU9IjAiIHN0eWxlPSJmaWxsOiMzRjU3NjU7IiBkPSJNMy43Myw4Ny44MmwwLjA5LDQuOTFsMS4wOCwzLjQ1bDAuNDQsMi4zOCAgICAgbC0xLjY1LDAuMzhIMi40NWwtMC4xNC0wLjY5SDAuOTRMMCw5My4yM2wwLjUtNC43MmwwLjksMC4yN2wwLjA0LTAuOTlMMy43Myw4Ny44MnogTTI4LjIyLDg3LjgybC0wLjA5LDQuOTFsLTEuMDgsMy40NSAgICAgbC0wLjQzLDIuMzhsMS42NCwwLjM4aDEuMjRsMC4xNC0wLjY5aDEuMzdsMC45NC01LjAybC0wLjUtNC43MmwtMC45LDAuMjdsLTAuMDUtMC45OUwyOC4yMiw4Ny44MnoiLz4mI3hhOwkJPC9nPiYjeGE7CQk8ZyBpZD0ic2hhcGUzNzgtMzQiIHRyYW5zZm9ybT0idHJhbnNsYXRlKDIxLjQxNjYsLTMuNTM0MTkpIj4mI3hhOwkJCTx0aXRsZSBpZD0idGl0bGUxNDk0NzYiPnBhdGg4MDM8L3RpdGxlPiYjeGE7CQkJPHBhdGggaWQ9InBhdGgxNDk0NzgiIGlua3NjYXBlOmNvbm5lY3Rvci1jdXJ2YXR1cmU9IjAiIHN0eWxlPSJmaWxsOiMzRjU3NjU7IiBkPSJNMjAuMzYsMTUuNDFsLTEuOTcsOC45N2wwLjI0LDUuMDN2MS40ICAgICBsMC4zOCwxLjNsMC44NC0wLjMybDAuMTctMS4xMWwtMC4yNC0xLjMxbDAuMDUtNC43MWwxLjc1LTguNDJsNS4yNy02LjI1bDguNzYtMS40NFY3LjE2bC05LjM2LDEuNDhMMjAuMzYsMTUuNDF6IE01MC44NiwxNS40MSAgICAgbC01Ljg5LTYuNzdsLTkuMzYtMS40OHYxLjM5bDguNzYsMS40NGw1LjI3LDYuMjVsMS43NSw4LjQybDAuMDYsNC43MWwtMC4yNSwxLjMxbDAuMTgsMS4xMWwwLjgzLDAuMzJsMC4zOC0xLjN2LTEuNGwwLjI1LTUuMDMgICAgIEw1MC44NiwxNS40MXogTTksOTguOTRsLTcuMzYtMS4zMUwwLDkzLjA1bDMuNTQtMy4yNGw2LjMxLTEuMmw4LjA1LTI0LjI3bDIuMDEtMTMuMDRsNC4wNi02LjIybC0xLjE1LTkuMzJsMS0wLjE2bDEuMjIsOS43ICAgICBsLTQuMTgsNi4zOGwtMiwxMi45NGwtOC4yNCwyNC44N2wtNi42MSwxLjI1bC0yLjg0LDIuNmwxLjIyLDMuNGw2LjgsMS4yMUw5LDk4Ljk0eiIvPiYjeGE7CQk8L2c+JiN4YTsJCTxnIGlkPSJzaGFwZTM3OS0zNiIgdHJhbnNmb3JtPSJ0cmFuc2xhdGUoMzAuMjY3MiwtMS45ODM1OCkiPiYjeGE7CQkJPHRpdGxlIGlkPSJ0aXRsZTE0OTQ4MSI+cGF0aDgwNTwvdGl0bGU+JiN4YTsJCQk8cGF0aCBpZD0icGF0aDE0OTQ4MyIgaW5rc2NhcGU6Y29ubmVjdG9yLWN1cnZhdHVyZT0iMCIgc3R5bGU9ImZpbGw6IzRGNEQ0QjsiIGQ9Ik01MC42Miw2NS4xNUgxLjMyTDAsNjYuMzl2MzIuNTVoNTEuOTRWNjYuNDYgICAgIEw1MC42Miw2NS4xNXoiLz4mI3hhOwkJPC9nPiYjeGE7CQk8ZyBpZD0iZ3JvdXAzODAtMzgiIHRyYW5zZm9ybT0idHJhbnNsYXRlKDUxLjYyMDgsLTE0LjI2NTMpIj4mI3hhOwkJCTx0aXRsZSBpZD0idGl0bGUxNDk0ODYiPk1pY3Jvc29mdDwvdGl0bGU+JiN4YTsJCQk8ZyBpZD0ic2hhcGUzODEtMzkiIHRyYW5zZm9ybT0idHJhbnNsYXRlKDAsLTQuODYyOTEpIj4mI3hhOwkJCQk8dGl0bGUgaWQ9InRpdGxlMTQ5NDg4Ij5IVFRQIEFQSSBBcHA8L3RpdGxlPiYjeGE7CQkJCTxwYXRoIGlkPSJwYXRoMTQ5NDkwIiBpbmtzY2FwZTpjb25uZWN0b3ItY3VydmF0dXJlPSIwIiBzdHlsZT0iZmlsbDojRjI1MDIyOyIgZD0iTTAsOTQuNTd2NC4zN2g0LjM3di00LjM3SDB6Ii8+JiN4YTsJCQk8L2c+JiN4YTsJCQk8ZyBpZD0ic2hhcGUzODItNDEiIHRyYW5zZm9ybT0idHJhbnNsYXRlKDQuODYwMDYsLTQuODYyOTEpIj4mI3hhOwkJCQk8dGl0bGUgaWQ9InRpdGxlMTQ5NDkzIj5IVFRQIEFQSSBBcHAuMTQ2MTwvdGl0bGU+JiN4YTsJCQkJPHBhdGggaWQ9InBhdGgxNDk0OTUiIGlua3NjYXBlOmNvbm5lY3Rvci1jdXJ2YXR1cmU9IjAiIHN0eWxlPSJmaWxsOiM3RkJBMDA7IiBkPSJNMCw5NC41N3Y0LjM3aDQuMzd2LTQuMzdIMHoiLz4mI3hhOwkJCTwvZz4mI3hhOwkJCTxnIGlkPSJzaGFwZTM4My00MyIgdHJhbnNmb3JtPSJ0cmFuc2xhdGUoNC44NjAwNikiPiYjeGE7CQkJCTx0aXRsZSBpZD0idGl0bGUxNDk0OTgiPkhUVFAgQVBJIEFwcC4xNDYyPC90aXRsZT4mI3hhOwkJCQk8cGF0aCBpZD0icGF0aDE0OTUwMCIgaW5rc2NhcGU6Y29ubmVjdG9yLWN1cnZhdHVyZT0iMCIgc3R5bGU9ImZpbGw6I0ZGQjkwMDsiIGQ9Ik0wLDk0LjU3djQuMzdoNC4zN3YtNC4zN0gweiIvPiYjeGE7CQkJPC9nPiYjeGE7CQkJPGcgaWQ9InNoYXBlMzg0LTQ1Ij4mI3hhOwkJCQk8dGl0bGUgaWQ9InRpdGxlMTQ5NTAzIj5IVFRQIEFQSSBBcHAuMTQ2MzwvdGl0bGU+JiN4YTsJCQkJPHBhdGggaWQ9InBhdGgxNDk1MDUiIGlua3NjYXBlOmNvbm5lY3Rvci1jdXJ2YXR1cmU9IjAiIHN0eWxlPSJmaWxsOiMwMEE0RUY7IiBkPSJNMCw5NC41N3Y0LjM3aDQuMzd2LTQuMzdIMHoiLz4mI3hhOwkJCTwvZz4mI3hhOwkJPC9nPiYjeGE7CQk8ZyBpZD0iZ3JvdXAzODUtNDciIHRyYW5zZm9ybT0idHJhbnNsYXRlKDE1LjM4MzUsLTcwLjc0NDUpIj4mI3hhOwkJCTx0aXRsZSBpZD0idGl0bGUxNDk1MDkiPlZpc3VhbCBTdHVkaW88L3RpdGxlPiYjeGE7CQkJPGcgaWQ9InNoYXBlMzg2LTQ4Ij4mI3hhOwkJCQk8dGl0bGUgaWQ9InRpdGxlMTQ5NTExIj5TaGVldC4zODY8L3RpdGxlPiYjeGE7CQkJCTxwYXRoIGlkPSJwYXRoMTQ5NTEzIiBpbmtzY2FwZTpjb25uZWN0b3ItY3VydmF0dXJlPSIwIiBzdHlsZT0iZmlsbDojNjgyMTdBOyIgZD0iTTEzLjA5LDkzLjQ3bC00LjI2LTMuMzlsNC4yNi0zLjM4VjkzLjQ3eiAgICAgICBNMS45MSw5Mi41N3YtNC44NmwyLjMyLDIuNDlMMS45MSw5Mi41N3ogTTEzLjE4LDgxLjUybC02Ljc2LDYuNDNsLTQuMjQtMi45OEwwLDg1Ljc1djguNzNsMS41MSwxLjExbDQuNy0zLjU0bDYuOTEsNi44OSAgICAgIGw0LjI5LTEuNzRWODMuMjZMMTMuMTgsODEuNTJ6Ii8+JiN4YTsJCQk8L2c+JiN4YTsJCTwvZz4mI3hhOwk8L2c+JiN4YTs8L2c+JiN4YTs8L3N2Zz4=;" vertex="1" parent="1">
          <mxGeometry x="88.34" y="1290" width="57.66" height="47" as="geometry" />
        </mxCell>
        <mxCell id="MxWDfC0iBpmXcdRfzme4-2091" value="" style="shape=image;verticalLabelPosition=bottom;labelBackgroundColor=#ffffff;verticalAlign=top;aspect=fixed;imageAspect=0;image=data:image/svg+xml,PHN2ZyB4bWxuczpjYz0iaHR0cDovL2NyZWF0aXZlY29tbW9ucy5vcmcvbnMjIiB4bWxuczpkYz0iaHR0cDovL3B1cmwub3JnL2RjL2VsZW1lbnRzLzEuMS8iIHhtbG5zOmlua3NjYXBlPSJodHRwOi8vd3d3Lmlua3NjYXBlLm9yZy9uYW1lc3BhY2VzL2lua3NjYXBlIiB4bWxuczpyZGY9Imh0dHA6Ly93d3cudzMub3JnLzE5OTkvMDIvMjItcmRmLXN5bnRheC1ucyMiIHhtbG5zOnNvZGlwb2RpPSJodHRwOi8vc29kaXBvZGkuc291cmNlZm9yZ2UubmV0L0RURC9zb2RpcG9kaS0wLmR0ZCIgeG1sbnM6c3ZnPSJodHRwOi8vd3d3LnczLm9yZy8yMDAwL3N2ZyIgeG1sbnM9Imh0dHA6Ly93d3cudzMub3JnLzIwMDAvc3ZnIiB4bWxuczp4bGluaz0iaHR0cDovL3d3dy53My5vcmcvMTk5OS94bGluayIgdmVyc2lvbj0iMS4xIiBpZD0ic3ZnMjE3NjczIiBpbmtzY2FwZTp2ZXJzaW9uPSIwLjkyLjMgKDI0MDU1NDYsIDIwMTgtMDMtMTEpIiBzb2RpcG9kaTpkb2NuYW1lPSJ2aXN1YWxfc3R1ZGlvX3RlYW1fc2VydmljZXNfZ2l0aHViLnN2ZyIgeD0iMHB4IiB5PSIwcHgiIHZpZXdCb3g9IjAgMCA0NS4yNyA0NS4yNyIgc3R5bGU9ImVuYWJsZS1iYWNrZ3JvdW5kOm5ldyAwIDAgNDUuMjcgNDUuMjc7IiB4bWw6c3BhY2U9InByZXNlcnZlIj4mI3hhOzxzb2RpcG9kaTpuYW1lZHZpZXcgYm9yZGVyY29sb3I9IiM2NjY2NjYiIGJvcmRlcm9wYWNpdHk9IjEiIGZpdC1tYXJnaW4tYm90dG9tPSIwIiBmaXQtbWFyZ2luLWxlZnQ9IjAiIGZpdC1tYXJnaW4tcmlnaHQ9IjAiIGZpdC1tYXJnaW4tdG9wPSIwIiBncmlkdG9sZXJhbmNlPSIxMCIgZ3VpZGV0b2xlcmFuY2U9IjEwIiBpZD0ibmFtZWR2aWV3MjE3Njc1IiBpbmtzY2FwZTpjdXJyZW50LWxheWVyPSJzdmcyMTc2NzMiIGlua3NjYXBlOmN4PSIzMC4xNzcxNSIgaW5rc2NhcGU6Y3k9IjMwLjE4Mjg4NCIgaW5rc2NhcGU6cGFnZW9wYWNpdHk9IjAiIGlua3NjYXBlOnBhZ2VzaGFkb3c9IjIiIGlua3NjYXBlOndpbmRvdy1oZWlnaHQ9IjEwMTciIGlua3NjYXBlOndpbmRvdy1tYXhpbWl6ZWQ9IjEiIGlua3NjYXBlOndpbmRvdy13aWR0aD0iMTkyMCIgaW5rc2NhcGU6d2luZG93LXg9Ii04IiBpbmtzY2FwZTp3aW5kb3cteT0iLTgiIGlua3NjYXBlOnpvb209IjEzLjkwNDQxNCIgb2JqZWN0dG9sZXJhbmNlPSIxMCIgcGFnZWNvbG9yPSIjZmZmZmZmIiBzaG93Z3JpZD0iZmFsc2UiPiYjeGE7CTwvc29kaXBvZGk6bmFtZWR2aWV3PiYjeGE7PGcgaWQ9ImcyMTc2NzEiIHRyYW5zZm9ybT0idHJhbnNsYXRlKC0wLjc1LC0wLjc1KSI+JiN4YTsJPHRpdGxlIGlkPSJ0aXRsZTIxNzY2MSI+UGFnZS0xPC90aXRsZT4mI3hhOwk8ZyBpZD0iZ3JvdXAyMjQ4LTEiIHRyYW5zZm9ybT0idHJhbnNsYXRlKDAuNzUsLTAuNzUpIj4mI3hhOwkJPHRpdGxlIGlkPSJ0aXRsZTIxNzY2MyI+VmlzdWFsIFN0dWRpbyBUZWFtIFNlcnZpY2VzIC0gR2l0SHViPC90aXRsZT4mI3hhOwkJPGcgaWQ9InNoYXBlMjI0OS0yIj4mI3hhOwkJCTx0aXRsZSBpZD0idGl0bGUyMTc2NjUiPlNoZWV0LjIyNDk8L3RpdGxlPiYjeGE7CQkJPHBhdGggaWQ9InBhdGgyMTc2NjciIGlua3NjYXBlOmNvbm5lY3Rvci1jdXJ2YXR1cmU9IjAiIHN0eWxlPSJmaWxsOiMxRTFFMUU7IiBkPSJNMjIuNjMsMS41QzEwLjE0LDEuNSwwLDExLjY0LDAsMjQuMTMgICAgIGMwLDEyLjUxLDEwLjE0LDIyLjY0LDIyLjYzLDIyLjY0YzEyLjUsMCwyMi42NC0xMC4xMywyMi42NC0yMi42NEM0NS4yNywxMS42NCwzNS4xMywxLjUsMjIuNjMsMS41eiBNMjguNjIsNDMuNzh2LTMuODYgICAgIGMwLTEuNS0wLjgyLTIuODItMi4wNy0zLjY1YzAuMDgtMC4wMiwwLjE5LTAuMDMsMC4yOS0wLjAzYzIuMTUtMC4yNyw0LjEtMC45NSw0LjEtMC45NXMyLjgtMC44Nyw0LjMxLTIuNjMgICAgIGMxLjU5LTEuODcsMi00LjYzLDItNC42M3MwLjUyLTMuMDIsMC01LjM2Yy0wLjUzLTIuMjktMi4yMS0zLjg4LTIuMjEtMy44OHMwLjU4LTEuNDksMC41My0zLjA1Yy0wLjA1LTEuNDktMC43NS0zLjA1LTAuNzUtMy4wNSAgICAgcy0xLjMyLTAuMTItMi43MywwLjQyYy0xLjcxLDAuNjYtMy41OCwyLTMuNTgsMnMtMS4zLTAuNDItMi44My0wLjYyYy0xLjQtMC4yMS0zLjA1LTAuMjItMy4wNS0wLjIycy0xLjY0LDAuMDEtMy4wNSwwLjIyICAgICBjLTEuNTIsMC4yLTIuODMsMC42Mi0yLjgzLDAuNjJzLTEuODUtMS4zNC0zLjU4LTJjLTEuMzktMC41NC0yLjczLTAuNDItMi43My0wLjQycy0wLjY3LDEuNTYtMC43MywzLjA1ICAgICBjLTAuMDUsMS41NiwwLjUzLDMuMDUsMC41MywzLjA1cy0xLjcsMS42LTIuMjEsMy44OWMtMC41NCwyLjM0LDAsNS4zNSwwLDUuMzVzMC40MSwyLjc3LDEuOTksNC42MyAgICAgYzEuNTEsMS43Niw0LjMyLDIuNjMsNC4zMiwyLjYzczEuOTMsMC42OCw0LjA5LDAuOTVjMC4xLDAsMC4yLDAuMDIsMC4zLDAuMDNjLTEuMjUsMC44My0yLjA4LDIuMTUtMi4wOCwzLjY1djMuODYgICAgIEM4LjIyLDQxLjIyLDIuMSwzMy4zOSwyLjEsMjQuMTNDMi4xLDEyLjc5LDExLjI5LDMuNiwyMi42MywzLjZzMjAuNTUsOS4xOSwyMC41NSwyMC41M0M0My4xOCwzMy4zOSwzNy4wNCw0MS4yMiwyOC42Miw0My43OHoiLz4mI3hhOwkJPC9nPiYjeGE7CTwvZz4mI3hhOzwvZz4mI3hhOzwvc3ZnPg==;" vertex="1" parent="1">
          <mxGeometry x="88" y="1370" width="45" height="45" as="geometry" />
        </mxCell>
        <mxCell id="MxWDfC0iBpmXcdRfzme4-2092" value="" style="shape=image;verticalLabelPosition=bottom;labelBackgroundColor=#ffffff;verticalAlign=top;aspect=fixed;imageAspect=0;image=data:image/svg+xml,PHN2ZyB4bWxuczpjYz0iaHR0cDovL2NyZWF0aXZlY29tbW9ucy5vcmcvbnMjIiB4bWxuczpkYz0iaHR0cDovL3B1cmwub3JnL2RjL2VsZW1lbnRzLzEuMS8iIHhtbG5zOmlua3NjYXBlPSJodHRwOi8vd3d3Lmlua3NjYXBlLm9yZy9uYW1lc3BhY2VzL2lua3NjYXBlIiB4bWxuczpyZGY9Imh0dHA6Ly93d3cudzMub3JnLzE5OTkvMDIvMjItcmRmLXN5bnRheC1ucyMiIHhtbG5zOnNvZGlwb2RpPSJodHRwOi8vc29kaXBvZGkuc291cmNlZm9yZ2UubmV0L0RURC9zb2RpcG9kaS0wLmR0ZCIgeG1sbnM6c3ZnPSJodHRwOi8vd3d3LnczLm9yZy8yMDAwL3N2ZyIgeG1sbnM9Imh0dHA6Ly93d3cudzMub3JnLzIwMDAvc3ZnIiB4bWxuczp4bGluaz0iaHR0cDovL3d3dy53My5vcmcvMTk5OS94bGluayIgdmVyc2lvbj0iMS4xIiBpZD0ic3ZnMjE0MTU0IiBpbmtzY2FwZTp2ZXJzaW9uPSIwLjkyLjMgKDI0MDU1NDYsIDIwMTgtMDMtMTEpIiBzb2RpcG9kaTpkb2NuYW1lPSJ1bmlkZW50aWZpZWRfZmVhdHVyZS5zdmciIHg9IjBweCIgeT0iMHB4IiB2aWV3Qm94PSIwIDAgNTIuNzUgNDYuMTkiIHN0eWxlPSJlbmFibGUtYmFja2dyb3VuZDpuZXcgMCAwIDUyLjc1IDQ2LjE5OyIgeG1sOnNwYWNlPSJwcmVzZXJ2ZSI+JiN4YTs8c29kaXBvZGk6bmFtZWR2aWV3IGJvcmRlcmNvbG9yPSIjNjY2NjY2IiBib3JkZXJvcGFjaXR5PSIxIiBmaXQtbWFyZ2luLWJvdHRvbT0iMCIgZml0LW1hcmdpbi1sZWZ0PSIwIiBmaXQtbWFyZ2luLXJpZ2h0PSIwIiBmaXQtbWFyZ2luLXRvcD0iMCIgZ3JpZHRvbGVyYW5jZT0iMTAiIGd1aWRldG9sZXJhbmNlPSIxMCIgaWQ9Im5hbWVkdmlldzIxNDE1NiIgaW5rc2NhcGU6Y3VycmVudC1sYXllcj0ic3ZnMjE0MTU0IiBpbmtzY2FwZTpjeD0iMzUuMTY0NTQ3IiBpbmtzY2FwZTpjeT0iMzAuNzkzMjA4IiBpbmtzY2FwZTpwYWdlb3BhY2l0eT0iMCIgaW5rc2NhcGU6cGFnZXNoYWRvdz0iMiIgaW5rc2NhcGU6d2luZG93LWhlaWdodD0iMTAxNyIgaW5rc2NhcGU6d2luZG93LW1heGltaXplZD0iMSIgaW5rc2NhcGU6d2luZG93LXdpZHRoPSIxOTIwIiBpbmtzY2FwZTp3aW5kb3cteD0iLTgiIGlua3NjYXBlOndpbmRvdy15PSItOCIgaW5rc2NhcGU6em9vbT0iMTEuOTg4OTE1IiBvYmplY3R0b2xlcmFuY2U9IjEwIiBwYWdlY29sb3I9IiNmZmZmZmYiIHNob3dncmlkPSJmYWxzZSI+JiN4YTsJPC9zb2RpcG9kaTpuYW1lZHZpZXc+JiN4YTs8ZyBpZD0iZzIxNDE1MiIgdHJhbnNmb3JtPSJ0cmFuc2xhdGUoLTQuMDI2MzIsLTQuMDI2NjcpIj4mI3hhOwk8dGl0bGUgaWQ9InRpdGxlMjE0MTI4Ij5QYWdlLTE8L3RpdGxlPiYjeGE7CTxnIGlkPSJncm91cDMwMTQtMSIgdHJhbnNmb3JtPSJ0cmFuc2xhdGUoNC4wMjYzMiwtNC4wMjYzMikiPiYjeGE7CQk8dGl0bGUgaWQ9InRpdGxlMjE0MTMwIj5VbmlkZW50aWZpZWQgRmVhdHVyZTwvdGl0bGU+JiN4YTsJCTxnIGlkPSJncm91cDMwMTUtMiI+JiN4YTsJCQk8dGl0bGUgaWQ9InRpdGxlMjE0MTMyIj5TaGVldC4zMDE1PC90aXRsZT4mI3hhOwkJPC9nPiYjeGE7CQk8ZyBpZD0iZ3JvdXAzMDE2LTMiPiYjeGE7CQkJPHRpdGxlIGlkPSJ0aXRsZTIxNDEzNSI+cGF0aHM8L3RpdGxlPiYjeGE7CQkJPGcgaWQ9Imdyb3VwMzAxNy00Ij4mI3hhOwkJCQk8dGl0bGUgaWQ9InRpdGxlMjE0MTM3Ij5TaGVldC4zMDE3PC90aXRsZT4mI3hhOwkJCQk8ZyBpZD0ic2hhcGUzMDE4LTUiIHRyYW5zZm9ybT0idHJhbnNsYXRlKDAsLTguNzA3MDEpIj4mI3hhOwkJCQkJPHRpdGxlIGlkPSJ0aXRsZTIxNDEzOSI+U2hlZXQuMzAxODwvdGl0bGU+JiN4YTsJCQkJCTxwYXRoIGlkPSJwYXRoMjE0MTQxIiBpbmtzY2FwZTpjb25uZWN0b3ItY3VydmF0dXJlPSIwIiBzdHlsZT0iZmlsbDojM0Y1NzY1OyIgZD0iTTQyLjI3LDQ1LjkxVjMyLjE1ICAgICAgIGMwLTguMzItNy4zMi0xNS4zOS0xNS45LTE1LjM5cy0xNS45LDcuMDctMTUuOSwxNS4zOXYxMy43NkMyLjE1LDQ5LjE5LDAsNTQuMTEsMCw1NC4xMWwwLjEzLDAuMTNoNTIuNDlsMC4xMy0wLjEzICAgICAgIEM1Mi43NSw1NC4yNCw1MC42LDQ5LjMyLDQyLjI3LDQ1LjkxeiBNMTIuMzcsNDUuMjhWMzIuMTVjMC03LjMxLDYuNDMtMTMuNSwxNC0xMy41czE0LjAxLDYuMTksMTQuMDEsMTMuNXYxMy4xM2gtMC4xMyAgICAgICBjLTAuMjUtMC4xMy0wLjUtMC4xMy0wLjc1LTAuMjVoLTkuMzRjMi4xNC0wLjg5LDUuMy0yLjc4LDYuMTgtNi40NGMwLTAuMjUsMC0wLjUtMC4yNS0wLjYzcy0wLjUtMC4xMy0wLjYzLDAuMTMgICAgICAgYzAsMC0zLjUzLDMuNC02LjQ0LDMuNGMwLDAsMCwwLTAuMTIsMGMxLjEzLTIuMDIsMi41Mi0zLjkxLDMuOTEtNi44MWMyLjktNS42OC0xLjE0LTExLjQ4LTYuNjktMTEuNjEgICAgICAgYy01LjU1LTAuMTMtOS44NCw1LjU1LTcuMTksMTEuMzZjMS4zOSwyLjksMi42NSw1LjA0LDMuNjYsNy4wNmMtMi45LTAuMTItNi4zMS0zLjQtNi4zMS0zLjRjLTAuMTMtMC4yNi0wLjUxLTAuMjYtMC42My0wLjEzICAgICAgIGMtMC4yNiwwLjEzLTAuMzgsMC4zOC0wLjI2LDAuNjNjMS4wMSwzLjY2LDQuMDQsNS41NSw2LjE5LDYuNDRoLTguNDZDMTIuODcsNDUuMTUsMTIuNjIsNDUuMTUsMTIuMzcsNDUuMjh6IE0zMS45MywzMy41NCAgICAgICBjMCwwLjUxLTMuMDMsNC4xNy01LjY4LDQuMTdjLTIuNzgtMC4xMy01LjE4LTMuNjYtNS4xOC00LjE3QzIwLjk1LDMzLjE2LDMxLjkzLDMzLjE2LDMxLjkzLDMzLjU0eiBNMjcuMTMsMzAuODkgICAgICAgYzAtMS4wMSwxLjI2LTIuNTIsMS43Ny0yLjUyYzAuNjMsMCwxLjUxLDEuNjQsMS41MSwyLjc4YzAsMS0wLjg4LDEuMjYtMS41MSwxLjI2QzI4LjM5LDMyLjI4LDI3LjEzLDMyLjAzLDI3LjEzLDMwLjg5eiAgICAgICAgTTIzLjg1LDMyLjI4Yy0wLjYzLDAtMS4zOS0wLjI1LTEuNTEtMS4yNmMwLTEuMDEsMC44OC0yLjc4LDEuNTEtMi43OGMwLjYzLDAsMS43NywxLjUyLDEuNzcsMi41MyAgICAgICBDMjUuNjIsMzIuMDMsMjQuNDgsMzIuMjgsMjMuODUsMzIuMjh6Ii8+JiN4YTsJCQkJPC9nPiYjeGE7CQkJCTxnIGlkPSJzaGFwZTMwMTktNyIgdHJhbnNmb3JtPSJ0cmFuc2xhdGUoMi43NzYxNSkiPiYjeGE7CQkJCQk8dGl0bGUgaWQ9InRpdGxlMjE0MTQ0Ij5TaGVldC4zMDE5PC90aXRsZT4mI3hhOwkJCQkJPHBhdGggaWQ9InBhdGgyMTQxNDYiIGlua3NjYXBlOmNvbm5lY3Rvci1jdXJ2YXR1cmU9IjAiIHN0eWxlPSJmaWxsOiMzRjU3NjU7IiBkPSJNMjMuNiw1NC4yNGMxNC41MSwwLDIyLjcxLTUuMywyMy41OS03LjJIMCAgICAgICBDMC44OCw0OC45NCw4Ljk2LDU0LjI0LDIzLjYsNTQuMjR6Ii8+JiN4YTsJCQkJPC9nPiYjeGE7CQkJPC9nPiYjeGE7CQk8L2c+JiN4YTsJPC9nPiYjeGE7PC9nPiYjeGE7PC9zdmc+;" vertex="1" parent="1">
          <mxGeometry x="86.50000000000006" y="1440" width="53" height="46" as="geometry" />
        </mxCell>
        <mxCell id="MxWDfC0iBpmXcdRfzme4-2093" value="&lt;span style=&quot;white-space: pre;&quot;&gt;	&lt;/span&gt;Dashboard (cliente)" style="shape=process;whiteSpace=wrap;html=1;backgroundOutline=1;align=left;" vertex="1" parent="1">
          <mxGeometry x="535" y="950" width="180" height="74" as="geometry" />
        </mxCell>
        <mxCell id="MxWDfC0iBpmXcdRfzme4-2094" value="&lt;span style=&quot;white-space: pre;&quot;&gt;	&lt;/span&gt;Dashboard (Administrador)" style="shape=process;whiteSpace=wrap;html=1;backgroundOutline=1;align=left;" vertex="1" parent="1">
          <mxGeometry x="600" y="1204" width="180" height="74" as="geometry" />
        </mxCell>
        <mxCell id="MxWDfC0iBpmXcdRfzme4-2095" value="&lt;span style=&quot;white-space: pre;&quot;&gt;	&lt;/span&gt;Dashboard (Empleado)" style="shape=process;whiteSpace=wrap;html=1;backgroundOutline=1;align=left;" vertex="1" parent="1">
          <mxGeometry x="840" y="1204" width="180" height="74" as="geometry" />
        </mxCell>
        <mxCell id="MxWDfC0iBpmXcdRfzme4-2096" value="" style="shape=image;verticalLabelPosition=bottom;labelBackgroundColor=#ffffff;verticalAlign=top;aspect=fixed;imageAspect=0;image=data:image/svg+xml,PHN2ZyB4bWxuczpjYz0iaHR0cDovL2NyZWF0aXZlY29tbW9ucy5vcmcvbnMjIiB4bWxuczpkYz0iaHR0cDovL3B1cmwub3JnL2RjL2VsZW1lbnRzLzEuMS8iIHhtbG5zOmlua3NjYXBlPSJodHRwOi8vd3d3Lmlua3NjYXBlLm9yZy9uYW1lc3BhY2VzL2lua3NjYXBlIiB4bWxuczpyZGY9Imh0dHA6Ly93d3cudzMub3JnLzE5OTkvMDIvMjItcmRmLXN5bnRheC1ucyMiIHhtbG5zOnNvZGlwb2RpPSJodHRwOi8vc29kaXBvZGkuc291cmNlZm9yZ2UubmV0L0RURC9zb2RpcG9kaS0wLmR0ZCIgeG1sbnM6c3ZnPSJodHRwOi8vd3d3LnczLm9yZy8yMDAwL3N2ZyIgeG1sbnM9Imh0dHA6Ly93d3cudzMub3JnLzIwMDAvc3ZnIiB4bWxuczp4bGluaz0iaHR0cDovL3d3dy53My5vcmcvMTk5OS94bGluayIgdmVyc2lvbj0iMS4xIiBpZD0ic3ZnMTQ5NTIwIiBpbmtzY2FwZTp2ZXJzaW9uPSIwLjkyLjMgKDI0MDU1NDYsIDIwMTgtMDMtMTEpIiBzb2RpcG9kaTpkb2NuYW1lPSJkZXZlbG9wZXIuc3ZnIiB4PSIwcHgiIHk9IjBweCIgdmlld0JveD0iMCAwIDExOS4yNCA5Ny40NCIgc3R5bGU9ImVuYWJsZS1iYWNrZ3JvdW5kOm5ldyAwIDAgMTE5LjI0IDk3LjQ0OyIgeG1sOnNwYWNlPSJwcmVzZXJ2ZSI+JiN4YTs8c29kaXBvZGk6bmFtZWR2aWV3IGJvcmRlcmNvbG9yPSIjNjY2NjY2IiBib3JkZXJvcGFjaXR5PSIxIiBmaXQtbWFyZ2luLWJvdHRvbT0iMCIgZml0LW1hcmdpbi1sZWZ0PSIwIiBmaXQtbWFyZ2luLXJpZ2h0PSIwIiBmaXQtbWFyZ2luLXRvcD0iMCIgZ3JpZHRvbGVyYW5jZT0iMTAiIGd1aWRldG9sZXJhbmNlPSIxMCIgaWQ9Im5hbWVkdmlldzE0OTUyMiIgaW5rc2NhcGU6Y3VycmVudC1sYXllcj0ic3ZnMTQ5NTIwIiBpbmtzY2FwZTpjeD0iNzkuNDkwMjQ1IiBpbmtzY2FwZTpjeT0iNjQuOTYxNzI4IiBpbmtzY2FwZTpwYWdlb3BhY2l0eT0iMCIgaW5rc2NhcGU6cGFnZXNoYWRvdz0iMiIgaW5rc2NhcGU6d2luZG93LWhlaWdodD0iMTAxNyIgaW5rc2NhcGU6d2luZG93LW1heGltaXplZD0iMSIgaW5rc2NhcGU6d2luZG93LXdpZHRoPSIxOTIwIiBpbmtzY2FwZTp3aW5kb3cteD0iLTgiIGlua3NjYXBlOndpbmRvdy15PSItOCIgaW5rc2NhcGU6em9vbT0iNi41NzIzODgyIiBvYmplY3R0b2xlcmFuY2U9IjEwIiBwYWdlY29sb3I9IiNmZmZmZmYiIHNob3dncmlkPSJmYWxzZSI+JiN4YTsJPC9zb2RpcG9kaTpuYW1lZHZpZXc+JiN4YTs8ZyBpZD0iZzE0OTUxOCIgdHJhbnNmb3JtPSJ0cmFuc2xhdGUoLTAuNzUsLTAuNzQ4MzMzNzUpIj4mI3hhOwk8dGl0bGUgaWQ9InRpdGxlMTQ5MzkyIj5QYWdlLTE8L3RpdGxlPiYjeGE7CTxnIGlkPSJncm91cDM2MS0xIiB0cmFuc2Zvcm09InRyYW5zbGF0ZSgwLjc1LC0wLjc1KSI+JiN4YTsJCTx0aXRsZSBpZD0idGl0bGUxNDkzOTQiPkRldmVsb3BlcjwvdGl0bGU+JiN4YTsJCTxnIGlkPSJzaGFwZTM2Mi0yIiB0cmFuc2Zvcm09InRyYW5zbGF0ZSgxMC43NzY4LC0zNS44NTcyKSI+JiN4YTsJCQk8dGl0bGUgaWQ9InRpdGxlMTQ5Mzk2Ij5wYXRoNzczLjE5MjE8L3RpdGxlPiYjeGE7CQkJPHBhdGggaWQ9InBhdGgxNDkzOTgiIGlua3NjYXBlOmNvbm5lY3Rvci1jdXJ2YXR1cmU9IjAiIHN0eWxlPSJmaWxsOiNFQ0QxOEY7IiBkPSJNMCw0Mi4wMmg2NC42OXY1Ni45MkgwVjQyLjAyeiIvPiYjeGE7CQk8L2c+JiN4YTsJCTxnIGlkPSJzaGFwZTM2My00Ij4mI3hhOwkJCTx0aXRsZSBpZD0idGl0bGUxNDk0MDEiPnBhdGg3NzM8L3RpdGxlPiYjeGE7CQkJPHBhdGggaWQ9InBhdGgxNDk0MDMiIGlua3NjYXBlOmNvbm5lY3Rvci1jdXJ2YXR1cmU9IjAiIHN0eWxlPSJmaWxsOiNDMzk3NEY7IiBkPSJNMCw4My42N2gxMTkuMjR2MTUuMjdIMFY4My42N3oiLz4mI3hhOwkJPC9nPiYjeGE7CQk8ZyBpZD0ic2hhcGUzNjQtNiIgdHJhbnNmb3JtPSJ0cmFuc2xhdGUoNDYuMjExMywtMjQuMTY1NCkiPiYjeGE7CQkJPHRpdGxlIGlkPSJ0aXRsZTE0OTQwNiI+cGF0aDc3NTwvdGl0bGU+JiN4YTsJCQk8cGF0aCBpZD0icGF0aDE0OTQwOCIgaW5rc2NhcGU6Y29ubmVjdG9yLWN1cnZhdHVyZT0iMCIgc3R5bGU9ImZpbGw6I0ZGRkZGRjsiIGQ9Ik0yMi4xMSw3My4yNmwtMy4yLTcuMjNsLTAuMzgtMC4wN0wxLjIxLDY4Ljc3ICAgICBMMCw3Mi42M2wwLjI5LDQuNzRsMTEuNDYsMjEuNTdsOC4yNi0xMy4yMkwyMi4xMSw3My4yNnoiLz4mI3hhOwkJPC9nPiYjeGE7CQk8ZyBpZD0ic2hhcGUzNjUtOCIgdHJhbnNmb3JtPSJ0cmFuc2xhdGUoNDcuNzk3MSwtMzkuNDY1MSkiPiYjeGE7CQkJPHRpdGxlIGlkPSJ0aXRsZTE0OTQxMSI+cGF0aDc3NzwvdGl0bGU+JiN4YTsJCQk8cGF0aCBpZD0icGF0aDE0OTQxMyIgaW5rc2NhcGU6Y29ubmVjdG9yLWN1cnZhdHVyZT0iMCIgc3R5bGU9ImZpbGw6I0VDRDE4RjsiIGQ9Ik0yLjE4LDc4LjVMMCw4NC43NGwxLjEyLDYuMDNMNC4yNSw5NSAgICAgbDQuODMsMy45NGwwLjE1LTE1LjAybC0xLjY5LTAuMTlMMi4xOCw3OC41eiIvPiYjeGE7CQk8L2c+JiN4YTsJCTxnIGlkPSJzaGFwZTM2Ni0xMCIgdHJhbnNmb3JtPSJ0cmFuc2xhdGUoNDkuNzE1MywtMzkuMjU4NykiPiYjeGE7CQkJPHRpdGxlIGlkPSJ0aXRsZTE0OTQxNiI+cGF0aDc3OTwvdGl0bGU+JiN4YTsJCQk8cGF0aCBpZD0icGF0aDE0OTQxOCIgaW5rc2NhcGU6Y29ubmVjdG9yLWN1cnZhdHVyZT0iMCIgc3R5bGU9ImZpbGw6I0YxRERBRTsiIGQ9Ik0xNC45NSw3Ny41NWwtNi4wMyw1LjM4bC0xLjY5LDAuMTlsLTEuNy0wLjE5ICAgICBsLTUuMjYtNC42NGwwLjE1LDcuNkwwLDkxLjU4bDIuMzMsMy4yMmw0Ljk2LDQuMTRoMC4wNGw0Ljk2LTQuMTRsMi4zMy0zLjIybDAuNTEtNS45MUwxNC45NSw3Ny41NXoiLz4mI3hhOwkJPC9nPiYjeGE7CQk8ZyBpZD0ic2hhcGUzNjctMTIiIHRyYW5zZm9ybT0idHJhbnNsYXRlKDE4LjI0OTksLTExLjc5MDcpIj4mI3hhOwkJCTx0aXRsZSBpZD0idGl0bGUxNDk0MjEiPnBhdGg3ODE8L3RpdGxlPiYjeGE7CQkJPHBhdGggaWQ9InBhdGgxNDk0MjMiIGlua3NjYXBlOmNvbm5lY3Rvci1jdXJ2YXR1cmU9IjAiIHN0eWxlPSJmaWxsOiMwMzgyQkU7IiBkPSJNNC40MSw2OC4xM2w2LjY3LTUuNzlsOC4yMy0yLjE2bDMuMjEtMS44NCAgICAgbDMuMzYtMC4zOGwzLjQyLTUuMTNsMi40My0yLjAxbC0yLjE4LDYuMjVsLTAuMDksMy42MWwwLjU2LDMuOThsMi4xMywzLjE2bDUuNjcsNC43NGwxLjg5LDEyLjQxbC0wLjU1LDEzLjk3TDEuNDIsOTUuMzNMMCw5Mi43OSAgICAgbDAuNjktOC4wNWwyLjM5LTQuNzJMNC40MSw2OC4xM3oiLz4mI3hhOwkJPC9nPiYjeGE7CQk8ZyBpZD0ic2hhcGUzNjgtMTQiIHRyYW5zZm9ybT0idHJhbnNsYXRlKDQyLjI2OTMsLTM1Ljk4MTMpIj4mI3hhOwkJCTx0aXRsZSBpZD0idGl0bGUxNDk0MjYiPnBhdGg3ODM8L3RpdGxlPiYjeGE7CQkJPHBhdGggaWQ9InBhdGgxNDk0MjgiIGlua3NjYXBlOmNvbm5lY3Rvci1jdXJ2YXR1cmU9IjAiIHN0eWxlPSJmaWxsOiMwMDcxQTY7IiBkPSJNMCw4Ny41NWwxLjktNS40bDMuMzgtNS4xM2wyLjQzLTIuMDEgICAgIGwtMi4xMyw2LjI1bC0wLjA5LDMuNjFsMC41NiwzLjk4bDIuMTMsMy4xNmw1LjYyLDQuNzRsLTEyLDIuMTlMMCw4Ny41NXoiLz4mI3hhOwkJPC9nPiYjeGE7CQk8ZyBpZD0ic2hhcGUzNjktMTYiIHRyYW5zZm9ybT0idHJhbnNsYXRlKDU3LjQxMywtMTEuNzkwNykiPiYjeGE7CQkJPHRpdGxlIGlkPSJ0aXRsZTE0OTQzMSI+cGF0aDc4NTwvdGl0bGU+JiN4YTsJCQk8cGF0aCBpZD0icGF0aDE0OTQzMyIgaW5rc2NhcGU6Y29ubmVjdG9yLWN1cnZhdHVyZT0iMCIgc3R5bGU9ImZpbGw6IzAzODJCRTsiIGQ9Ik0zMi4zLDY1Ljg0bC00LjgxLTIuODJMMjMsNjEuOWwtNC4yLTIuMSAgICAgbC01LjM5LTEuMzFsLTEuOTUtMC42NGwtMy43NS00LjE5bDEuMTQsMy40MWwwLjA4LDMuNjFsLTAuNTUsMy45OEw3LjcyLDY4LjVsLTUuNDgsNS4ybC0xLjcsMTEuMzVMMCw5OC45NGwzNS40OC0zLjU3bDEuMDMtMi4wNCAgICAgbC0xLjI2LTcuMWwtMC4xNi0xMS40NEwzMi4zLDY1Ljg0eiIvPiYjeGE7CQk8L2c+JiN4YTsJCTxnIGlkPSJzaGFwZTM3MC0xOCIgdHJhbnNmb3JtPSJ0cmFuc2xhdGUoNTkuNjg4NSwtMzcuMDI4NCkiPiYjeGE7CQkJPHRpdGxlIGlkPSJ0aXRsZTE0OTQzNiI+cGF0aDc4NzwvdGl0bGU+JiN4YTsJCQk8cGF0aCBpZD0icGF0aDE0OTQzOCIgaW5rc2NhcGU6Y29ubmVjdG9yLWN1cnZhdHVyZT0iMCIgc3R5bGU9ImZpbGw6IzAwNzFBNjsiIGQ9Ik0xMi42Miw4OC44MmwwLjQyLTIuN2wtMy44Ni0zLjAzbC0zLjc0LTQuMiAgICAgbDEuMDgsMy40MWwwLjA5LDMuNjFMNi4wNSw4OS45bC0wLjY5LDMuOUwwLDk4Ljk0bDE0LjItMC44NkwxMi42Miw4OC44MnoiLz4mI3hhOwkJPC9nPiYjeGE7CQk8ZyBpZD0ic2hhcGUzNzEtMjAiIHRyYW5zZm9ybT0idHJhbnNsYXRlKDE5LjY2OTYsLTExLjA4NTkpIj4mI3hhOwkJCTx0aXRsZSBpZD0idGl0bGUxNDk0NDEiPnBhdGg3ODk8L3RpdGxlPiYjeGE7CQkJPHBhdGggaWQ9InBhdGgxNDk0NDMiIGlua3NjYXBlOmNvbm5lY3Rvci1jdXJ2YXR1cmU9IjAiIHN0eWxlPSJmaWxsOiNGMUREQUU7IiBkPSJNNSw4Mi40M2wtNC4wNiwzLjVMMCw5Mi43MmwzLjQyLDIuOCAgICAgbDE5Ljg5LDMuNDJsMi44My02LjMxTDUsODIuNDN6IE02OC4yNiw4Mi40M2w0LjA3LDMuNWwwLjk0LDYuNzlsLTMuNDMsMi44bC0xOS44OSwzLjQybC0yLjgzLTYuMzFMNjguMjYsODIuNDN6Ii8+JiN4YTsJCTwvZz4mI3hhOwkJPGcgaWQ9InNoYXBlMzcyLTIyIiB0cmFuc2Zvcm09InRyYW5zbGF0ZSg0Mi44MDgsLTUzLjk3NDQpIj4mI3hhOwkJCTx0aXRsZSBpZD0idGl0bGUxNDk0NDYiPnBhdGg3OTE8L3RpdGxlPiYjeGE7CQkJPHBhdGggaWQ9InBhdGgxNDk0NDgiIGlua3NjYXBlOmNvbm5lY3Rvci1jdXJ2YXR1cmU9IjAiIHN0eWxlPSJmaWxsOiNGN0VCRDA7IiBkPSJNMjcuNzUsNzYuMTVsLTEuMjcsMC41MmwtMC4yOS0xMi44OSAgICAgbC0xMS45Ny0wLjE3aC0wLjAxTDIuMjUsNjMuNzhsLTAuMywxMi44OWwtMS4yNy0wLjUyTDAsNzYuMjVsMC4wNiw1Ljg5bDEuNTcsMy4zbDEuOTUsMS4wMWwxLjM4LDQuODZsMy4wMiwzLjY2bDQuNTUsMy43OCAgICAgbDEuNjgsMC4xOWgwLjAxbDEuNjktMC4xOWw0LjU0LTMuNzhsMy4wMy0zLjY2bDEuMzgtNC44NmwxLjk1LTEuMDFsMS41Ny0zLjNsMC4wNS01Ljg5TDI3Ljc1LDc2LjE1eiIvPiYjeGE7CQk8L2c+JiN4YTsJCTxnIGlkPSJzaGFwZTM3My0yNCIgdHJhbnNmb3JtPSJ0cmFuc2xhdGUoNDUuOTI5NCwtNTMuOTY5NCkiPiYjeGE7CQkJPHRpdGxlIGlkPSJ0aXRsZTE0OTQ1MSI+cGF0aDc5MzwvdGl0bGU+JiN4YTsJCQk8cGF0aCBpZD0icGF0aDE0OTQ1MyIgaW5rc2NhcGU6Y29ubmVjdG9yLWN1cnZhdHVyZT0iMCIgc3R5bGU9ImZpbGw6IzRGNEQ0QjsiIGQ9Ik0yMS42Niw4NC4xOWwtMC41LDEuNjdsLTEuODMsMy4yM2wtMi42LDEuNzEgICAgIGwtMS4wNS0xLjc3TDExLjEsODguMmwtNC42MSwwLjgzTDUuNDUsOTAuOGwtMi42MS0xLjcxbC0xLjgzLTMuMjNMMC41LDg0LjE5TDAsODQuMDdsMC40NiwyLjM4bDEuMzcsNC44NmwzLjAyLDMuNjZMOC44LDk4LjcgICAgIGwyLjI4LDAuMjRsMi4yOS0wLjI0bDMuOTQtMy43M2wzLjAyLTMuNjZsMS40MS00Ljg2bDAuNDQtMi4zOEwyMS42Niw4NC4xOXogTTEzLjYxLDk0Ljc2bC0xLjM5LDAuMTRsLTEtMC43SDEwLjlsLTEuMDEsMC43ICAgICBsLTEuMzgtMC4xNGwtMi4zMi0yLjA1bDAuODMtMi44MWw0LjAzLTAuMDhsNC4wMiwwLjA4bDAuODYsMi44M0wxMy42MSw5NC43NnoiLz4mI3hhOwkJPC9nPiYjeGE7CQk8ZyBpZD0ic2hhcGUzNzQtMjYiIHRyYW5zZm9ybT0idHJhbnNsYXRlKDQ0Ljc0MTIsLTU5LjUyMjQpIj4mI3hhOwkJCTx0aXRsZSBpZD0idGl0bGUxNDk0NTYiPnBhdGg3OTU8L3RpdGxlPiYjeGE7CQkJPHBhdGggaWQ9InBhdGgxNDk0NTgiIGlua3NjYXBlOmNvbm5lY3Rvci1jdXJ2YXR1cmU9IjAiIHN0eWxlPSJmaWxsOiM0RjRENEI7IiBkPSJNMTMuMjcsOTcuNzVIMTEuM2wwLjUsMC45MWwwLjQ4LDAuMjd2MC4wMSAgICAgdi0wLjAxbDAuMDEsMC4wMXYtMC4wMWwwLjQ4LTAuMjdMMTMuMjcsOTcuNzV6IE0yNC41Nyw4MS41M2wtMS43MiwwLjIybC0wLjE5LTAuMDdsLTIuMzUtMC40NmgtMy44OWwtMy41OSwwLjU4SDExLjdsLTMuNTktMC41OCAgICAgSDQuMjRMMS45LDgxLjY4bC0wLjE4LDAuMDZMMCw4MS41M3YwLjY5bDAuOTMsMC4xMmwwLjcsMy4yNmwwLjYxLDAuNjFsMS44NSwwLjQ2aDMuMTNsMi43NC0wLjYzbDEuNDEtMi4yNmwwLjU3LTAuNjRoMC42NSAgICAgbDAuNTcsMC42NGwxLjQxLDIuMjZsMi43NCwwLjYzaDMuMTNsMS44NS0wLjQ2bDAuNjEtMC42MWwwLjctMy4yNmwwLjkzLTAuMTJMMjQuNTcsODEuNTN6IE0xMC4zOSw4My4yOGwtMC43NywyLjE4bC0yLjU3LDAuNTUgICAgIEg0LjAzbC0xLjM3LTAuMzRsLTAuNTEtMC40NGwtMC4zNi0yLjQxbDAuNDEtMC41MWwyLjAxLTAuMzhoMy44NWwyLjM1LDAuMzZMMTAuMzksODMuMjh6IE0yMi40MSw4NS4yMmwtMC41MSwwLjQ0bC0xLjM2LDAuMzUgICAgIGgtMy4wM2wtMi41Ni0wLjU2bC0wLjc4LTIuMTZ2LTEuMDFsMi4zNS0wLjM1aDMuODRsMi4wMSwwLjM4bDAuNDEsMC41TDIyLjQxLDg1LjIyeiIvPiYjeGE7CQk8L2c+JiN4YTsJCTxnIGlkPSJzaGFwZTM3NS0yOCIgdHJhbnNmb3JtPSJ0cmFuc2xhdGUoNDIuOTk0MywtNzYuMjQxOCkiPiYjeGE7CQkJPHRpdGxlIGlkPSJ0aXRsZTE0OTQ2MSI+cGF0aDc5NzwvdGl0bGU+JiN4YTsJCQk8cGF0aCBpZD0icGF0aDE0OTQ2MyIgaW5rc2NhcGU6Y29ubmVjdG9yLWN1cnZhdHVyZT0iMCIgc3R5bGU9ImZpbGw6IzRGNEQ0QjsiIGQ9Ik0yNy42NCw4NC4zbC0yLjEtMi4xNGwtMy4wNy0yLjAybC00LjQtMS44MSAgICAgbC00LjAzLTAuNTloLTAuMDFsLTQuMDQsMC41OWwtMy42NywyLjI1bC0zLjQsMy4zOWwtMC42NywwLjE3TDAsOTAuMzVsMC4xNiw2Ljc3bDAuMzQsMS4yOWwxLjI3LDAuNTNsMC40NC04LjdsMi44MS0zLjk1ICAgICBsNi40MSwwLjdsMi4yOCwyLjExaDAuNjRsMi4yOC0yLjExbDYuNDEtMC43bDIuODIsMy45NWwwLjQzLDguN2wxLjI3LTAuNTNsMC4zNS0xLjI5bDAuNTktNi44M0wyNy42NCw4NC4zeiIvPiYjeGE7CQk8L2c+JiN4YTsJCTxnIGlkPSJzaGFwZTM3Ni0zMCIgdHJhbnNmb3JtPSJ0cmFuc2xhdGUoNTQuNzE0NSwtNjUuNDM3OSkiPiYjeGE7CQkJPHRpdGxlIGlkPSJ0aXRsZTE0OTQ2NiI+cGF0aDc5OTwvdGl0bGU+JiN4YTsJCQk8cGF0aCBpZD0icGF0aDE0OTQ2OCIgaW5rc2NhcGU6Y29ubmVjdG9yLWN1cnZhdHVyZT0iMCIgc3R5bGU9ImZpbGw6I0VDRDE4RjsiIGQ9Ik0xLjYxLDk4LjVsLTEtMC4yMUwwLDk4LjYybDAuNSwwLjMyTDEuNjEsOTguNSAgICAgeiBNMy4wNiw5OC41bDAuOTktMC4yMWwwLjYxLDAuMzNsLTAuNTEsMC4zMkwzLjA2LDk4LjV6Ii8+JiN4YTsJCTwvZz4mI3hhOwkJPGcgaWQ9InNoYXBlMzc3LTMyIiB0cmFuc2Zvcm09InRyYW5zbGF0ZSg0MS4wNTEsLTY2LjA4NzMpIj4mI3hhOwkJCTx0aXRsZSBpZD0idGl0bGUxNDk0NzEiPnBhdGg4MDE8L3RpdGxlPiYjeGE7CQkJPHBhdGggaWQ9InBhdGgxNDk0NzMiIGlua3NjYXBlOmNvbm5lY3Rvci1jdXJ2YXR1cmU9IjAiIHN0eWxlPSJmaWxsOiMzRjU3NjU7IiBkPSJNMy43Myw4Ny44MmwwLjA5LDQuOTFsMS4wOCwzLjQ1bDAuNDQsMi4zOCAgICAgbC0xLjY1LDAuMzhIMi40NWwtMC4xNC0wLjY5SDAuOTRMMCw5My4yM2wwLjUtNC43MmwwLjksMC4yN2wwLjA0LTAuOTlMMy43Myw4Ny44MnogTTI4LjIyLDg3LjgybC0wLjA5LDQuOTFsLTEuMDgsMy40NSAgICAgbC0wLjQzLDIuMzhsMS42NCwwLjM4aDEuMjRsMC4xNC0wLjY5aDEuMzdsMC45NC01LjAybC0wLjUtNC43MmwtMC45LDAuMjdsLTAuMDUtMC45OUwyOC4yMiw4Ny44MnoiLz4mI3hhOwkJPC9nPiYjeGE7CQk8ZyBpZD0ic2hhcGUzNzgtMzQiIHRyYW5zZm9ybT0idHJhbnNsYXRlKDIxLjQxNjYsLTMuNTM0MTkpIj4mI3hhOwkJCTx0aXRsZSBpZD0idGl0bGUxNDk0NzYiPnBhdGg4MDM8L3RpdGxlPiYjeGE7CQkJPHBhdGggaWQ9InBhdGgxNDk0NzgiIGlua3NjYXBlOmNvbm5lY3Rvci1jdXJ2YXR1cmU9IjAiIHN0eWxlPSJmaWxsOiMzRjU3NjU7IiBkPSJNMjAuMzYsMTUuNDFsLTEuOTcsOC45N2wwLjI0LDUuMDN2MS40ICAgICBsMC4zOCwxLjNsMC44NC0wLjMybDAuMTctMS4xMWwtMC4yNC0xLjMxbDAuMDUtNC43MWwxLjc1LTguNDJsNS4yNy02LjI1bDguNzYtMS40NFY3LjE2bC05LjM2LDEuNDhMMjAuMzYsMTUuNDF6IE01MC44NiwxNS40MSAgICAgbC01Ljg5LTYuNzdsLTkuMzYtMS40OHYxLjM5bDguNzYsMS40NGw1LjI3LDYuMjVsMS43NSw4LjQybDAuMDYsNC43MWwtMC4yNSwxLjMxbDAuMTgsMS4xMWwwLjgzLDAuMzJsMC4zOC0xLjN2LTEuNGwwLjI1LTUuMDMgICAgIEw1MC44NiwxNS40MXogTTksOTguOTRsLTcuMzYtMS4zMUwwLDkzLjA1bDMuNTQtMy4yNGw2LjMxLTEuMmw4LjA1LTI0LjI3bDIuMDEtMTMuMDRsNC4wNi02LjIybC0xLjE1LTkuMzJsMS0wLjE2bDEuMjIsOS43ICAgICBsLTQuMTgsNi4zOGwtMiwxMi45NGwtOC4yNCwyNC44N2wtNi42MSwxLjI1bC0yLjg0LDIuNmwxLjIyLDMuNGw2LjgsMS4yMUw5LDk4Ljk0eiIvPiYjeGE7CQk8L2c+JiN4YTsJCTxnIGlkPSJzaGFwZTM3OS0zNiIgdHJhbnNmb3JtPSJ0cmFuc2xhdGUoMzAuMjY3MiwtMS45ODM1OCkiPiYjeGE7CQkJPHRpdGxlIGlkPSJ0aXRsZTE0OTQ4MSI+cGF0aDgwNTwvdGl0bGU+JiN4YTsJCQk8cGF0aCBpZD0icGF0aDE0OTQ4MyIgaW5rc2NhcGU6Y29ubmVjdG9yLWN1cnZhdHVyZT0iMCIgc3R5bGU9ImZpbGw6IzRGNEQ0QjsiIGQ9Ik01MC42Miw2NS4xNUgxLjMyTDAsNjYuMzl2MzIuNTVoNTEuOTRWNjYuNDYgICAgIEw1MC42Miw2NS4xNXoiLz4mI3hhOwkJPC9nPiYjeGE7CQk8ZyBpZD0iZ3JvdXAzODAtMzgiIHRyYW5zZm9ybT0idHJhbnNsYXRlKDUxLjYyMDgsLTE0LjI2NTMpIj4mI3hhOwkJCTx0aXRsZSBpZD0idGl0bGUxNDk0ODYiPk1pY3Jvc29mdDwvdGl0bGU+JiN4YTsJCQk8ZyBpZD0ic2hhcGUzODEtMzkiIHRyYW5zZm9ybT0idHJhbnNsYXRlKDAsLTQuODYyOTEpIj4mI3hhOwkJCQk8dGl0bGUgaWQ9InRpdGxlMTQ5NDg4Ij5IVFRQIEFQSSBBcHA8L3RpdGxlPiYjeGE7CQkJCTxwYXRoIGlkPSJwYXRoMTQ5NDkwIiBpbmtzY2FwZTpjb25uZWN0b3ItY3VydmF0dXJlPSIwIiBzdHlsZT0iZmlsbDojRjI1MDIyOyIgZD0iTTAsOTQuNTd2NC4zN2g0LjM3di00LjM3SDB6Ii8+JiN4YTsJCQk8L2c+JiN4YTsJCQk8ZyBpZD0ic2hhcGUzODItNDEiIHRyYW5zZm9ybT0idHJhbnNsYXRlKDQuODYwMDYsLTQuODYyOTEpIj4mI3hhOwkJCQk8dGl0bGUgaWQ9InRpdGxlMTQ5NDkzIj5IVFRQIEFQSSBBcHAuMTQ2MTwvdGl0bGU+JiN4YTsJCQkJPHBhdGggaWQ9InBhdGgxNDk0OTUiIGlua3NjYXBlOmNvbm5lY3Rvci1jdXJ2YXR1cmU9IjAiIHN0eWxlPSJmaWxsOiM3RkJBMDA7IiBkPSJNMCw5NC41N3Y0LjM3aDQuMzd2LTQuMzdIMHoiLz4mI3hhOwkJCTwvZz4mI3hhOwkJCTxnIGlkPSJzaGFwZTM4My00MyIgdHJhbnNmb3JtPSJ0cmFuc2xhdGUoNC44NjAwNikiPiYjeGE7CQkJCTx0aXRsZSBpZD0idGl0bGUxNDk0OTgiPkhUVFAgQVBJIEFwcC4xNDYyPC90aXRsZT4mI3hhOwkJCQk8cGF0aCBpZD0icGF0aDE0OTUwMCIgaW5rc2NhcGU6Y29ubmVjdG9yLWN1cnZhdHVyZT0iMCIgc3R5bGU9ImZpbGw6I0ZGQjkwMDsiIGQ9Ik0wLDk0LjU3djQuMzdoNC4zN3YtNC4zN0gweiIvPiYjeGE7CQkJPC9nPiYjeGE7CQkJPGcgaWQ9InNoYXBlMzg0LTQ1Ij4mI3hhOwkJCQk8dGl0bGUgaWQ9InRpdGxlMTQ5NTAzIj5IVFRQIEFQSSBBcHAuMTQ2MzwvdGl0bGU+JiN4YTsJCQkJPHBhdGggaWQ9InBhdGgxNDk1MDUiIGlua3NjYXBlOmNvbm5lY3Rvci1jdXJ2YXR1cmU9IjAiIHN0eWxlPSJmaWxsOiMwMEE0RUY7IiBkPSJNMCw5NC41N3Y0LjM3aDQuMzd2LTQuMzdIMHoiLz4mI3hhOwkJCTwvZz4mI3hhOwkJPC9nPiYjeGE7CQk8ZyBpZD0iZ3JvdXAzODUtNDciIHRyYW5zZm9ybT0idHJhbnNsYXRlKDE1LjM4MzUsLTcwLjc0NDUpIj4mI3hhOwkJCTx0aXRsZSBpZD0idGl0bGUxNDk1MDkiPlZpc3VhbCBTdHVkaW88L3RpdGxlPiYjeGE7CQkJPGcgaWQ9InNoYXBlMzg2LTQ4Ij4mI3hhOwkJCQk8dGl0bGUgaWQ9InRpdGxlMTQ5NTExIj5TaGVldC4zODY8L3RpdGxlPiYjeGE7CQkJCTxwYXRoIGlkPSJwYXRoMTQ5NTEzIiBpbmtzY2FwZTpjb25uZWN0b3ItY3VydmF0dXJlPSIwIiBzdHlsZT0iZmlsbDojNjgyMTdBOyIgZD0iTTEzLjA5LDkzLjQ3bC00LjI2LTMuMzlsNC4yNi0zLjM4VjkzLjQ3eiAgICAgICBNMS45MSw5Mi41N3YtNC44NmwyLjMyLDIuNDlMMS45MSw5Mi41N3ogTTEzLjE4LDgxLjUybC02Ljc2LDYuNDNsLTQuMjQtMi45OEwwLDg1Ljc1djguNzNsMS41MSwxLjExbDQuNy0zLjU0bDYuOTEsNi44OSAgICAgIGw0LjI5LTEuNzRWODMuMjZMMTMuMTgsODEuNTJ6Ii8+JiN4YTsJCQk8L2c+JiN4YTsJCTwvZz4mI3hhOwk8L2c+JiN4YTs8L2c+JiN4YTs8L3N2Zz4=;" vertex="1" parent="1">
          <mxGeometry x="-77.66" y="1603.5" width="57.66" height="47" as="geometry" />
        </mxCell>
        <mxCell id="MxWDfC0iBpmXcdRfzme4-2097" value="Administrador" style="text;html=1;strokeColor=none;fillColor=none;align=center;verticalAlign=middle;whiteSpace=wrap;rounded=0;" vertex="1" parent="1">
          <mxGeometry x="6.5" y="1600.5" width="100.5" height="50" as="geometry" />
        </mxCell>
        <mxCell id="MxWDfC0iBpmXcdRfzme4-2098" value="" style="shape=image;verticalLabelPosition=bottom;labelBackgroundColor=#ffffff;verticalAlign=top;aspect=fixed;imageAspect=0;image=data:image/svg+xml,PHN2ZyB4bWxuczpjYz0iaHR0cDovL2NyZWF0aXZlY29tbW9ucy5vcmcvbnMjIiB4bWxuczpkYz0iaHR0cDovL3B1cmwub3JnL2RjL2VsZW1lbnRzLzEuMS8iIHhtbG5zOmlua3NjYXBlPSJodHRwOi8vd3d3Lmlua3NjYXBlLm9yZy9uYW1lc3BhY2VzL2lua3NjYXBlIiB4bWxuczpyZGY9Imh0dHA6Ly93d3cudzMub3JnLzE5OTkvMDIvMjItcmRmLXN5bnRheC1ucyMiIHhtbG5zOnNvZGlwb2RpPSJodHRwOi8vc29kaXBvZGkuc291cmNlZm9yZ2UubmV0L0RURC9zb2RpcG9kaS0wLmR0ZCIgeG1sbnM6c3ZnPSJodHRwOi8vd3d3LnczLm9yZy8yMDAwL3N2ZyIgeG1sbnM9Imh0dHA6Ly93d3cudzMub3JnLzIwMDAvc3ZnIiB4bWxuczp4bGluaz0iaHR0cDovL3d3dy53My5vcmcvMTk5OS94bGluayIgdmVyc2lvbj0iMS4xIiBpZD0ic3ZnMTQ5NTIwIiBpbmtzY2FwZTp2ZXJzaW9uPSIwLjkyLjMgKDI0MDU1NDYsIDIwMTgtMDMtMTEpIiBzb2RpcG9kaTpkb2NuYW1lPSJkZXZlbG9wZXIuc3ZnIiB4PSIwcHgiIHk9IjBweCIgdmlld0JveD0iMCAwIDExOS4yNCA5Ny40NCIgc3R5bGU9ImVuYWJsZS1iYWNrZ3JvdW5kOm5ldyAwIDAgMTE5LjI0IDk3LjQ0OyIgeG1sOnNwYWNlPSJwcmVzZXJ2ZSI+JiN4YTs8c29kaXBvZGk6bmFtZWR2aWV3IGJvcmRlcmNvbG9yPSIjNjY2NjY2IiBib3JkZXJvcGFjaXR5PSIxIiBmaXQtbWFyZ2luLWJvdHRvbT0iMCIgZml0LW1hcmdpbi1sZWZ0PSIwIiBmaXQtbWFyZ2luLXJpZ2h0PSIwIiBmaXQtbWFyZ2luLXRvcD0iMCIgZ3JpZHRvbGVyYW5jZT0iMTAiIGd1aWRldG9sZXJhbmNlPSIxMCIgaWQ9Im5hbWVkdmlldzE0OTUyMiIgaW5rc2NhcGU6Y3VycmVudC1sYXllcj0ic3ZnMTQ5NTIwIiBpbmtzY2FwZTpjeD0iNzkuNDkwMjQ1IiBpbmtzY2FwZTpjeT0iNjQuOTYxNzI4IiBpbmtzY2FwZTpwYWdlb3BhY2l0eT0iMCIgaW5rc2NhcGU6cGFnZXNoYWRvdz0iMiIgaW5rc2NhcGU6d2luZG93LWhlaWdodD0iMTAxNyIgaW5rc2NhcGU6d2luZG93LW1heGltaXplZD0iMSIgaW5rc2NhcGU6d2luZG93LXdpZHRoPSIxOTIwIiBpbmtzY2FwZTp3aW5kb3cteD0iLTgiIGlua3NjYXBlOndpbmRvdy15PSItOCIgaW5rc2NhcGU6em9vbT0iNi41NzIzODgyIiBvYmplY3R0b2xlcmFuY2U9IjEwIiBwYWdlY29sb3I9IiNmZmZmZmYiIHNob3dncmlkPSJmYWxzZSI+JiN4YTsJPC9zb2RpcG9kaTpuYW1lZHZpZXc+JiN4YTs8ZyBpZD0iZzE0OTUxOCIgdHJhbnNmb3JtPSJ0cmFuc2xhdGUoLTAuNzUsLTAuNzQ4MzMzNzUpIj4mI3hhOwk8dGl0bGUgaWQ9InRpdGxlMTQ5MzkyIj5QYWdlLTE8L3RpdGxlPiYjeGE7CTxnIGlkPSJncm91cDM2MS0xIiB0cmFuc2Zvcm09InRyYW5zbGF0ZSgwLjc1LC0wLjc1KSI+JiN4YTsJCTx0aXRsZSBpZD0idGl0bGUxNDkzOTQiPkRldmVsb3BlcjwvdGl0bGU+JiN4YTsJCTxnIGlkPSJzaGFwZTM2Mi0yIiB0cmFuc2Zvcm09InRyYW5zbGF0ZSgxMC43NzY4LC0zNS44NTcyKSI+JiN4YTsJCQk8dGl0bGUgaWQ9InRpdGxlMTQ5Mzk2Ij5wYXRoNzczLjE5MjE8L3RpdGxlPiYjeGE7CQkJPHBhdGggaWQ9InBhdGgxNDkzOTgiIGlua3NjYXBlOmNvbm5lY3Rvci1jdXJ2YXR1cmU9IjAiIHN0eWxlPSJmaWxsOiNFQ0QxOEY7IiBkPSJNMCw0Mi4wMmg2NC42OXY1Ni45MkgwVjQyLjAyeiIvPiYjeGE7CQk8L2c+JiN4YTsJCTxnIGlkPSJzaGFwZTM2My00Ij4mI3hhOwkJCTx0aXRsZSBpZD0idGl0bGUxNDk0MDEiPnBhdGg3NzM8L3RpdGxlPiYjeGE7CQkJPHBhdGggaWQ9InBhdGgxNDk0MDMiIGlua3NjYXBlOmNvbm5lY3Rvci1jdXJ2YXR1cmU9IjAiIHN0eWxlPSJmaWxsOiNDMzk3NEY7IiBkPSJNMCw4My42N2gxMTkuMjR2MTUuMjdIMFY4My42N3oiLz4mI3hhOwkJPC9nPiYjeGE7CQk8ZyBpZD0ic2hhcGUzNjQtNiIgdHJhbnNmb3JtPSJ0cmFuc2xhdGUoNDYuMjExMywtMjQuMTY1NCkiPiYjeGE7CQkJPHRpdGxlIGlkPSJ0aXRsZTE0OTQwNiI+cGF0aDc3NTwvdGl0bGU+JiN4YTsJCQk8cGF0aCBpZD0icGF0aDE0OTQwOCIgaW5rc2NhcGU6Y29ubmVjdG9yLWN1cnZhdHVyZT0iMCIgc3R5bGU9ImZpbGw6I0ZGRkZGRjsiIGQ9Ik0yMi4xMSw3My4yNmwtMy4yLTcuMjNsLTAuMzgtMC4wN0wxLjIxLDY4Ljc3ICAgICBMMCw3Mi42M2wwLjI5LDQuNzRsMTEuNDYsMjEuNTdsOC4yNi0xMy4yMkwyMi4xMSw3My4yNnoiLz4mI3hhOwkJPC9nPiYjeGE7CQk8ZyBpZD0ic2hhcGUzNjUtOCIgdHJhbnNmb3JtPSJ0cmFuc2xhdGUoNDcuNzk3MSwtMzkuNDY1MSkiPiYjeGE7CQkJPHRpdGxlIGlkPSJ0aXRsZTE0OTQxMSI+cGF0aDc3NzwvdGl0bGU+JiN4YTsJCQk8cGF0aCBpZD0icGF0aDE0OTQxMyIgaW5rc2NhcGU6Y29ubmVjdG9yLWN1cnZhdHVyZT0iMCIgc3R5bGU9ImZpbGw6I0VDRDE4RjsiIGQ9Ik0yLjE4LDc4LjVMMCw4NC43NGwxLjEyLDYuMDNMNC4yNSw5NSAgICAgbDQuODMsMy45NGwwLjE1LTE1LjAybC0xLjY5LTAuMTlMMi4xOCw3OC41eiIvPiYjeGE7CQk8L2c+JiN4YTsJCTxnIGlkPSJzaGFwZTM2Ni0xMCIgdHJhbnNmb3JtPSJ0cmFuc2xhdGUoNDkuNzE1MywtMzkuMjU4NykiPiYjeGE7CQkJPHRpdGxlIGlkPSJ0aXRsZTE0OTQxNiI+cGF0aDc3OTwvdGl0bGU+JiN4YTsJCQk8cGF0aCBpZD0icGF0aDE0OTQxOCIgaW5rc2NhcGU6Y29ubmVjdG9yLWN1cnZhdHVyZT0iMCIgc3R5bGU9ImZpbGw6I0YxRERBRTsiIGQ9Ik0xNC45NSw3Ny41NWwtNi4wMyw1LjM4bC0xLjY5LDAuMTlsLTEuNy0wLjE5ICAgICBsLTUuMjYtNC42NGwwLjE1LDcuNkwwLDkxLjU4bDIuMzMsMy4yMmw0Ljk2LDQuMTRoMC4wNGw0Ljk2LTQuMTRsMi4zMy0zLjIybDAuNTEtNS45MUwxNC45NSw3Ny41NXoiLz4mI3hhOwkJPC9nPiYjeGE7CQk8ZyBpZD0ic2hhcGUzNjctMTIiIHRyYW5zZm9ybT0idHJhbnNsYXRlKDE4LjI0OTksLTExLjc5MDcpIj4mI3hhOwkJCTx0aXRsZSBpZD0idGl0bGUxNDk0MjEiPnBhdGg3ODE8L3RpdGxlPiYjeGE7CQkJPHBhdGggaWQ9InBhdGgxNDk0MjMiIGlua3NjYXBlOmNvbm5lY3Rvci1jdXJ2YXR1cmU9IjAiIHN0eWxlPSJmaWxsOiMwMzgyQkU7IiBkPSJNNC40MSw2OC4xM2w2LjY3LTUuNzlsOC4yMy0yLjE2bDMuMjEtMS44NCAgICAgbDMuMzYtMC4zOGwzLjQyLTUuMTNsMi40My0yLjAxbC0yLjE4LDYuMjVsLTAuMDksMy42MWwwLjU2LDMuOThsMi4xMywzLjE2bDUuNjcsNC43NGwxLjg5LDEyLjQxbC0wLjU1LDEzLjk3TDEuNDIsOTUuMzNMMCw5Mi43OSAgICAgbDAuNjktOC4wNWwyLjM5LTQuNzJMNC40MSw2OC4xM3oiLz4mI3hhOwkJPC9nPiYjeGE7CQk8ZyBpZD0ic2hhcGUzNjgtMTQiIHRyYW5zZm9ybT0idHJhbnNsYXRlKDQyLjI2OTMsLTM1Ljk4MTMpIj4mI3hhOwkJCTx0aXRsZSBpZD0idGl0bGUxNDk0MjYiPnBhdGg3ODM8L3RpdGxlPiYjeGE7CQkJPHBhdGggaWQ9InBhdGgxNDk0MjgiIGlua3NjYXBlOmNvbm5lY3Rvci1jdXJ2YXR1cmU9IjAiIHN0eWxlPSJmaWxsOiMwMDcxQTY7IiBkPSJNMCw4Ny41NWwxLjktNS40bDMuMzgtNS4xM2wyLjQzLTIuMDEgICAgIGwtMi4xMyw2LjI1bC0wLjA5LDMuNjFsMC41NiwzLjk4bDIuMTMsMy4xNmw1LjYyLDQuNzRsLTEyLDIuMTlMMCw4Ny41NXoiLz4mI3hhOwkJPC9nPiYjeGE7CQk8ZyBpZD0ic2hhcGUzNjktMTYiIHRyYW5zZm9ybT0idHJhbnNsYXRlKDU3LjQxMywtMTEuNzkwNykiPiYjeGE7CQkJPHRpdGxlIGlkPSJ0aXRsZTE0OTQzMSI+cGF0aDc4NTwvdGl0bGU+JiN4YTsJCQk8cGF0aCBpZD0icGF0aDE0OTQzMyIgaW5rc2NhcGU6Y29ubmVjdG9yLWN1cnZhdHVyZT0iMCIgc3R5bGU9ImZpbGw6IzAzODJCRTsiIGQ9Ik0zMi4zLDY1Ljg0bC00LjgxLTIuODJMMjMsNjEuOWwtNC4yLTIuMSAgICAgbC01LjM5LTEuMzFsLTEuOTUtMC42NGwtMy43NS00LjE5bDEuMTQsMy40MWwwLjA4LDMuNjFsLTAuNTUsMy45OEw3LjcyLDY4LjVsLTUuNDgsNS4ybC0xLjcsMTEuMzVMMCw5OC45NGwzNS40OC0zLjU3bDEuMDMtMi4wNCAgICAgbC0xLjI2LTcuMWwtMC4xNi0xMS40NEwzMi4zLDY1Ljg0eiIvPiYjeGE7CQk8L2c+JiN4YTsJCTxnIGlkPSJzaGFwZTM3MC0xOCIgdHJhbnNmb3JtPSJ0cmFuc2xhdGUoNTkuNjg4NSwtMzcuMDI4NCkiPiYjeGE7CQkJPHRpdGxlIGlkPSJ0aXRsZTE0OTQzNiI+cGF0aDc4NzwvdGl0bGU+JiN4YTsJCQk8cGF0aCBpZD0icGF0aDE0OTQzOCIgaW5rc2NhcGU6Y29ubmVjdG9yLWN1cnZhdHVyZT0iMCIgc3R5bGU9ImZpbGw6IzAwNzFBNjsiIGQ9Ik0xMi42Miw4OC44MmwwLjQyLTIuN2wtMy44Ni0zLjAzbC0zLjc0LTQuMiAgICAgbDEuMDgsMy40MWwwLjA5LDMuNjFMNi4wNSw4OS45bC0wLjY5LDMuOUwwLDk4Ljk0bDE0LjItMC44NkwxMi42Miw4OC44MnoiLz4mI3hhOwkJPC9nPiYjeGE7CQk8ZyBpZD0ic2hhcGUzNzEtMjAiIHRyYW5zZm9ybT0idHJhbnNsYXRlKDE5LjY2OTYsLTExLjA4NTkpIj4mI3hhOwkJCTx0aXRsZSBpZD0idGl0bGUxNDk0NDEiPnBhdGg3ODk8L3RpdGxlPiYjeGE7CQkJPHBhdGggaWQ9InBhdGgxNDk0NDMiIGlua3NjYXBlOmNvbm5lY3Rvci1jdXJ2YXR1cmU9IjAiIHN0eWxlPSJmaWxsOiNGMUREQUU7IiBkPSJNNSw4Mi40M2wtNC4wNiwzLjVMMCw5Mi43MmwzLjQyLDIuOCAgICAgbDE5Ljg5LDMuNDJsMi44My02LjMxTDUsODIuNDN6IE02OC4yNiw4Mi40M2w0LjA3LDMuNWwwLjk0LDYuNzlsLTMuNDMsMi44bC0xOS44OSwzLjQybC0yLjgzLTYuMzFMNjguMjYsODIuNDN6Ii8+JiN4YTsJCTwvZz4mI3hhOwkJPGcgaWQ9InNoYXBlMzcyLTIyIiB0cmFuc2Zvcm09InRyYW5zbGF0ZSg0Mi44MDgsLTUzLjk3NDQpIj4mI3hhOwkJCTx0aXRsZSBpZD0idGl0bGUxNDk0NDYiPnBhdGg3OTE8L3RpdGxlPiYjeGE7CQkJPHBhdGggaWQ9InBhdGgxNDk0NDgiIGlua3NjYXBlOmNvbm5lY3Rvci1jdXJ2YXR1cmU9IjAiIHN0eWxlPSJmaWxsOiNGN0VCRDA7IiBkPSJNMjcuNzUsNzYuMTVsLTEuMjcsMC41MmwtMC4yOS0xMi44OSAgICAgbC0xMS45Ny0wLjE3aC0wLjAxTDIuMjUsNjMuNzhsLTAuMywxMi44OWwtMS4yNy0wLjUyTDAsNzYuMjVsMC4wNiw1Ljg5bDEuNTcsMy4zbDEuOTUsMS4wMWwxLjM4LDQuODZsMy4wMiwzLjY2bDQuNTUsMy43OCAgICAgbDEuNjgsMC4xOWgwLjAxbDEuNjktMC4xOWw0LjU0LTMuNzhsMy4wMy0zLjY2bDEuMzgtNC44NmwxLjk1LTEuMDFsMS41Ny0zLjNsMC4wNS01Ljg5TDI3Ljc1LDc2LjE1eiIvPiYjeGE7CQk8L2c+JiN4YTsJCTxnIGlkPSJzaGFwZTM3My0yNCIgdHJhbnNmb3JtPSJ0cmFuc2xhdGUoNDUuOTI5NCwtNTMuOTY5NCkiPiYjeGE7CQkJPHRpdGxlIGlkPSJ0aXRsZTE0OTQ1MSI+cGF0aDc5MzwvdGl0bGU+JiN4YTsJCQk8cGF0aCBpZD0icGF0aDE0OTQ1MyIgaW5rc2NhcGU6Y29ubmVjdG9yLWN1cnZhdHVyZT0iMCIgc3R5bGU9ImZpbGw6IzRGNEQ0QjsiIGQ9Ik0yMS42Niw4NC4xOWwtMC41LDEuNjdsLTEuODMsMy4yM2wtMi42LDEuNzEgICAgIGwtMS4wNS0xLjc3TDExLjEsODguMmwtNC42MSwwLjgzTDUuNDUsOTAuOGwtMi42MS0xLjcxbC0xLjgzLTMuMjNMMC41LDg0LjE5TDAsODQuMDdsMC40NiwyLjM4bDEuMzcsNC44NmwzLjAyLDMuNjZMOC44LDk4LjcgICAgIGwyLjI4LDAuMjRsMi4yOS0wLjI0bDMuOTQtMy43M2wzLjAyLTMuNjZsMS40MS00Ljg2bDAuNDQtMi4zOEwyMS42Niw4NC4xOXogTTEzLjYxLDk0Ljc2bC0xLjM5LDAuMTRsLTEtMC43SDEwLjlsLTEuMDEsMC43ICAgICBsLTEuMzgtMC4xNGwtMi4zMi0yLjA1bDAuODMtMi44MWw0LjAzLTAuMDhsNC4wMiwwLjA4bDAuODYsMi44M0wxMy42MSw5NC43NnoiLz4mI3hhOwkJPC9nPiYjeGE7CQk8ZyBpZD0ic2hhcGUzNzQtMjYiIHRyYW5zZm9ybT0idHJhbnNsYXRlKDQ0Ljc0MTIsLTU5LjUyMjQpIj4mI3hhOwkJCTx0aXRsZSBpZD0idGl0bGUxNDk0NTYiPnBhdGg3OTU8L3RpdGxlPiYjeGE7CQkJPHBhdGggaWQ9InBhdGgxNDk0NTgiIGlua3NjYXBlOmNvbm5lY3Rvci1jdXJ2YXR1cmU9IjAiIHN0eWxlPSJmaWxsOiM0RjRENEI7IiBkPSJNMTMuMjcsOTcuNzVIMTEuM2wwLjUsMC45MWwwLjQ4LDAuMjd2MC4wMSAgICAgdi0wLjAxbDAuMDEsMC4wMXYtMC4wMWwwLjQ4LTAuMjdMMTMuMjcsOTcuNzV6IE0yNC41Nyw4MS41M2wtMS43MiwwLjIybC0wLjE5LTAuMDdsLTIuMzUtMC40NmgtMy44OWwtMy41OSwwLjU4SDExLjdsLTMuNTktMC41OCAgICAgSDQuMjRMMS45LDgxLjY4bC0wLjE4LDAuMDZMMCw4MS41M3YwLjY5bDAuOTMsMC4xMmwwLjcsMy4yNmwwLjYxLDAuNjFsMS44NSwwLjQ2aDMuMTNsMi43NC0wLjYzbDEuNDEtMi4yNmwwLjU3LTAuNjRoMC42NSAgICAgbDAuNTcsMC42NGwxLjQxLDIuMjZsMi43NCwwLjYzaDMuMTNsMS44NS0wLjQ2bDAuNjEtMC42MWwwLjctMy4yNmwwLjkzLTAuMTJMMjQuNTcsODEuNTN6IE0xMC4zOSw4My4yOGwtMC43NywyLjE4bC0yLjU3LDAuNTUgICAgIEg0LjAzbC0xLjM3LTAuMzRsLTAuNTEtMC40NGwtMC4zNi0yLjQxbDAuNDEtMC41MWwyLjAxLTAuMzhoMy44NWwyLjM1LDAuMzZMMTAuMzksODMuMjh6IE0yMi40MSw4NS4yMmwtMC41MSwwLjQ0bC0xLjM2LDAuMzUgICAgIGgtMy4wM2wtMi41Ni0wLjU2bC0wLjc4LTIuMTZ2LTEuMDFsMi4zNS0wLjM1aDMuODRsMi4wMSwwLjM4bDAuNDEsMC41TDIyLjQxLDg1LjIyeiIvPiYjeGE7CQk8L2c+JiN4YTsJCTxnIGlkPSJzaGFwZTM3NS0yOCIgdHJhbnNmb3JtPSJ0cmFuc2xhdGUoNDIuOTk0MywtNzYuMjQxOCkiPiYjeGE7CQkJPHRpdGxlIGlkPSJ0aXRsZTE0OTQ2MSI+cGF0aDc5NzwvdGl0bGU+JiN4YTsJCQk8cGF0aCBpZD0icGF0aDE0OTQ2MyIgaW5rc2NhcGU6Y29ubmVjdG9yLWN1cnZhdHVyZT0iMCIgc3R5bGU9ImZpbGw6IzRGNEQ0QjsiIGQ9Ik0yNy42NCw4NC4zbC0yLjEtMi4xNGwtMy4wNy0yLjAybC00LjQtMS44MSAgICAgbC00LjAzLTAuNTloLTAuMDFsLTQuMDQsMC41OWwtMy42NywyLjI1bC0zLjQsMy4zOWwtMC42NywwLjE3TDAsOTAuMzVsMC4xNiw2Ljc3bDAuMzQsMS4yOWwxLjI3LDAuNTNsMC40NC04LjdsMi44MS0zLjk1ICAgICBsNi40MSwwLjdsMi4yOCwyLjExaDAuNjRsMi4yOC0yLjExbDYuNDEtMC43bDIuODIsMy45NWwwLjQzLDguN2wxLjI3LTAuNTNsMC4zNS0xLjI5bDAuNTktNi44M0wyNy42NCw4NC4zeiIvPiYjeGE7CQk8L2c+JiN4YTsJCTxnIGlkPSJzaGFwZTM3Ni0zMCIgdHJhbnNmb3JtPSJ0cmFuc2xhdGUoNTQuNzE0NSwtNjUuNDM3OSkiPiYjeGE7CQkJPHRpdGxlIGlkPSJ0aXRsZTE0OTQ2NiI+cGF0aDc5OTwvdGl0bGU+JiN4YTsJCQk8cGF0aCBpZD0icGF0aDE0OTQ2OCIgaW5rc2NhcGU6Y29ubmVjdG9yLWN1cnZhdHVyZT0iMCIgc3R5bGU9ImZpbGw6I0VDRDE4RjsiIGQ9Ik0xLjYxLDk4LjVsLTEtMC4yMUwwLDk4LjYybDAuNSwwLjMyTDEuNjEsOTguNSAgICAgeiBNMy4wNiw5OC41bDAuOTktMC4yMWwwLjYxLDAuMzNsLTAuNTEsMC4zMkwzLjA2LDk4LjV6Ii8+JiN4YTsJCTwvZz4mI3hhOwkJPGcgaWQ9InNoYXBlMzc3LTMyIiB0cmFuc2Zvcm09InRyYW5zbGF0ZSg0MS4wNTEsLTY2LjA4NzMpIj4mI3hhOwkJCTx0aXRsZSBpZD0idGl0bGUxNDk0NzEiPnBhdGg4MDE8L3RpdGxlPiYjeGE7CQkJPHBhdGggaWQ9InBhdGgxNDk0NzMiIGlua3NjYXBlOmNvbm5lY3Rvci1jdXJ2YXR1cmU9IjAiIHN0eWxlPSJmaWxsOiMzRjU3NjU7IiBkPSJNMy43Myw4Ny44MmwwLjA5LDQuOTFsMS4wOCwzLjQ1bDAuNDQsMi4zOCAgICAgbC0xLjY1LDAuMzhIMi40NWwtMC4xNC0wLjY5SDAuOTRMMCw5My4yM2wwLjUtNC43MmwwLjksMC4yN2wwLjA0LTAuOTlMMy43Myw4Ny44MnogTTI4LjIyLDg3LjgybC0wLjA5LDQuOTFsLTEuMDgsMy40NSAgICAgbC0wLjQzLDIuMzhsMS42NCwwLjM4aDEuMjRsMC4xNC0wLjY5aDEuMzdsMC45NC01LjAybC0wLjUtNC43MmwtMC45LDAuMjdsLTAuMDUtMC45OUwyOC4yMiw4Ny44MnoiLz4mI3hhOwkJPC9nPiYjeGE7CQk8ZyBpZD0ic2hhcGUzNzgtMzQiIHRyYW5zZm9ybT0idHJhbnNsYXRlKDIxLjQxNjYsLTMuNTM0MTkpIj4mI3hhOwkJCTx0aXRsZSBpZD0idGl0bGUxNDk0NzYiPnBhdGg4MDM8L3RpdGxlPiYjeGE7CQkJPHBhdGggaWQ9InBhdGgxNDk0NzgiIGlua3NjYXBlOmNvbm5lY3Rvci1jdXJ2YXR1cmU9IjAiIHN0eWxlPSJmaWxsOiMzRjU3NjU7IiBkPSJNMjAuMzYsMTUuNDFsLTEuOTcsOC45N2wwLjI0LDUuMDN2MS40ICAgICBsMC4zOCwxLjNsMC44NC0wLjMybDAuMTctMS4xMWwtMC4yNC0xLjMxbDAuMDUtNC43MWwxLjc1LTguNDJsNS4yNy02LjI1bDguNzYtMS40NFY3LjE2bC05LjM2LDEuNDhMMjAuMzYsMTUuNDF6IE01MC44NiwxNS40MSAgICAgbC01Ljg5LTYuNzdsLTkuMzYtMS40OHYxLjM5bDguNzYsMS40NGw1LjI3LDYuMjVsMS43NSw4LjQybDAuMDYsNC43MWwtMC4yNSwxLjMxbDAuMTgsMS4xMWwwLjgzLDAuMzJsMC4zOC0xLjN2LTEuNGwwLjI1LTUuMDMgICAgIEw1MC44NiwxNS40MXogTTksOTguOTRsLTcuMzYtMS4zMUwwLDkzLjA1bDMuNTQtMy4yNGw2LjMxLTEuMmw4LjA1LTI0LjI3bDIuMDEtMTMuMDRsNC4wNi02LjIybC0xLjE1LTkuMzJsMS0wLjE2bDEuMjIsOS43ICAgICBsLTQuMTgsNi4zOGwtMiwxMi45NGwtOC4yNCwyNC44N2wtNi42MSwxLjI1bC0yLjg0LDIuNmwxLjIyLDMuNGw2LjgsMS4yMUw5LDk4Ljk0eiIvPiYjeGE7CQk8L2c+JiN4YTsJCTxnIGlkPSJzaGFwZTM3OS0zNiIgdHJhbnNmb3JtPSJ0cmFuc2xhdGUoMzAuMjY3MiwtMS45ODM1OCkiPiYjeGE7CQkJPHRpdGxlIGlkPSJ0aXRsZTE0OTQ4MSI+cGF0aDgwNTwvdGl0bGU+JiN4YTsJCQk8cGF0aCBpZD0icGF0aDE0OTQ4MyIgaW5rc2NhcGU6Y29ubmVjdG9yLWN1cnZhdHVyZT0iMCIgc3R5bGU9ImZpbGw6IzRGNEQ0QjsiIGQ9Ik01MC42Miw2NS4xNUgxLjMyTDAsNjYuMzl2MzIuNTVoNTEuOTRWNjYuNDYgICAgIEw1MC42Miw2NS4xNXoiLz4mI3hhOwkJPC9nPiYjeGE7CQk8ZyBpZD0iZ3JvdXAzODAtMzgiIHRyYW5zZm9ybT0idHJhbnNsYXRlKDUxLjYyMDgsLTE0LjI2NTMpIj4mI3hhOwkJCTx0aXRsZSBpZD0idGl0bGUxNDk0ODYiPk1pY3Jvc29mdDwvdGl0bGU+JiN4YTsJCQk8ZyBpZD0ic2hhcGUzODEtMzkiIHRyYW5zZm9ybT0idHJhbnNsYXRlKDAsLTQuODYyOTEpIj4mI3hhOwkJCQk8dGl0bGUgaWQ9InRpdGxlMTQ5NDg4Ij5IVFRQIEFQSSBBcHA8L3RpdGxlPiYjeGE7CQkJCTxwYXRoIGlkPSJwYXRoMTQ5NDkwIiBpbmtzY2FwZTpjb25uZWN0b3ItY3VydmF0dXJlPSIwIiBzdHlsZT0iZmlsbDojRjI1MDIyOyIgZD0iTTAsOTQuNTd2NC4zN2g0LjM3di00LjM3SDB6Ii8+JiN4YTsJCQk8L2c+JiN4YTsJCQk8ZyBpZD0ic2hhcGUzODItNDEiIHRyYW5zZm9ybT0idHJhbnNsYXRlKDQuODYwMDYsLTQuODYyOTEpIj4mI3hhOwkJCQk8dGl0bGUgaWQ9InRpdGxlMTQ5NDkzIj5IVFRQIEFQSSBBcHAuMTQ2MTwvdGl0bGU+JiN4YTsJCQkJPHBhdGggaWQ9InBhdGgxNDk0OTUiIGlua3NjYXBlOmNvbm5lY3Rvci1jdXJ2YXR1cmU9IjAiIHN0eWxlPSJmaWxsOiM3RkJBMDA7IiBkPSJNMCw5NC41N3Y0LjM3aDQuMzd2LTQuMzdIMHoiLz4mI3hhOwkJCTwvZz4mI3hhOwkJCTxnIGlkPSJzaGFwZTM4My00MyIgdHJhbnNmb3JtPSJ0cmFuc2xhdGUoNC44NjAwNikiPiYjeGE7CQkJCTx0aXRsZSBpZD0idGl0bGUxNDk0OTgiPkhUVFAgQVBJIEFwcC4xNDYyPC90aXRsZT4mI3hhOwkJCQk8cGF0aCBpZD0icGF0aDE0OTUwMCIgaW5rc2NhcGU6Y29ubmVjdG9yLWN1cnZhdHVyZT0iMCIgc3R5bGU9ImZpbGw6I0ZGQjkwMDsiIGQ9Ik0wLDk0LjU3djQuMzdoNC4zN3YtNC4zN0gweiIvPiYjeGE7CQkJPC9nPiYjeGE7CQkJPGcgaWQ9InNoYXBlMzg0LTQ1Ij4mI3hhOwkJCQk8dGl0bGUgaWQ9InRpdGxlMTQ5NTAzIj5IVFRQIEFQSSBBcHAuMTQ2MzwvdGl0bGU+JiN4YTsJCQkJPHBhdGggaWQ9InBhdGgxNDk1MDUiIGlua3NjYXBlOmNvbm5lY3Rvci1jdXJ2YXR1cmU9IjAiIHN0eWxlPSJmaWxsOiMwMEE0RUY7IiBkPSJNMCw5NC41N3Y0LjM3aDQuMzd2LTQuMzdIMHoiLz4mI3hhOwkJCTwvZz4mI3hhOwkJPC9nPiYjeGE7CQk8ZyBpZD0iZ3JvdXAzODUtNDciIHRyYW5zZm9ybT0idHJhbnNsYXRlKDE1LjM4MzUsLTcwLjc0NDUpIj4mI3hhOwkJCTx0aXRsZSBpZD0idGl0bGUxNDk1MDkiPlZpc3VhbCBTdHVkaW88L3RpdGxlPiYjeGE7CQkJPGcgaWQ9InNoYXBlMzg2LTQ4Ij4mI3hhOwkJCQk8dGl0bGUgaWQ9InRpdGxlMTQ5NTExIj5TaGVldC4zODY8L3RpdGxlPiYjeGE7CQkJCTxwYXRoIGlkPSJwYXRoMTQ5NTEzIiBpbmtzY2FwZTpjb25uZWN0b3ItY3VydmF0dXJlPSIwIiBzdHlsZT0iZmlsbDojNjgyMTdBOyIgZD0iTTEzLjA5LDkzLjQ3bC00LjI2LTMuMzlsNC4yNi0zLjM4VjkzLjQ3eiAgICAgICBNMS45MSw5Mi41N3YtNC44NmwyLjMyLDIuNDlMMS45MSw5Mi41N3ogTTEzLjE4LDgxLjUybC02Ljc2LDYuNDNsLTQuMjQtMi45OEwwLDg1Ljc1djguNzNsMS41MSwxLjExbDQuNy0zLjU0bDYuOTEsNi44OSAgICAgIGw0LjI5LTEuNzRWODMuMjZMMTMuMTgsODEuNTJ6Ii8+JiN4YTsJCQk8L2c+JiN4YTsJCTwvZz4mI3hhOwk8L2c+JiN4YTs8L2c+JiN4YTs8L3N2Zz4=;" vertex="1" parent="1">
          <mxGeometry x="-80" y="1683.5" width="57.66" height="47" as="geometry" />
        </mxCell>
        <mxCell id="MxWDfC0iBpmXcdRfzme4-2099" value="Empleado" style="text;html=1;strokeColor=none;fillColor=none;align=center;verticalAlign=middle;whiteSpace=wrap;rounded=0;" vertex="1" parent="1">
          <mxGeometry x="6.5" y="1680" width="100.5" height="50" as="geometry" />
        </mxCell>
        <mxCell id="MxWDfC0iBpmXcdRfzme4-2100" value="" style="shape=image;verticalLabelPosition=bottom;labelBackgroundColor=#ffffff;verticalAlign=top;aspect=fixed;imageAspect=0;image=data:image/svg+xml,PHN2ZyB4bWxuczpjYz0iaHR0cDovL2NyZWF0aXZlY29tbW9ucy5vcmcvbnMjIiB4bWxuczpkYz0iaHR0cDovL3B1cmwub3JnL2RjL2VsZW1lbnRzLzEuMS8iIHhtbG5zOmlua3NjYXBlPSJodHRwOi8vd3d3Lmlua3NjYXBlLm9yZy9uYW1lc3BhY2VzL2lua3NjYXBlIiB4bWxuczpyZGY9Imh0dHA6Ly93d3cudzMub3JnLzE5OTkvMDIvMjItcmRmLXN5bnRheC1ucyMiIHhtbG5zOnNvZGlwb2RpPSJodHRwOi8vc29kaXBvZGkuc291cmNlZm9yZ2UubmV0L0RURC9zb2RpcG9kaS0wLmR0ZCIgeG1sbnM6c3ZnPSJodHRwOi8vd3d3LnczLm9yZy8yMDAwL3N2ZyIgeG1sbnM9Imh0dHA6Ly93d3cudzMub3JnLzIwMDAvc3ZnIiB4bWxuczp4bGluaz0iaHR0cDovL3d3dy53My5vcmcvMTk5OS94bGluayIgdmVyc2lvbj0iMS4xIiBpZD0ic3ZnMTQ5NTIwIiBpbmtzY2FwZTp2ZXJzaW9uPSIwLjkyLjMgKDI0MDU1NDYsIDIwMTgtMDMtMTEpIiBzb2RpcG9kaTpkb2NuYW1lPSJkZXZlbG9wZXIuc3ZnIiB4PSIwcHgiIHk9IjBweCIgdmlld0JveD0iMCAwIDExOS4yNCA5Ny40NCIgc3R5bGU9ImVuYWJsZS1iYWNrZ3JvdW5kOm5ldyAwIDAgMTE5LjI0IDk3LjQ0OyIgeG1sOnNwYWNlPSJwcmVzZXJ2ZSI+JiN4YTs8c29kaXBvZGk6bmFtZWR2aWV3IGJvcmRlcmNvbG9yPSIjNjY2NjY2IiBib3JkZXJvcGFjaXR5PSIxIiBmaXQtbWFyZ2luLWJvdHRvbT0iMCIgZml0LW1hcmdpbi1sZWZ0PSIwIiBmaXQtbWFyZ2luLXJpZ2h0PSIwIiBmaXQtbWFyZ2luLXRvcD0iMCIgZ3JpZHRvbGVyYW5jZT0iMTAiIGd1aWRldG9sZXJhbmNlPSIxMCIgaWQ9Im5hbWVkdmlldzE0OTUyMiIgaW5rc2NhcGU6Y3VycmVudC1sYXllcj0ic3ZnMTQ5NTIwIiBpbmtzY2FwZTpjeD0iNzkuNDkwMjQ1IiBpbmtzY2FwZTpjeT0iNjQuOTYxNzI4IiBpbmtzY2FwZTpwYWdlb3BhY2l0eT0iMCIgaW5rc2NhcGU6cGFnZXNoYWRvdz0iMiIgaW5rc2NhcGU6d2luZG93LWhlaWdodD0iMTAxNyIgaW5rc2NhcGU6d2luZG93LW1heGltaXplZD0iMSIgaW5rc2NhcGU6d2luZG93LXdpZHRoPSIxOTIwIiBpbmtzY2FwZTp3aW5kb3cteD0iLTgiIGlua3NjYXBlOndpbmRvdy15PSItOCIgaW5rc2NhcGU6em9vbT0iNi41NzIzODgyIiBvYmplY3R0b2xlcmFuY2U9IjEwIiBwYWdlY29sb3I9IiNmZmZmZmYiIHNob3dncmlkPSJmYWxzZSI+JiN4YTsJPC9zb2RpcG9kaTpuYW1lZHZpZXc+JiN4YTs8ZyBpZD0iZzE0OTUxOCIgdHJhbnNmb3JtPSJ0cmFuc2xhdGUoLTAuNzUsLTAuNzQ4MzMzNzUpIj4mI3hhOwk8dGl0bGUgaWQ9InRpdGxlMTQ5MzkyIj5QYWdlLTE8L3RpdGxlPiYjeGE7CTxnIGlkPSJncm91cDM2MS0xIiB0cmFuc2Zvcm09InRyYW5zbGF0ZSgwLjc1LC0wLjc1KSI+JiN4YTsJCTx0aXRsZSBpZD0idGl0bGUxNDkzOTQiPkRldmVsb3BlcjwvdGl0bGU+JiN4YTsJCTxnIGlkPSJzaGFwZTM2Mi0yIiB0cmFuc2Zvcm09InRyYW5zbGF0ZSgxMC43NzY4LC0zNS44NTcyKSI+JiN4YTsJCQk8dGl0bGUgaWQ9InRpdGxlMTQ5Mzk2Ij5wYXRoNzczLjE5MjE8L3RpdGxlPiYjeGE7CQkJPHBhdGggaWQ9InBhdGgxNDkzOTgiIGlua3NjYXBlOmNvbm5lY3Rvci1jdXJ2YXR1cmU9IjAiIHN0eWxlPSJmaWxsOiNFQ0QxOEY7IiBkPSJNMCw0Mi4wMmg2NC42OXY1Ni45MkgwVjQyLjAyeiIvPiYjeGE7CQk8L2c+JiN4YTsJCTxnIGlkPSJzaGFwZTM2My00Ij4mI3hhOwkJCTx0aXRsZSBpZD0idGl0bGUxNDk0MDEiPnBhdGg3NzM8L3RpdGxlPiYjeGE7CQkJPHBhdGggaWQ9InBhdGgxNDk0MDMiIGlua3NjYXBlOmNvbm5lY3Rvci1jdXJ2YXR1cmU9IjAiIHN0eWxlPSJmaWxsOiNDMzk3NEY7IiBkPSJNMCw4My42N2gxMTkuMjR2MTUuMjdIMFY4My42N3oiLz4mI3hhOwkJPC9nPiYjeGE7CQk8ZyBpZD0ic2hhcGUzNjQtNiIgdHJhbnNmb3JtPSJ0cmFuc2xhdGUoNDYuMjExMywtMjQuMTY1NCkiPiYjeGE7CQkJPHRpdGxlIGlkPSJ0aXRsZTE0OTQwNiI+cGF0aDc3NTwvdGl0bGU+JiN4YTsJCQk8cGF0aCBpZD0icGF0aDE0OTQwOCIgaW5rc2NhcGU6Y29ubmVjdG9yLWN1cnZhdHVyZT0iMCIgc3R5bGU9ImZpbGw6I0ZGRkZGRjsiIGQ9Ik0yMi4xMSw3My4yNmwtMy4yLTcuMjNsLTAuMzgtMC4wN0wxLjIxLDY4Ljc3ICAgICBMMCw3Mi42M2wwLjI5LDQuNzRsMTEuNDYsMjEuNTdsOC4yNi0xMy4yMkwyMi4xMSw3My4yNnoiLz4mI3hhOwkJPC9nPiYjeGE7CQk8ZyBpZD0ic2hhcGUzNjUtOCIgdHJhbnNmb3JtPSJ0cmFuc2xhdGUoNDcuNzk3MSwtMzkuNDY1MSkiPiYjeGE7CQkJPHRpdGxlIGlkPSJ0aXRsZTE0OTQxMSI+cGF0aDc3NzwvdGl0bGU+JiN4YTsJCQk8cGF0aCBpZD0icGF0aDE0OTQxMyIgaW5rc2NhcGU6Y29ubmVjdG9yLWN1cnZhdHVyZT0iMCIgc3R5bGU9ImZpbGw6I0VDRDE4RjsiIGQ9Ik0yLjE4LDc4LjVMMCw4NC43NGwxLjEyLDYuMDNMNC4yNSw5NSAgICAgbDQuODMsMy45NGwwLjE1LTE1LjAybC0xLjY5LTAuMTlMMi4xOCw3OC41eiIvPiYjeGE7CQk8L2c+JiN4YTsJCTxnIGlkPSJzaGFwZTM2Ni0xMCIgdHJhbnNmb3JtPSJ0cmFuc2xhdGUoNDkuNzE1MywtMzkuMjU4NykiPiYjeGE7CQkJPHRpdGxlIGlkPSJ0aXRsZTE0OTQxNiI+cGF0aDc3OTwvdGl0bGU+JiN4YTsJCQk8cGF0aCBpZD0icGF0aDE0OTQxOCIgaW5rc2NhcGU6Y29ubmVjdG9yLWN1cnZhdHVyZT0iMCIgc3R5bGU9ImZpbGw6I0YxRERBRTsiIGQ9Ik0xNC45NSw3Ny41NWwtNi4wMyw1LjM4bC0xLjY5LDAuMTlsLTEuNy0wLjE5ICAgICBsLTUuMjYtNC42NGwwLjE1LDcuNkwwLDkxLjU4bDIuMzMsMy4yMmw0Ljk2LDQuMTRoMC4wNGw0Ljk2LTQuMTRsMi4zMy0zLjIybDAuNTEtNS45MUwxNC45NSw3Ny41NXoiLz4mI3hhOwkJPC9nPiYjeGE7CQk8ZyBpZD0ic2hhcGUzNjctMTIiIHRyYW5zZm9ybT0idHJhbnNsYXRlKDE4LjI0OTksLTExLjc5MDcpIj4mI3hhOwkJCTx0aXRsZSBpZD0idGl0bGUxNDk0MjEiPnBhdGg3ODE8L3RpdGxlPiYjeGE7CQkJPHBhdGggaWQ9InBhdGgxNDk0MjMiIGlua3NjYXBlOmNvbm5lY3Rvci1jdXJ2YXR1cmU9IjAiIHN0eWxlPSJmaWxsOiMwMzgyQkU7IiBkPSJNNC40MSw2OC4xM2w2LjY3LTUuNzlsOC4yMy0yLjE2bDMuMjEtMS44NCAgICAgbDMuMzYtMC4zOGwzLjQyLTUuMTNsMi40My0yLjAxbC0yLjE4LDYuMjVsLTAuMDksMy42MWwwLjU2LDMuOThsMi4xMywzLjE2bDUuNjcsNC43NGwxLjg5LDEyLjQxbC0wLjU1LDEzLjk3TDEuNDIsOTUuMzNMMCw5Mi43OSAgICAgbDAuNjktOC4wNWwyLjM5LTQuNzJMNC40MSw2OC4xM3oiLz4mI3hhOwkJPC9nPiYjeGE7CQk8ZyBpZD0ic2hhcGUzNjgtMTQiIHRyYW5zZm9ybT0idHJhbnNsYXRlKDQyLjI2OTMsLTM1Ljk4MTMpIj4mI3hhOwkJCTx0aXRsZSBpZD0idGl0bGUxNDk0MjYiPnBhdGg3ODM8L3RpdGxlPiYjeGE7CQkJPHBhdGggaWQ9InBhdGgxNDk0MjgiIGlua3NjYXBlOmNvbm5lY3Rvci1jdXJ2YXR1cmU9IjAiIHN0eWxlPSJmaWxsOiMwMDcxQTY7IiBkPSJNMCw4Ny41NWwxLjktNS40bDMuMzgtNS4xM2wyLjQzLTIuMDEgICAgIGwtMi4xMyw2LjI1bC0wLjA5LDMuNjFsMC41NiwzLjk4bDIuMTMsMy4xNmw1LjYyLDQuNzRsLTEyLDIuMTlMMCw4Ny41NXoiLz4mI3hhOwkJPC9nPiYjeGE7CQk8ZyBpZD0ic2hhcGUzNjktMTYiIHRyYW5zZm9ybT0idHJhbnNsYXRlKDU3LjQxMywtMTEuNzkwNykiPiYjeGE7CQkJPHRpdGxlIGlkPSJ0aXRsZTE0OTQzMSI+cGF0aDc4NTwvdGl0bGU+JiN4YTsJCQk8cGF0aCBpZD0icGF0aDE0OTQzMyIgaW5rc2NhcGU6Y29ubmVjdG9yLWN1cnZhdHVyZT0iMCIgc3R5bGU9ImZpbGw6IzAzODJCRTsiIGQ9Ik0zMi4zLDY1Ljg0bC00LjgxLTIuODJMMjMsNjEuOWwtNC4yLTIuMSAgICAgbC01LjM5LTEuMzFsLTEuOTUtMC42NGwtMy43NS00LjE5bDEuMTQsMy40MWwwLjA4LDMuNjFsLTAuNTUsMy45OEw3LjcyLDY4LjVsLTUuNDgsNS4ybC0xLjcsMTEuMzVMMCw5OC45NGwzNS40OC0zLjU3bDEuMDMtMi4wNCAgICAgbC0xLjI2LTcuMWwtMC4xNi0xMS40NEwzMi4zLDY1Ljg0eiIvPiYjeGE7CQk8L2c+JiN4YTsJCTxnIGlkPSJzaGFwZTM3MC0xOCIgdHJhbnNmb3JtPSJ0cmFuc2xhdGUoNTkuNjg4NSwtMzcuMDI4NCkiPiYjeGE7CQkJPHRpdGxlIGlkPSJ0aXRsZTE0OTQzNiI+cGF0aDc4NzwvdGl0bGU+JiN4YTsJCQk8cGF0aCBpZD0icGF0aDE0OTQzOCIgaW5rc2NhcGU6Y29ubmVjdG9yLWN1cnZhdHVyZT0iMCIgc3R5bGU9ImZpbGw6IzAwNzFBNjsiIGQ9Ik0xMi42Miw4OC44MmwwLjQyLTIuN2wtMy44Ni0zLjAzbC0zLjc0LTQuMiAgICAgbDEuMDgsMy40MWwwLjA5LDMuNjFMNi4wNSw4OS45bC0wLjY5LDMuOUwwLDk4Ljk0bDE0LjItMC44NkwxMi42Miw4OC44MnoiLz4mI3hhOwkJPC9nPiYjeGE7CQk8ZyBpZD0ic2hhcGUzNzEtMjAiIHRyYW5zZm9ybT0idHJhbnNsYXRlKDE5LjY2OTYsLTExLjA4NTkpIj4mI3hhOwkJCTx0aXRsZSBpZD0idGl0bGUxNDk0NDEiPnBhdGg3ODk8L3RpdGxlPiYjeGE7CQkJPHBhdGggaWQ9InBhdGgxNDk0NDMiIGlua3NjYXBlOmNvbm5lY3Rvci1jdXJ2YXR1cmU9IjAiIHN0eWxlPSJmaWxsOiNGMUREQUU7IiBkPSJNNSw4Mi40M2wtNC4wNiwzLjVMMCw5Mi43MmwzLjQyLDIuOCAgICAgbDE5Ljg5LDMuNDJsMi44My02LjMxTDUsODIuNDN6IE02OC4yNiw4Mi40M2w0LjA3LDMuNWwwLjk0LDYuNzlsLTMuNDMsMi44bC0xOS44OSwzLjQybC0yLjgzLTYuMzFMNjguMjYsODIuNDN6Ii8+JiN4YTsJCTwvZz4mI3hhOwkJPGcgaWQ9InNoYXBlMzcyLTIyIiB0cmFuc2Zvcm09InRyYW5zbGF0ZSg0Mi44MDgsLTUzLjk3NDQpIj4mI3hhOwkJCTx0aXRsZSBpZD0idGl0bGUxNDk0NDYiPnBhdGg3OTE8L3RpdGxlPiYjeGE7CQkJPHBhdGggaWQ9InBhdGgxNDk0NDgiIGlua3NjYXBlOmNvbm5lY3Rvci1jdXJ2YXR1cmU9IjAiIHN0eWxlPSJmaWxsOiNGN0VCRDA7IiBkPSJNMjcuNzUsNzYuMTVsLTEuMjcsMC41MmwtMC4yOS0xMi44OSAgICAgbC0xMS45Ny0wLjE3aC0wLjAxTDIuMjUsNjMuNzhsLTAuMywxMi44OWwtMS4yNy0wLjUyTDAsNzYuMjVsMC4wNiw1Ljg5bDEuNTcsMy4zbDEuOTUsMS4wMWwxLjM4LDQuODZsMy4wMiwzLjY2bDQuNTUsMy43OCAgICAgbDEuNjgsMC4xOWgwLjAxbDEuNjktMC4xOWw0LjU0LTMuNzhsMy4wMy0zLjY2bDEuMzgtNC44NmwxLjk1LTEuMDFsMS41Ny0zLjNsMC4wNS01Ljg5TDI3Ljc1LDc2LjE1eiIvPiYjeGE7CQk8L2c+JiN4YTsJCTxnIGlkPSJzaGFwZTM3My0yNCIgdHJhbnNmb3JtPSJ0cmFuc2xhdGUoNDUuOTI5NCwtNTMuOTY5NCkiPiYjeGE7CQkJPHRpdGxlIGlkPSJ0aXRsZTE0OTQ1MSI+cGF0aDc5MzwvdGl0bGU+JiN4YTsJCQk8cGF0aCBpZD0icGF0aDE0OTQ1MyIgaW5rc2NhcGU6Y29ubmVjdG9yLWN1cnZhdHVyZT0iMCIgc3R5bGU9ImZpbGw6IzRGNEQ0QjsiIGQ9Ik0yMS42Niw4NC4xOWwtMC41LDEuNjdsLTEuODMsMy4yM2wtMi42LDEuNzEgICAgIGwtMS4wNS0xLjc3TDExLjEsODguMmwtNC42MSwwLjgzTDUuNDUsOTAuOGwtMi42MS0xLjcxbC0xLjgzLTMuMjNMMC41LDg0LjE5TDAsODQuMDdsMC40NiwyLjM4bDEuMzcsNC44NmwzLjAyLDMuNjZMOC44LDk4LjcgICAgIGwyLjI4LDAuMjRsMi4yOS0wLjI0bDMuOTQtMy43M2wzLjAyLTMuNjZsMS40MS00Ljg2bDAuNDQtMi4zOEwyMS42Niw4NC4xOXogTTEzLjYxLDk0Ljc2bC0xLjM5LDAuMTRsLTEtMC43SDEwLjlsLTEuMDEsMC43ICAgICBsLTEuMzgtMC4xNGwtMi4zMi0yLjA1bDAuODMtMi44MWw0LjAzLTAuMDhsNC4wMiwwLjA4bDAuODYsMi44M0wxMy42MSw5NC43NnoiLz4mI3hhOwkJPC9nPiYjeGE7CQk8ZyBpZD0ic2hhcGUzNzQtMjYiIHRyYW5zZm9ybT0idHJhbnNsYXRlKDQ0Ljc0MTIsLTU5LjUyMjQpIj4mI3hhOwkJCTx0aXRsZSBpZD0idGl0bGUxNDk0NTYiPnBhdGg3OTU8L3RpdGxlPiYjeGE7CQkJPHBhdGggaWQ9InBhdGgxNDk0NTgiIGlua3NjYXBlOmNvbm5lY3Rvci1jdXJ2YXR1cmU9IjAiIHN0eWxlPSJmaWxsOiM0RjRENEI7IiBkPSJNMTMuMjcsOTcuNzVIMTEuM2wwLjUsMC45MWwwLjQ4LDAuMjd2MC4wMSAgICAgdi0wLjAxbDAuMDEsMC4wMXYtMC4wMWwwLjQ4LTAuMjdMMTMuMjcsOTcuNzV6IE0yNC41Nyw4MS41M2wtMS43MiwwLjIybC0wLjE5LTAuMDdsLTIuMzUtMC40NmgtMy44OWwtMy41OSwwLjU4SDExLjdsLTMuNTktMC41OCAgICAgSDQuMjRMMS45LDgxLjY4bC0wLjE4LDAuMDZMMCw4MS41M3YwLjY5bDAuOTMsMC4xMmwwLjcsMy4yNmwwLjYxLDAuNjFsMS44NSwwLjQ2aDMuMTNsMi43NC0wLjYzbDEuNDEtMi4yNmwwLjU3LTAuNjRoMC42NSAgICAgbDAuNTcsMC42NGwxLjQxLDIuMjZsMi43NCwwLjYzaDMuMTNsMS44NS0wLjQ2bDAuNjEtMC42MWwwLjctMy4yNmwwLjkzLTAuMTJMMjQuNTcsODEuNTN6IE0xMC4zOSw4My4yOGwtMC43NywyLjE4bC0yLjU3LDAuNTUgICAgIEg0LjAzbC0xLjM3LTAuMzRsLTAuNTEtMC40NGwtMC4zNi0yLjQxbDAuNDEtMC41MWwyLjAxLTAuMzhoMy44NWwyLjM1LDAuMzZMMTAuMzksODMuMjh6IE0yMi40MSw4NS4yMmwtMC41MSwwLjQ0bC0xLjM2LDAuMzUgICAgIGgtMy4wM2wtMi41Ni0wLjU2bC0wLjc4LTIuMTZ2LTEuMDFsMi4zNS0wLjM1aDMuODRsMi4wMSwwLjM4bDAuNDEsMC41TDIyLjQxLDg1LjIyeiIvPiYjeGE7CQk8L2c+JiN4YTsJCTxnIGlkPSJzaGFwZTM3NS0yOCIgdHJhbnNmb3JtPSJ0cmFuc2xhdGUoNDIuOTk0MywtNzYuMjQxOCkiPiYjeGE7CQkJPHRpdGxlIGlkPSJ0aXRsZTE0OTQ2MSI+cGF0aDc5NzwvdGl0bGU+JiN4YTsJCQk8cGF0aCBpZD0icGF0aDE0OTQ2MyIgaW5rc2NhcGU6Y29ubmVjdG9yLWN1cnZhdHVyZT0iMCIgc3R5bGU9ImZpbGw6IzRGNEQ0QjsiIGQ9Ik0yNy42NCw4NC4zbC0yLjEtMi4xNGwtMy4wNy0yLjAybC00LjQtMS44MSAgICAgbC00LjAzLTAuNTloLTAuMDFsLTQuMDQsMC41OWwtMy42NywyLjI1bC0zLjQsMy4zOWwtMC42NywwLjE3TDAsOTAuMzVsMC4xNiw2Ljc3bDAuMzQsMS4yOWwxLjI3LDAuNTNsMC40NC04LjdsMi44MS0zLjk1ICAgICBsNi40MSwwLjdsMi4yOCwyLjExaDAuNjRsMi4yOC0yLjExbDYuNDEtMC43bDIuODIsMy45NWwwLjQzLDguN2wxLjI3LTAuNTNsMC4zNS0xLjI5bDAuNTktNi44M0wyNy42NCw4NC4zeiIvPiYjeGE7CQk8L2c+JiN4YTsJCTxnIGlkPSJzaGFwZTM3Ni0zMCIgdHJhbnNmb3JtPSJ0cmFuc2xhdGUoNTQuNzE0NSwtNjUuNDM3OSkiPiYjeGE7CQkJPHRpdGxlIGlkPSJ0aXRsZTE0OTQ2NiI+cGF0aDc5OTwvdGl0bGU+JiN4YTsJCQk8cGF0aCBpZD0icGF0aDE0OTQ2OCIgaW5rc2NhcGU6Y29ubmVjdG9yLWN1cnZhdHVyZT0iMCIgc3R5bGU9ImZpbGw6I0VDRDE4RjsiIGQ9Ik0xLjYxLDk4LjVsLTEtMC4yMUwwLDk4LjYybDAuNSwwLjMyTDEuNjEsOTguNSAgICAgeiBNMy4wNiw5OC41bDAuOTktMC4yMWwwLjYxLDAuMzNsLTAuNTEsMC4zMkwzLjA2LDk4LjV6Ii8+JiN4YTsJCTwvZz4mI3hhOwkJPGcgaWQ9InNoYXBlMzc3LTMyIiB0cmFuc2Zvcm09InRyYW5zbGF0ZSg0MS4wNTEsLTY2LjA4NzMpIj4mI3hhOwkJCTx0aXRsZSBpZD0idGl0bGUxNDk0NzEiPnBhdGg4MDE8L3RpdGxlPiYjeGE7CQkJPHBhdGggaWQ9InBhdGgxNDk0NzMiIGlua3NjYXBlOmNvbm5lY3Rvci1jdXJ2YXR1cmU9IjAiIHN0eWxlPSJmaWxsOiMzRjU3NjU7IiBkPSJNMy43Myw4Ny44MmwwLjA5LDQuOTFsMS4wOCwzLjQ1bDAuNDQsMi4zOCAgICAgbC0xLjY1LDAuMzhIMi40NWwtMC4xNC0wLjY5SDAuOTRMMCw5My4yM2wwLjUtNC43MmwwLjksMC4yN2wwLjA0LTAuOTlMMy43Myw4Ny44MnogTTI4LjIyLDg3LjgybC0wLjA5LDQuOTFsLTEuMDgsMy40NSAgICAgbC0wLjQzLDIuMzhsMS42NCwwLjM4aDEuMjRsMC4xNC0wLjY5aDEuMzdsMC45NC01LjAybC0wLjUtNC43MmwtMC45LDAuMjdsLTAuMDUtMC45OUwyOC4yMiw4Ny44MnoiLz4mI3hhOwkJPC9nPiYjeGE7CQk8ZyBpZD0ic2hhcGUzNzgtMzQiIHRyYW5zZm9ybT0idHJhbnNsYXRlKDIxLjQxNjYsLTMuNTM0MTkpIj4mI3hhOwkJCTx0aXRsZSBpZD0idGl0bGUxNDk0NzYiPnBhdGg4MDM8L3RpdGxlPiYjeGE7CQkJPHBhdGggaWQ9InBhdGgxNDk0NzgiIGlua3NjYXBlOmNvbm5lY3Rvci1jdXJ2YXR1cmU9IjAiIHN0eWxlPSJmaWxsOiMzRjU3NjU7IiBkPSJNMjAuMzYsMTUuNDFsLTEuOTcsOC45N2wwLjI0LDUuMDN2MS40ICAgICBsMC4zOCwxLjNsMC44NC0wLjMybDAuMTctMS4xMWwtMC4yNC0xLjMxbDAuMDUtNC43MWwxLjc1LTguNDJsNS4yNy02LjI1bDguNzYtMS40NFY3LjE2bC05LjM2LDEuNDhMMjAuMzYsMTUuNDF6IE01MC44NiwxNS40MSAgICAgbC01Ljg5LTYuNzdsLTkuMzYtMS40OHYxLjM5bDguNzYsMS40NGw1LjI3LDYuMjVsMS43NSw4LjQybDAuMDYsNC43MWwtMC4yNSwxLjMxbDAuMTgsMS4xMWwwLjgzLDAuMzJsMC4zOC0xLjN2LTEuNGwwLjI1LTUuMDMgICAgIEw1MC44NiwxNS40MXogTTksOTguOTRsLTcuMzYtMS4zMUwwLDkzLjA1bDMuNTQtMy4yNGw2LjMxLTEuMmw4LjA1LTI0LjI3bDIuMDEtMTMuMDRsNC4wNi02LjIybC0xLjE1LTkuMzJsMS0wLjE2bDEuMjIsOS43ICAgICBsLTQuMTgsNi4zOGwtMiwxMi45NGwtOC4yNCwyNC44N2wtNi42MSwxLjI1bC0yLjg0LDIuNmwxLjIyLDMuNGw2LjgsMS4yMUw5LDk4Ljk0eiIvPiYjeGE7CQk8L2c+JiN4YTsJCTxnIGlkPSJzaGFwZTM3OS0zNiIgdHJhbnNmb3JtPSJ0cmFuc2xhdGUoMzAuMjY3MiwtMS45ODM1OCkiPiYjeGE7CQkJPHRpdGxlIGlkPSJ0aXRsZTE0OTQ4MSI+cGF0aDgwNTwvdGl0bGU+JiN4YTsJCQk8cGF0aCBpZD0icGF0aDE0OTQ4MyIgaW5rc2NhcGU6Y29ubmVjdG9yLWN1cnZhdHVyZT0iMCIgc3R5bGU9ImZpbGw6IzRGNEQ0QjsiIGQ9Ik01MC42Miw2NS4xNUgxLjMyTDAsNjYuMzl2MzIuNTVoNTEuOTRWNjYuNDYgICAgIEw1MC42Miw2NS4xNXoiLz4mI3hhOwkJPC9nPiYjeGE7CQk8ZyBpZD0iZ3JvdXAzODAtMzgiIHRyYW5zZm9ybT0idHJhbnNsYXRlKDUxLjYyMDgsLTE0LjI2NTMpIj4mI3hhOwkJCTx0aXRsZSBpZD0idGl0bGUxNDk0ODYiPk1pY3Jvc29mdDwvdGl0bGU+JiN4YTsJCQk8ZyBpZD0ic2hhcGUzODEtMzkiIHRyYW5zZm9ybT0idHJhbnNsYXRlKDAsLTQuODYyOTEpIj4mI3hhOwkJCQk8dGl0bGUgaWQ9InRpdGxlMTQ5NDg4Ij5IVFRQIEFQSSBBcHA8L3RpdGxlPiYjeGE7CQkJCTxwYXRoIGlkPSJwYXRoMTQ5NDkwIiBpbmtzY2FwZTpjb25uZWN0b3ItY3VydmF0dXJlPSIwIiBzdHlsZT0iZmlsbDojRjI1MDIyOyIgZD0iTTAsOTQuNTd2NC4zN2g0LjM3di00LjM3SDB6Ii8+JiN4YTsJCQk8L2c+JiN4YTsJCQk8ZyBpZD0ic2hhcGUzODItNDEiIHRyYW5zZm9ybT0idHJhbnNsYXRlKDQuODYwMDYsLTQuODYyOTEpIj4mI3hhOwkJCQk8dGl0bGUgaWQ9InRpdGxlMTQ5NDkzIj5IVFRQIEFQSSBBcHAuMTQ2MTwvdGl0bGU+JiN4YTsJCQkJPHBhdGggaWQ9InBhdGgxNDk0OTUiIGlua3NjYXBlOmNvbm5lY3Rvci1jdXJ2YXR1cmU9IjAiIHN0eWxlPSJmaWxsOiM3RkJBMDA7IiBkPSJNMCw5NC41N3Y0LjM3aDQuMzd2LTQuMzdIMHoiLz4mI3hhOwkJCTwvZz4mI3hhOwkJCTxnIGlkPSJzaGFwZTM4My00MyIgdHJhbnNmb3JtPSJ0cmFuc2xhdGUoNC44NjAwNikiPiYjeGE7CQkJCTx0aXRsZSBpZD0idGl0bGUxNDk0OTgiPkhUVFAgQVBJIEFwcC4xNDYyPC90aXRsZT4mI3hhOwkJCQk8cGF0aCBpZD0icGF0aDE0OTUwMCIgaW5rc2NhcGU6Y29ubmVjdG9yLWN1cnZhdHVyZT0iMCIgc3R5bGU9ImZpbGw6I0ZGQjkwMDsiIGQ9Ik0wLDk0LjU3djQuMzdoNC4zN3YtNC4zN0gweiIvPiYjeGE7CQkJPC9nPiYjeGE7CQkJPGcgaWQ9InNoYXBlMzg0LTQ1Ij4mI3hhOwkJCQk8dGl0bGUgaWQ9InRpdGxlMTQ5NTAzIj5IVFRQIEFQSSBBcHAuMTQ2MzwvdGl0bGU+JiN4YTsJCQkJPHBhdGggaWQ9InBhdGgxNDk1MDUiIGlua3NjYXBlOmNvbm5lY3Rvci1jdXJ2YXR1cmU9IjAiIHN0eWxlPSJmaWxsOiMwMEE0RUY7IiBkPSJNMCw5NC41N3Y0LjM3aDQuMzd2LTQuMzdIMHoiLz4mI3hhOwkJCTwvZz4mI3hhOwkJPC9nPiYjeGE7CQk8ZyBpZD0iZ3JvdXAzODUtNDciIHRyYW5zZm9ybT0idHJhbnNsYXRlKDE1LjM4MzUsLTcwLjc0NDUpIj4mI3hhOwkJCTx0aXRsZSBpZD0idGl0bGUxNDk1MDkiPlZpc3VhbCBTdHVkaW88L3RpdGxlPiYjeGE7CQkJPGcgaWQ9InNoYXBlMzg2LTQ4Ij4mI3hhOwkJCQk8dGl0bGUgaWQ9InRpdGxlMTQ5NTExIj5TaGVldC4zODY8L3RpdGxlPiYjeGE7CQkJCTxwYXRoIGlkPSJwYXRoMTQ5NTEzIiBpbmtzY2FwZTpjb25uZWN0b3ItY3VydmF0dXJlPSIwIiBzdHlsZT0iZmlsbDojNjgyMTdBOyIgZD0iTTEzLjA5LDkzLjQ3bC00LjI2LTMuMzlsNC4yNi0zLjM4VjkzLjQ3eiAgICAgICBNMS45MSw5Mi41N3YtNC44NmwyLjMyLDIuNDlMMS45MSw5Mi41N3ogTTEzLjE4LDgxLjUybC02Ljc2LDYuNDNsLTQuMjQtMi45OEwwLDg1Ljc1djguNzNsMS41MSwxLjExbDQuNy0zLjU0bDYuOTEsNi44OSAgICAgIGw0LjI5LTEuNzRWODMuMjZMMTMuMTgsODEuNTJ6Ii8+JiN4YTsJCQk8L2c+JiN4YTsJCTwvZz4mI3hhOwk8L2c+JiN4YTs8L2c+JiN4YTs8L3N2Zz4=;" vertex="1" parent="1">
          <mxGeometry x="-79.99999999999999" y="1790" width="57.66" height="47" as="geometry" />
        </mxCell>
        <mxCell id="MxWDfC0iBpmXcdRfzme4-2101" value="Cliente" style="text;html=1;strokeColor=none;fillColor=none;align=center;verticalAlign=middle;whiteSpace=wrap;rounded=0;" vertex="1" parent="1">
          <mxGeometry x="6.5" y="1787" width="100.5" height="50" as="geometry" />
        </mxCell>
        <mxCell id="MxWDfC0iBpmXcdRfzme4-2104" value="Botones" style="whiteSpace=wrap;html=1;" vertex="1" parent="1">
          <mxGeometry x="98" y="2520" width="120" height="60" as="geometry" />
        </mxCell>
        <mxCell id="MxWDfC0iBpmXcdRfzme4-2106" value="Botones" style="whiteSpace=wrap;html=1;" vertex="1" parent="1">
          <mxGeometry x="487" y="2500" width="120" height="60" as="geometry" />
        </mxCell>
        <mxCell id="MxWDfC0iBpmXcdRfzme4-2116" style="edgeStyle=orthogonalEdgeStyle;rounded=0;orthogonalLoop=1;jettySize=auto;html=1;" edge="1" parent="1" source="MxWDfC0iBpmXcdRfzme4-2108" target="MxWDfC0iBpmXcdRfzme4-2109">
          <mxGeometry relative="1" as="geometry" />
        </mxCell>
        <mxCell id="MxWDfC0iBpmXcdRfzme4-2118" value="" style="edgeStyle=orthogonalEdgeStyle;rounded=0;orthogonalLoop=1;jettySize=auto;html=1;" edge="1" parent="1" source="MxWDfC0iBpmXcdRfzme4-2108" target="MxWDfC0iBpmXcdRfzme4-2110">
          <mxGeometry relative="1" as="geometry" />
        </mxCell>
        <mxCell id="MxWDfC0iBpmXcdRfzme4-2119" style="edgeStyle=orthogonalEdgeStyle;rounded=0;orthogonalLoop=1;jettySize=auto;html=1;" edge="1" parent="1" source="MxWDfC0iBpmXcdRfzme4-2108" target="MxWDfC0iBpmXcdRfzme4-2111">
          <mxGeometry relative="1" as="geometry" />
        </mxCell>
        <mxCell id="MxWDfC0iBpmXcdRfzme4-2108" value="Dashboard" style="aspect=fixed;html=1;points=[];align=center;image;fontSize=12;image=img/lib/azure2/general/Dashboard.svg;" vertex="1" parent="1">
          <mxGeometry x="560.41" y="1820" width="99.17" height="70" as="geometry" />
        </mxCell>
        <mxCell id="MxWDfC0iBpmXcdRfzme4-2109" value="Buttons&lt;br&gt;" style="sketch=0;aspect=fixed;html=1;points=[];align=center;image;fontSize=12;image=img/lib/mscae/Shared_Dashboard.svg;" vertex="1" parent="1">
          <mxGeometry x="360" y="1960" width="73.18" height="60" as="geometry" />
        </mxCell>
        <mxCell id="MxWDfC0iBpmXcdRfzme4-2110" value="PieChart" style="sketch=0;aspect=fixed;html=1;points=[];align=center;image;fontSize=12;image=img/lib/mscae/Shared_Dashboard.svg;" vertex="1" parent="1">
          <mxGeometry x="572.8" y="1960" width="74.39" height="61" as="geometry" />
        </mxCell>
        <mxCell id="MxWDfC0iBpmXcdRfzme4-2111" value="BarChart" style="sketch=0;aspect=fixed;html=1;points=[];align=center;image;fontSize=12;image=img/lib/mscae/Shared_Dashboard.svg;" vertex="1" parent="1">
          <mxGeometry x="799" y="1960" width="70" height="57.4" as="geometry" />
        </mxCell>
        <mxCell id="MxWDfC0iBpmXcdRfzme4-2113" style="edgeStyle=orthogonalEdgeStyle;rounded=0;orthogonalLoop=1;jettySize=auto;html=1;exitX=0.5;exitY=1;exitDx=0;exitDy=0;exitPerimeter=0;" edge="1" parent="1" source="MxWDfC0iBpmXcdRfzme4-2112" target="MxWDfC0iBpmXcdRfzme4-2108">
          <mxGeometry relative="1" as="geometry" />
        </mxCell>
        <mxCell id="MxWDfC0iBpmXcdRfzme4-2112" value="Login" style="html=1;strokeColor=none;fillColor=#0079D6;labelPosition=center;verticalLabelPosition=middle;verticalAlign=top;align=center;fontSize=12;outlineConnect=0;spacingTop=-6;fontColor=#FFFFFF;sketch=0;shape=mxgraph.sitemap.login;" vertex="1" parent="1">
          <mxGeometry x="550" y="1640" width="120" height="70" as="geometry" />
        </mxCell>
        <mxCell id="MxWDfC0iBpmXcdRfzme4-2121" value="Procesar ordenes" style="sketch=0;pointerEvents=1;shadow=0;dashed=0;html=1;strokeColor=none;fillColor=#005F4B;labelPosition=center;verticalLabelPosition=bottom;verticalAlign=top;align=center;outlineConnect=0;shape=mxgraph.veeam2.report;opacity=70;" vertex="1" parent="1">
          <mxGeometry x="259" y="2130" width="28.000000000000004" height="39" as="geometry" />
        </mxCell>
        <mxCell id="MxWDfC0iBpmXcdRfzme4-2123" value="Recibir ordenes" style="sketch=0;pointerEvents=1;shadow=0;dashed=0;html=1;strokeColor=none;fillColor=#005F4B;labelPosition=center;verticalLabelPosition=bottom;verticalAlign=top;align=center;outlineConnect=0;shape=mxgraph.veeam2.report;opacity=70;" vertex="1" parent="1">
          <mxGeometry x="400" y="2130" width="28.000000000000004" height="39" as="geometry" />
        </mxCell>
        <mxCell id="MxWDfC0iBpmXcdRfzme4-2124" value="Generar Factura" style="sketch=0;pointerEvents=1;shadow=0;dashed=0;html=1;strokeColor=none;fillColor=#005F4B;labelPosition=center;verticalLabelPosition=bottom;verticalAlign=top;align=center;outlineConnect=0;shape=mxgraph.veeam2.report;opacity=70;" vertex="1" parent="1">
          <mxGeometry x="540" y="2130" width="28.000000000000004" height="39" as="geometry" />
        </mxCell>
        <mxCell id="MxWDfC0iBpmXcdRfzme4-2125" value="Listado de ordenes por cliente" style="sketch=0;pointerEvents=1;shadow=0;dashed=0;html=1;strokeColor=none;fillColor=#005F4B;labelPosition=center;verticalLabelPosition=bottom;verticalAlign=top;align=center;outlineConnect=0;shape=mxgraph.veeam2.report;opacity=70;" vertex="1" parent="1">
          <mxGeometry x="715" y="2130" width="28.000000000000004" height="39" as="geometry" />
        </mxCell>
        <mxCell id="MxWDfC0iBpmXcdRfzme4-2127" value="Listado de ordenes admin" style="sketch=0;pointerEvents=1;shadow=0;dashed=0;html=1;strokeColor=none;fillColor=#005F4B;labelPosition=center;verticalLabelPosition=bottom;verticalAlign=top;align=center;outlineConnect=0;shape=mxgraph.veeam2.report;opacity=70;" vertex="1" parent="1">
          <mxGeometry x="62" y="2130" width="28.000000000000004" height="39" as="geometry" />
        </mxCell>
      </root>
    </mxGraphModel>
  </diagram>
</mxfile>
